<svg width="1161" height="212" viewBox="0 0 1161 212" fill="none" xmlns="http://www.w3.org/2000/svg">
<path d="M1010.3 212V0H1056.64L1076.33 106V0H1116V212H1069.66L1049.98 106V212H1010.3Z" fill="white"/>
<path d="M1001.3 212H954.958V0H1001.3V212Z" fill="white"/>
<path d="M906.196 212L903.167 178.989H883.179L879.847 212H840.173L866.522 0H919.522L946.173 212H906.196ZM886.813 139.314H899.23L892.87 72.9886L886.813 139.314Z" fill="white"/>
<path d="M725.385 212V0H771.722V86.3143H784.745V0H831.082V212H784.745V125.989H771.722V212H725.385Z" fill="white"/>
<path d="M610.298 185.651V26.6514C610.298 12.1143 622.109 0 636.646 0H689.646C704.183 0 716.298 12.1143 716.298 26.6514V72.9886H669.658V39.9771C669.658 36.3429 666.932 33.3143 662.995 33.3143C659.36 33.3143 656.635 36.3429 656.635 39.9771V172.326C656.635 175.96 659.36 178.989 662.995 178.989C666.932 178.989 669.658 175.96 669.658 172.326V139.314H716.298V185.651C716.298 200.189 704.183 212 689.646 212H636.646C622.109 212 610.298 200.189 610.298 185.651Z" fill="white"/>
<path d="M541.841 33.3143V178.989H548.201C552.138 178.989 554.864 175.96 554.864 172.326V39.9771C554.864 36.3429 552.138 33.3143 548.201 33.3143H541.841ZM601.504 26.6514V185.651C601.504 200.189 589.389 212 574.852 212H495.504V0H574.852C589.389 0 601.504 12.1143 601.504 26.6514Z" fill="white"/>
<path d="M407.037 212V0H486.385V33.3143H453.374V86.3143H486.385V125.989H453.374V178.989H486.385V212H407.037Z" fill="white"/>
<path d="M338.587 125.989V178.989H345.249C348.884 178.989 351.609 175.96 351.609 172.326V132.651C351.609 129.017 348.884 125.989 345.249 125.989H338.587ZM371.598 106L372.204 106.303C386.741 106.606 398.249 118.114 398.249 132.651V185.651C398.249 200.189 386.135 212 371.598 212H292.249V0H371.598C386.135 0 398.249 12.1143 398.249 26.6514V79.6514C398.249 94.1886 386.135 106 371.598 106ZM338.587 86.3143H345.249C348.884 86.3143 351.609 83.2857 351.609 79.6514V39.9771C351.609 36.3429 348.884 33.3143 345.249 33.3143H338.587V86.3143Z" fill="white"/>
<path d="M137.532 212V0H190.23L210.218 125.989L230.207 0H283.207V212H236.87V106L216.881 212H203.555L183.87 106V212H137.532Z" fill="white"/>
<path d="M49.0637 212V0H128.412V33.3143H95.4008V86.3143H128.412V125.989H95.4008V178.989H128.412V212H49.0637Z" fill="white"/>
<rect x="1125.62" y="65.6279" width="25.2381" height="25.238" fill="white"/>
<path d="M1150.86 106H1160.95V121.143H1150.86V106Z" fill="white"/>
<rect x="1125.62" y="121.118" width="15.1428" height="15.1429" fill="white"/>
<rect x="1095.33" y="50.5068" width="25.2381" height="25.238" fill="#010312"/>
<rect x="1105.43" y="111.022" width="15.1428" height="15.1429" fill="#010312"/>
<rect x="1085.23" y="126.23" width="15.1428" height="15.1429" fill="#010312"/>
<rect x="42.9069" y="55.4932" width="10.0952" height="25.238" fill="#010312"/>
<rect x="45.4301" y="121.118" width="10.0952" height="20.1904" fill="#010312"/>
<rect x="22.7124" y="55.5215" width="25.2381" height="25.238" fill="white"/>
<path d="M0 121.148H10.0952V136.291H0V121.148Z" fill="white"/>
<rect x="15.1404" y="141.375" width="15.1428" height="15.1429" fill="white"/>
<rect x="60.5702" y="141.375" width="15.1428" height="15.1429" fill="#010312"/>
</svg>
