<svg xmlns="http://www.w3.org/2000/svg" width="100" height="100" fill="none"><rect width="100" height="100" fill="#CBB2FF" rx="12"/><g fill="#09090B" clip-path="url(#a)"><path d="M50.004 41.547a8.446 8.446 0 0 0-8.45 8.449 8.446 8.446 0 0 0 8.45 8.449 8.447 8.447 0 0 0 8.449-8.45 8.446 8.446 0 0 0-8.45-8.448m.042-16.531a2.513 2.513 0 0 0 2.463-2.553A2.486 2.486 0 0 0 49.955 20a2.486 2.486 0 0 0-2.462 2.553 2.486 2.486 0 0 0 2.552 2.463m-.089 49.963a2.486 2.486 0 0 0-2.463 2.552 2.486 2.486 0 0 0 2.552 2.463 2.513 2.513 0 0 0 2.463-2.552 2.486 2.486 0 0 0-2.553-2.463M32.372 32.3a2.513 2.513 0 0 0-.065-3.547 2.487 2.487 0 0 0-3.548.065 2.487 2.487 0 0 0 .065 3.548 2.487 2.487 0 0 0 3.548-.065m35.262 35.394a2.487 2.487 0 0 0 .065 3.548 2.487 2.487 0 0 0 3.548-.065 2.513 2.513 0 0 0-.065-3.548 2.487 2.487 0 0 0-3.548.065m.065-35.329c.98.944 2.572.946 3.548-.065a2.487 2.487 0 0 0-.065-3.548 2.487 2.487 0 0 0-3.548.065 2.487 2.487 0 0 0 .065 3.548M32.307 67.63a2.487 2.487 0 0 0-3.548.065 2.487 2.487 0 0 0 .065 3.548c.98.944 2.572.946 3.548-.065a2.487 2.487 0 0 0-.065-3.548m45.046-20.136a2.487 2.487 0 0 0-2.364 2.647 2.514 2.514 0 0 0 2.646 2.364 2.487 2.487 0 0 0 2.364-2.646 2.484 2.484 0 0 0-2.646-2.362zM22.65 52.501a2.487 2.487 0 0 0 2.365-2.646 2.485 2.485 0 0 0-2.646-2.362 2.487 2.487 0 0 0-2.365 2.646 2.515 2.515 0 0 0 2.646 2.364zm23.463-16.915a4.37 4.37 0 0 0 6.053 1.152c1.125-.765 1.819-2.005 1.904-3.403.062-.908.261-2.196 1.268-2.89 1.03-.655 2.293-.335 3.154-.04 1.32.467 2.732.313 3.875-.425a4.32 4.32 0 0 0 1.894-2.743 4.32 4.32 0 0 0-.597-3.28l-.174-.26a4.37 4.37 0 0 0-6.053-1.152c-1.126.764-1.82 2.003-1.904 3.402-.063.908-.262 2.196-1.269 2.89-1.029.655-2.293.335-3.154.04-1.317-.467-2.731-.313-3.874.425a4.36 4.36 0 0 0-1.3 6.022l.175.262zm-9.602 40.709a4.37 4.37 0 0 0 6.053 1.152c1.126-.765 1.82-2.005 1.904-3.403.063-.908.262-2.197 1.269-2.89 1.029-.655 2.292-.335 3.154-.04 1.32.467 2.731.313 3.874-.425a4.32 4.32 0 0 0 1.895-2.743 4.32 4.32 0 0 0-.597-3.28l-.175-.26a4.37 4.37 0 0 0-6.053-1.152c-1.125.764-1.819 2.003-1.904 3.401-.062.909-.261 2.197-1.268 2.89-1.03.656-2.293.336-3.154.041-1.318-.468-2.732-.313-3.875.425a4.36 4.36 0 0 0-1.3 6.022l.175.262zM57.42 37.048q-.08.434-.076.872a4.37 4.37 0 0 0 3.548 4.217c1.338.252 2.705-.137 3.75-1.067.686-.6 1.735-1.372 2.939-1.15 1.19.261 1.86 1.38 2.261 2.199.604 1.261 1.714 2.15 3.045 2.434a4.33 4.33 0 0 0 3.28-.604 4.32 4.32 0 0 0 1.892-2.745l.062-.309q.082-.435.076-.872a4.37 4.37 0 0 0-3.548-4.217c-1.337-.253-2.702.137-3.749 1.067-.687.6-1.738 1.371-2.94 1.15-1.19-.262-1.86-1.38-2.26-2.2-.605-1.26-1.714-2.149-3.043-2.433a4.36 4.36 0 0 0-5.172 3.349l-.062.309zm-35.539 22.05q-.08.435-.076.873a4.37 4.37 0 0 0 3.548 4.216c1.338.253 2.704-.136 3.75-1.067.686-.6 1.735-1.37 2.938-1.15 1.19.262 1.862 1.38 2.262 2.2.604 1.261 1.714 2.15 3.045 2.433A4.33 4.33 0 0 0 40.627 66a4.32 4.32 0 0 0 1.892-2.744l.063-.31q.081-.433.076-.871a4.37 4.37 0 0 0-3.548-4.217c-1.337-.253-2.702.136-3.749 1.067-.686.6-1.738 1.371-2.94 1.15-1.19-.262-1.86-1.38-2.26-2.2-.605-1.261-1.714-2.149-3.043-2.433a4.36 4.36 0 0 0-5.172 3.349l-.062.308zm42.525-13.01a4.5 4.5 0 0 0-.671.563 4.37 4.37 0 0 0-.472 5.49c.767 1.125 2.009 1.816 3.404 1.897.909.06 2.197.26 2.893 1.264.657 1.027.34 2.29.045 3.154-.466 1.32-.31 2.731.431 3.874a4.33 4.33 0 0 0 2.745 1.89 4.33 4.33 0 0 0 3.28-.601l.261-.175q.365-.25.671-.563a4.37 4.37 0 0 0 .472-5.49c-.767-1.123-2.006-1.816-3.404-1.897-.909-.06-2.2-.26-2.893-1.264-.657-1.026-.34-2.29-.044-3.154.465-1.32.308-2.731-.432-3.872a4.36 4.36 0 0 0-6.024-1.288l-.262.174zM23.687 36.55a4.5 4.5 0 0 0-.671.564 4.37 4.37 0 0 0-.472 5.49c.767 1.125 2.009 1.816 3.405 1.897.908.06 2.196.26 2.892 1.264.658 1.026.34 2.29.045 3.154-.465 1.32-.309 2.731.432 3.874a4.32 4.32 0 0 0 2.744 1.89 4.33 4.33 0 0 0 3.28-.601l.261-.175q.365-.25.672-.563a4.37 4.37 0 0 0 .472-5.49c-.768-1.123-2.007-1.816-3.405-1.897-.908-.06-2.2-.26-2.892-1.264-.658-1.027-.34-2.29-.045-3.154.465-1.32.308-2.731-.432-3.872a4.36 4.36 0 0 0-6.024-1.289l-.262.175zm39.268 20.868a4.4 4.4 0 0 0-.873-.076 4.37 4.37 0 0 0-4.217 3.548c-.252 1.338.137 2.705 1.067 3.75.6.686 1.372 1.735 1.15 2.939-.261 1.19-1.38 1.86-2.199 2.261-1.261.604-2.15 1.714-2.433 3.045a4.33 4.33 0 0 0 .603 3.28 4.32 4.32 0 0 0 2.745 1.892l.309.062q.435.082.872.076a4.37 4.37 0 0 0 4.217-3.547c.253-1.338-.136-2.703-1.067-3.75-.6-.686-1.371-1.738-1.15-2.94.262-1.19 1.38-1.86 2.2-2.26 1.26-.605 2.149-1.714 2.433-3.043a4.36 4.36 0 0 0-3.349-5.172l-.308-.062zM40.9 21.88a4.4 4.4 0 0 0-.872-.077 4.37 4.37 0 0 0-4.217 3.548c-.253 1.338.136 2.704 1.067 3.75.6.686 1.371 1.735 1.15 2.939-.262 1.19-1.38 1.86-2.2 2.261-1.26.604-2.149 1.714-2.433 3.045a4.33 4.33 0 0 0 .604 3.28 4.32 4.32 0 0 0 2.745 1.892l.308.062q.435.081.873.076a4.37 4.37 0 0 0 4.216-3.548c.253-1.337-.136-2.702-1.067-3.749-.6-.687-1.37-1.738-1.15-2.94.262-1.19 1.38-1.86 2.2-2.26 1.261-.605 2.15-1.714 2.433-3.043a4.36 4.36 0 0 0-3.348-5.172l-.31-.062z"/></g><defs><clipPath id="a"><path fill="#fff" d="M20 20h60v59.998H20z"/></clipPath></defs></svg>
