<svg width="3760" height="1050" viewBox="0 0 3760 1050" fill="none" xmlns="http://www.w3.org/2000/svg">
<path d="M1928.01 539.269C1927.02 513.386 1922.37 486.507 1911.76 462.946C1861.99 353.108 1702.41 349.789 1636.39 445.027C1588.94 367.377 1471.83 355.431 1404.15 413.502L1386.89 432.749V391.933H1256.84V858.497H1386.89V556.856C1386.89 551.547 1391.87 535.951 1394.19 530.641C1415.43 480.866 1493.72 478.211 1517.94 525.996C1521.26 532.3 1526.9 548.561 1526.9 555.529V858.497H1656.96V565.484C1657.62 511.063 1705.39 476.883 1757.15 497.789C1775.4 505.09 1796.63 530.973 1796.63 550.883V856.838C1796.63 856.838 1798.29 858.829 1798.62 858.829H1926.02C1927.02 858.829 1928.34 855.843 1928.01 854.515C1924.36 750.318 1932.33 643.466 1928.01 539.601V539.269Z" fill="#181818"/>
<path d="M2890.15 402.552C2871.9 414.166 2858.3 428.767 2844.37 445.027C2806.87 377 2709.33 360.076 2642.65 393.924C2623.74 403.547 2609.47 416.821 2595.54 432.749V391.933H2465.48V858.497H2595.54V572.785C2589.23 470.247 2735.54 461.951 2736.87 565.484V858.497H2866.93V556.856C2866.93 552.211 2871.57 537.278 2873.56 532.3C2894.46 480.866 2973.09 477.215 2998.31 525.996C3001.29 531.637 3007.26 548.561 3007.26 554.202V858.497H3137.32V526.991C3134 400.893 2995.32 336.516 2891.14 402.552H2890.15Z" fill="#181818"/>
<path d="M1979.11 516.04C1895.83 698.551 2038.16 901.968 2241.54 869.116C2327.47 855.179 2401.45 792.13 2423.35 707.843H2292.63C2280.35 728.085 2266.42 746.004 2244.19 755.959C2176.84 785.161 2104.18 742.354 2091.58 672.336H2428.99C2430.31 671.672 2430.31 670.677 2430.65 669.35C2437.28 642.139 2435.29 599 2430.31 571.126C2390.83 344.812 2074.99 305.987 1978.77 516.704L1979.11 516.04ZM2091.58 575.771C2104.18 518.695 2146.32 479.538 2207.36 484.516C2253.48 488.166 2298.6 527.987 2298.27 575.771H2091.58Z" fill="#181818"/>
<path d="M3666.83 398.238C3638.63 272.471 3554.69 172.256 3416.01 177.565C3173.48 186.525 3135.99 503.762 3191.73 684.282C3230.55 810.049 3330.08 891.681 3467.1 869.448C3672.47 835.932 3703.65 563.161 3666.49 398.57L3666.83 398.238ZM3310.17 517.368C3310.17 500.112 3311.17 484.516 3312.49 471.574C3317.8 413.502 3340.36 317.601 3411.36 309.637C3447.19 305.655 3473.4 317.933 3492.65 339.834C3499.28 347.467 3502.93 351.449 3505.25 360.408C3506.25 364.059 3506.58 370.695 3506.25 374.677C3505.25 383.969 3500.94 390.606 3492.65 403.547L3404.73 538.605C3382.5 572.453 3371.55 589.708 3351.98 591.036C3343.68 591.699 3332.07 588.049 3325.43 583.072C3309.84 571.126 3310.17 553.538 3310.5 518.031L3310.17 517.368ZM3540.09 530.973C3539.76 561.502 3537.1 589.045 3533.79 609.287C3524.83 663.708 3498.29 736.381 3433.26 741.027C3399.75 743.349 3375.2 730.74 3356.95 709.502C3350.32 701.87 3347 697.888 3344.68 688.928C3343.68 685.278 3343.35 678.641 3343.68 674.991C3344.68 665.699 3348.99 659.394 3357.28 646.453L3446.2 510.067C3468.1 476.552 3479.04 459.628 3498.62 458.632C3506.91 457.969 3518.52 461.619 3525.16 466.596C3540.75 478.543 3540.42 496.13 3540.09 530.973Z" fill="#181818"/>
<path d="M524.62 399.565C455.279 399.565 399.21 455.646 399.21 525C399.21 594.354 455.279 650.435 524.62 650.435C593.96 650.435 650.029 594.354 650.029 525C650.029 455.646 593.96 399.565 524.62 399.565Z" fill="#181818"/>
<path d="M525.283 154.337C545.521 154.005 562.11 137.413 561.778 116.507C561.446 95.6015 544.858 79.6733 523.956 80.0051C503.055 80.3369 487.129 96.9288 487.461 117.835C487.793 138.74 504.382 154.669 525.283 154.337Z" fill="#181818"/>
<path d="M523.956 895.663C503.055 895.995 487.129 912.587 487.461 933.493C487.793 954.399 504.382 970.327 525.283 969.995C545.521 969.663 562.11 953.071 561.778 932.165C561.446 911.259 544.858 895.331 523.956 895.663Z" fill="#181818"/>
<path d="M263.184 262.516C277.118 247.915 277.118 224.355 262.188 209.754C247.259 195.153 224.035 195.817 209.437 210.749C194.839 225.682 195.502 248.911 210.432 263.512C225.362 278.112 248.586 277.449 263.184 262.516Z" fill="#181818"/>
<path d="M786.387 787.484C771.789 802.417 772.453 825.645 787.383 840.246C802.312 854.847 825.536 854.183 840.134 839.251C854.069 824.65 854.069 801.089 839.139 786.488C824.209 771.888 800.985 772.551 786.387 787.484Z" fill="#181818"/>
<path d="M787.051 263.512C801.649 277.449 825.205 277.449 839.802 262.516C854.4 247.583 853.737 224.355 838.807 209.754C823.877 195.153 800.653 195.817 786.056 210.749C771.458 225.682 772.121 248.911 787.051 263.512Z" fill="#181818"/>
<path d="M262.188 786.488C247.259 771.888 224.035 772.551 209.437 787.484C194.839 802.417 195.502 825.645 210.432 840.246C225.03 854.183 248.586 854.183 263.184 839.251C277.782 824.318 277.118 801.089 262.188 786.488Z" fill="#181818"/>
<path d="M930.376 487.834C909.474 489.161 894.213 506.417 895.208 526.991C896.204 547.233 913.788 563.161 934.357 562.166C955.259 560.838 970.52 543.583 969.525 523.009C968.198 502.103 950.946 486.839 930.376 487.834Z" fill="#181818"/>
<path d="M119.195 562.166C140.097 560.838 155.358 543.583 154.363 523.009C153.036 502.103 135.784 486.839 115.214 487.834C94.3122 489.161 79.0507 506.417 80.046 526.991C81.0413 547.233 98.6252 563.161 119.195 562.166Z" fill="#181818"/>
<path d="M467.223 311.296C469.546 314.946 472.532 318.265 475.517 321.251C497.414 342.489 531.587 345.476 556.801 328.552C573.39 317.269 583.675 298.686 585.002 278.112C585.997 264.507 588.983 245.592 603.913 235.305C619.174 225.682 637.754 230.328 650.693 234.642C670.267 241.61 691.169 239.287 708.089 228.337C722.687 219.045 732.64 204.444 736.29 187.521C739.939 170.597 736.953 153.341 727.332 138.74L724.678 134.758C722.355 131.108 719.369 127.79 716.384 124.803C694.487 103.566 660.314 100.579 635.099 117.503C618.511 128.785 608.226 147.368 606.899 167.942C605.904 181.548 602.918 200.462 587.988 210.749C572.726 220.373 554.147 215.727 541.208 211.413C521.634 204.444 500.732 206.767 483.812 217.718C453.952 236.965 445.326 277.117 464.569 306.982L467.223 310.964V311.296Z" fill="#181818"/>
<path d="M324.562 915.242C326.884 918.892 329.87 922.21 332.856 925.197C354.753 946.434 388.925 949.421 414.14 932.497C430.728 921.215 441.013 902.632 442.34 882.058C443.336 868.452 446.322 849.538 461.251 839.251C476.513 829.627 495.092 834.273 508.031 838.587C527.606 845.556 548.507 843.233 565.428 832.282C580.025 822.991 589.979 808.39 593.628 791.466C597.278 774.542 594.292 757.287 584.67 742.686L582.016 738.704C579.694 735.053 576.708 731.735 573.722 728.749C551.825 707.511 517.652 704.524 492.438 721.448C475.849 732.731 465.564 751.314 464.237 771.888C463.242 785.493 460.256 804.408 445.326 814.695C430.065 824.318 411.486 819.672 398.547 815.358C378.972 808.39 358.07 810.713 341.15 821.663C311.291 840.91 302.665 881.062 321.907 910.928L324.562 914.91V915.242Z" fill="#181818"/>
<path d="M634.768 332.866C634.104 337.18 633.441 341.494 633.772 345.807C634.104 376.337 656.333 402.552 686.524 408.193C706.43 411.843 726.668 406.202 742.262 392.265C752.547 383.305 768.14 372.023 785.724 375.341C803.308 379.323 813.261 395.915 819.233 407.861C828.19 426.444 844.779 439.718 864.354 444.031C881.274 447.682 898.526 444.363 913.124 435.072C927.722 425.78 937.675 411.18 941.324 394.256L942.32 389.61C942.983 385.296 943.647 380.982 943.315 376.668C942.983 346.139 920.755 319.924 890.563 314.283C870.657 310.633 850.419 316.274 834.826 330.211C824.541 339.171 808.948 350.453 791.364 347.135C773.78 343.153 763.827 326.561 757.855 314.615C748.897 296.032 732.309 282.758 712.734 278.444C677.898 271.144 643.394 293.377 636.095 328.22L635.1 332.866H634.768Z" fill="#181818"/>
<path d="M107.583 660.058C106.919 664.372 106.256 668.686 106.588 673C106.919 703.529 129.148 729.744 159.339 735.385C179.246 739.036 199.484 733.394 215.077 719.457C225.362 710.498 240.955 699.215 258.539 702.533C276.123 706.515 286.076 723.107 292.048 735.054C301.006 753.636 317.594 766.91 337.169 771.224C354.089 774.874 371.341 771.556 385.939 762.264C400.537 752.973 410.49 738.372 414.14 721.448L415.135 716.802C415.799 712.489 416.462 708.175 416.13 703.861C415.799 673.332 393.57 647.116 363.379 641.475C343.473 637.825 323.234 643.466 307.641 657.403C297.356 666.363 281.763 677.646 264.179 674.327C246.595 670.345 236.642 653.753 230.67 641.807C221.712 623.224 205.124 609.951 185.549 605.637C150.713 598.336 116.209 620.569 108.91 655.412L107.915 660.058H107.583Z" fill="#181818"/>
<path d="M738.28 466.928C734.631 469.251 731.313 472.238 728.327 475.224C707.094 497.126 704.108 531.305 721.36 556.525C732.64 573.117 751.22 583.403 771.789 584.731C785.392 585.726 804.303 588.713 814.588 603.646C824.209 618.91 819.564 637.493 815.251 650.435C808.284 670.013 810.607 690.919 821.555 707.843C830.845 722.444 845.443 732.399 862.363 736.049C879.283 739.699 896.535 736.381 911.133 727.089L915.115 724.435C918.764 722.112 922.082 719.125 925.068 716.139C946.301 694.237 949.287 660.058 932.035 634.838C920.755 618.246 902.176 607.959 881.606 606.632C868.003 605.637 849.092 602.65 838.807 587.717C829.186 572.453 833.831 553.87 838.144 540.928C845.111 521.35 842.788 500.444 831.84 483.52C812.597 453.655 772.453 445.027 742.593 464.274L738.612 466.928H738.28Z" fill="#181818"/>
<path d="M134.457 325.565C130.807 327.888 127.489 330.875 124.503 333.861C103.27 355.763 100.284 389.942 117.536 415.162C128.816 431.754 147.396 442.04 167.965 443.368C181.568 444.363 200.479 447.35 210.764 462.283C220.385 477.547 215.741 496.13 211.427 509.072C204.46 528.65 206.783 549.556 217.731 566.48C227.021 581.081 241.619 591.036 258.539 594.686C275.459 598.336 292.711 595.018 307.309 585.726L311.291 583.072C314.94 580.749 318.258 577.762 321.244 574.776C342.477 552.874 345.463 518.695 328.211 493.475C316.931 476.883 298.352 466.597 277.782 465.269C264.179 464.274 245.268 461.287 234.983 446.354C225.362 431.09 230.007 412.507 234.32 399.565C241.287 379.987 238.965 359.081 228.016 342.157C208.773 312.292 168.629 303.664 138.77 322.911L134.788 325.565H134.457Z" fill="#181818"/>
<path d="M716.715 635.17C712.402 634.507 708.089 633.843 703.776 634.175C673.253 634.507 647.043 656.74 641.403 686.937C637.754 706.847 643.394 727.089 657.328 742.686C666.286 752.973 677.566 768.569 674.249 786.157C670.267 803.744 653.679 813.699 641.735 819.672C623.156 828.632 609.885 845.224 605.572 864.802C601.922 881.726 605.24 898.982 614.53 913.582C623.819 928.183 638.417 938.138 655.338 941.789L659.982 942.784C664.295 943.448 668.608 944.111 672.922 943.78C703.444 943.448 729.654 921.215 735.294 891.017C738.944 871.107 733.304 850.865 719.369 835.269C710.412 824.982 699.131 809.385 702.449 791.798C706.43 774.21 723.019 764.255 734.963 758.282C753.542 749.323 766.813 732.731 771.126 713.152C778.425 678.309 756.196 643.798 721.36 636.498L716.715 635.502V635.17Z" fill="#181818"/>
<path d="M389.589 107.879C385.276 107.216 380.963 106.552 376.65 106.884C346.127 107.216 319.917 129.449 314.277 159.646C310.627 179.557 316.267 199.799 330.202 215.395C339.159 225.682 350.44 241.278 347.122 258.866C343.141 276.453 326.552 286.408 314.608 292.381C296.029 301.341 282.758 317.933 278.445 337.511C274.796 354.435 278.114 371.691 287.403 386.292C296.693 400.893 311.291 410.848 328.211 414.498L332.856 415.493C337.169 416.157 341.482 416.821 345.795 416.489C376.318 416.157 402.528 393.924 408.168 363.727C411.817 343.816 406.177 323.574 392.243 307.978C383.285 297.691 372.005 282.094 375.323 264.507C379.304 246.92 395.892 236.965 407.836 230.991C426.415 222.032 439.686 205.44 443.999 185.861C451.298 151.018 429.069 116.507 394.233 109.207L389.589 108.211V107.879Z" fill="#181818"/>
</svg>
