<svg width="307" height="307" viewBox="0 0 307 307" fill="none" xmlns="http://www.w3.org/2000/svg">
<path d="M162.496 25.3505C165.003 25.3505 167.453 24.6071 169.538 23.2144C171.622 21.8216 173.247 19.8419 174.206 17.5258C175.165 15.2097 175.416 12.6612 174.927 10.2024C174.438 7.74365 173.231 5.48516 171.458 3.71249C169.686 1.93983 167.427 0.73263 164.968 0.243552C162.51 -0.245525 159.961 0.00550576 157.645 0.964866C155.329 1.92423 153.349 3.54885 151.956 5.63328C150.564 7.71772 149.82 10.1683 149.82 12.6753C149.818 14.3404 150.145 15.9895 150.781 17.5283C151.417 19.0671 152.351 20.4653 153.528 21.6427C154.706 22.8201 156.104 23.7537 157.643 24.39C159.181 25.0262 160.83 25.3526 162.496 25.3505Z" fill="#9C58FA"/>
<path d="M69.3342 56.559C71.1066 54.7862 72.3135 52.5277 72.8024 50.069C73.2913 47.6103 73.0401 45.0619 72.0807 42.7459C71.1213 40.43 69.4967 38.4505 67.4123 37.0579C65.3279 35.6652 62.8774 34.9219 60.3706 34.9219C57.8637 34.9219 55.4132 35.6652 53.3288 37.0579C51.2444 38.4505 49.6198 40.43 48.6604 42.7459C47.701 45.0619 47.4498 47.6103 47.9387 50.069C48.4276 52.5277 49.6345 54.7862 51.4069 56.559C52.5839 57.7363 53.9813 58.6701 55.5193 59.3073C57.0573 59.9444 58.7058 60.2724 60.3706 60.2724C62.0353 60.2724 63.6838 59.9444 65.2218 59.3073C66.7598 58.6701 68.1572 57.7363 69.3342 56.559Z" fill="#9C58FA"/>
<path d="M25.3505 144.504C25.3505 141.997 24.6071 139.547 23.2143 137.462C21.8216 135.378 19.842 133.753 17.5259 132.794C15.2098 131.835 12.6612 131.584 10.2024 132.073C7.74368 132.562 5.48513 133.769 3.71247 135.542C1.9398 137.314 0.732655 139.573 0.243578 142.032C-0.2455 144.49 0.00543354 147.039 0.964793 149.355C1.92415 151.671 3.54877 153.651 5.63321 155.044C7.71764 156.436 10.1683 157.18 12.6752 157.18C16.0369 157.18 19.261 155.844 21.638 153.467C24.0151 151.09 25.3505 147.866 25.3505 144.504Z" fill="#9C58FA"/>
<path d="M56.5589 237.749C54.7862 235.976 52.5277 234.769 50.069 234.28C47.6103 233.792 45.0619 234.043 42.7459 235.002C40.43 235.962 38.4505 237.586 37.0579 239.671C35.6652 241.755 34.9219 244.206 34.9219 246.712C34.9219 249.219 35.6652 251.67 37.0579 253.754C38.4505 255.838 40.43 257.463 42.7459 258.423C45.0619 259.382 47.6103 259.633 50.069 259.144C52.5277 258.655 54.7862 257.448 56.5589 255.676C57.7362 254.499 58.6701 253.102 59.3073 251.564C59.9444 250.026 60.2724 248.377 60.2724 246.712C60.2724 245.048 59.9444 243.399 59.3073 241.861C58.6701 240.323 57.7362 238.926 56.5589 237.749Z" fill="#9C58FA"/>
<path d="M144.488 281.648C141.981 281.648 139.53 282.392 137.446 283.785C135.361 285.177 133.737 287.157 132.777 289.473C131.818 291.789 131.567 294.338 132.056 296.797C132.545 299.255 133.752 301.514 135.525 303.286C137.298 305.059 139.556 306.266 142.015 306.755C144.474 307.244 147.022 306.993 149.338 306.034C151.655 305.075 153.634 303.45 155.027 301.366C156.42 299.281 157.163 296.831 157.163 294.324C157.159 290.963 155.822 287.742 153.446 285.366C151.07 282.989 147.848 281.653 144.488 281.648Z" fill="#9C58FA"/>
<path d="M237.751 250.487C235.978 252.26 234.771 254.518 234.282 256.977C233.794 259.435 234.045 261.984 235.004 264.3C235.964 266.616 237.588 268.595 239.673 269.988C241.757 271.381 244.207 272.124 246.714 272.124C249.221 272.124 251.672 271.381 253.756 269.988C255.84 268.595 257.465 266.616 258.424 264.3C259.384 261.984 259.635 259.435 259.146 256.977C258.657 254.518 257.45 252.26 255.678 250.487C254.501 249.31 253.104 248.376 251.566 247.739C250.028 247.101 248.379 246.773 246.714 246.773C245.05 246.773 243.401 247.101 241.863 247.739C240.325 248.376 238.928 249.31 237.751 250.487Z" fill="#9C58FA"/>
<path d="M281.648 162.512C281.648 165.019 282.392 167.469 283.785 169.554C285.177 171.638 287.157 173.263 289.473 174.222C291.789 175.181 294.338 175.432 296.797 174.943C299.255 174.454 301.514 173.247 303.286 171.474C305.059 169.702 306.266 167.443 306.755 164.984C307.244 162.526 306.993 159.977 306.034 157.661C305.075 155.345 303.45 153.365 301.366 151.973C299.281 150.58 296.831 149.836 294.324 149.836C290.962 149.836 287.738 151.172 285.361 153.549C282.984 155.926 281.648 159.15 281.648 162.512Z" fill="#9C58FA"/>
<path d="M250.471 69.3303C252.244 71.1027 254.503 72.3097 256.961 72.7985C259.42 73.2874 261.968 73.0363 264.284 72.0768C266.6 71.1174 268.58 69.4928 269.972 67.4084C271.365 65.324 272.108 62.8735 272.108 60.3667C272.108 57.8599 271.365 55.4093 269.972 53.3249C268.58 51.2406 266.6 49.616 264.284 48.6565C261.968 47.6971 259.42 47.4459 256.961 47.9348C254.503 48.4236 252.244 49.6306 250.471 51.403C249.294 52.58 248.36 53.9775 247.723 55.5155C247.086 57.0535 246.758 58.7019 246.758 60.3667C246.758 62.0314 247.086 63.6799 247.723 65.2179C248.36 66.7559 249.294 68.1533 250.471 69.3303Z" fill="#9C58FA"/>
<path d="M184.782 60.8054C180.168 63.4713 178.3 69.0427 177.63 74.3267C177.047 78.9358 175.033 83.2457 171.87 86.6488C168.707 90.052 164.556 92.3766 160.002 93.2951C155.448 94.2136 150.721 93.6796 146.487 91.7683C142.252 89.857 138.724 86.6649 136.401 82.642C134.077 78.6192 133.075 73.9684 133.535 69.3455C133.995 64.7226 135.895 60.3607 138.966 56.8748C142.037 53.389 146.125 50.9549 150.653 49.9159C155.181 48.8768 159.921 49.2852 164.204 51.0834C169.121 53.1428 174.884 54.2762 179.514 51.6422C184.143 49.0082 185.995 43.4049 186.665 38.1208C187.245 33.5107 189.257 29.1987 192.418 25.7931C195.579 22.3876 199.73 20.0603 204.284 19.1394C208.838 18.2185 213.567 18.7505 217.803 20.6605C222.039 22.5704 225.568 25.7618 227.893 29.7846C230.218 33.8075 231.222 38.4587 230.763 43.0824C230.303 47.7062 228.404 52.0691 225.333 55.5559C222.262 59.0426 218.173 61.4773 213.645 62.5165C209.116 63.5557 204.375 63.147 200.091 61.3481C195.174 59.3048 189.411 58.1554 184.782 60.8054Z" fill="#9C58FA"/>
<path d="M110.073 65.8178C108.7 70.9742 111.318 76.2422 114.575 80.4567C117.417 84.1261 119.036 88.595 119.204 93.2335C119.372 97.872 118.08 102.446 115.51 106.311C112.941 110.177 109.223 113.138 104.881 114.778C100.538 116.419 95.7912 116.655 91.3077 115.454C86.8242 114.253 82.8306 111.675 79.8898 108.084C76.9489 104.493 75.2091 100.07 74.9155 95.4379C74.6219 90.8057 75.7894 86.1981 78.2533 82.2645C80.7173 78.331 84.3534 75.2698 88.6494 73.5124C93.5822 71.485 98.4991 68.2444 99.8241 63.0881C101.149 57.9317 98.579 52.6637 95.3224 48.4493C92.4827 44.7781 90.8665 40.3083 90.7018 35.6699C90.537 31.0315 91.8319 26.4583 94.4039 22.5949C96.976 18.7314 100.695 15.7724 105.038 14.1349C109.381 12.4974 114.128 12.2639 118.611 13.4673C123.094 14.6708 127.085 17.2505 130.024 20.8429C132.963 24.4354 134.7 28.8594 134.991 33.4916C135.283 38.1237 134.113 42.7305 131.647 46.6627C129.182 50.5948 125.544 53.6541 121.248 55.4095C116.363 57.4209 111.462 60.6775 110.073 65.8178Z" fill="#9C58FA"/>
<path d="M60.7892 122.218C63.4552 126.831 69.0425 128.699 74.3265 129.37C78.9361 129.955 83.2455 131.973 86.6471 135.138C90.0487 138.304 92.3707 142.457 93.2857 147.013C94.2006 151.569 93.6625 156.296 91.747 160.53C89.8314 164.763 86.6353 168.288 82.6093 170.608C78.5833 172.928 73.9305 173.926 69.3073 173.46C64.6841 172.995 60.3236 171.09 56.841 168.014C53.3583 164.938 50.9292 160.846 49.8962 156.316C48.8631 151.785 49.2783 147.045 51.0832 142.763C53.1426 137.846 54.2759 132.083 51.6419 127.454C49.0079 122.824 43.4046 120.973 38.1047 120.302C33.4951 119.717 29.1856 117.699 25.7841 114.533C22.3825 111.368 20.0604 107.214 19.1454 102.659C18.2304 98.1032 18.7687 93.3752 20.6842 89.1418C22.5997 84.9084 25.7959 81.3832 29.8219 79.0632C33.8479 76.7433 38.5006 75.7457 43.1238 76.2113C47.7471 76.6768 52.1075 78.582 55.5902 81.658C59.0728 84.7341 61.502 88.8258 62.535 93.3561C63.568 97.8865 63.1528 102.627 61.3479 106.908C59.2886 111.825 58.1552 117.588 60.7892 122.218Z" fill="#9C58FA"/>
<path d="M65.8204 196.93C70.9767 198.303 76.2287 195.685 80.4592 192.428C84.1286 189.586 88.5975 187.967 93.236 187.799C97.8745 187.631 102.449 188.923 106.314 191.493C110.179 194.062 113.141 197.78 114.781 202.122C116.421 206.464 116.657 211.212 115.457 215.695C114.256 220.179 111.678 224.172 108.087 227.113C104.496 230.054 100.073 231.794 95.4404 232.087C90.8082 232.381 86.2006 231.214 82.2671 228.75C78.3335 226.286 75.2723 222.649 73.5149 218.353C71.4875 213.421 68.231 208.504 63.0906 207.179C57.9503 205.854 52.6662 208.424 48.4518 211.681C44.7804 214.528 40.308 216.151 35.6652 216.32C31.0224 216.49 26.4435 215.199 22.5738 212.628C18.7042 210.057 15.7391 206.336 14.0968 201.99C12.4544 197.644 12.2176 192.892 13.4197 188.404C14.6218 183.917 17.2021 179.919 20.7969 176.976C24.3917 174.033 28.8195 172.293 33.4562 172C38.0929 171.708 42.7045 172.878 46.6407 175.345C50.577 177.813 53.6394 181.454 55.3961 185.755C57.4235 190.656 60.6641 195.541 65.8204 196.93Z" fill="#9C58FA"/>
<path d="M122.205 246.21C126.818 243.544 128.686 237.956 129.373 232.672C129.96 228.068 131.978 223.763 135.142 220.366C138.306 216.969 142.456 214.651 147.008 213.738C151.559 212.825 156.283 213.364 160.512 215.278C164.741 217.192 168.263 220.385 170.58 224.408C172.898 228.43 173.895 233.078 173.43 237.697C172.966 242.316 171.064 246.673 167.991 250.153C164.919 253.633 160.832 256.061 156.306 257.095C151.781 258.129 147.045 257.717 142.766 255.916C137.833 253.856 132.07 252.723 127.457 255.357C122.843 257.991 120.96 263.594 120.289 268.894C119.7 273.498 117.681 277.8 114.517 281.196C111.353 284.591 107.204 286.908 102.653 287.821C98.1027 288.733 93.3808 288.194 89.1525 286.281C84.9243 284.367 81.4031 281.175 79.085 277.154C76.767 273.134 75.7689 268.487 76.2316 263.869C76.6942 259.251 78.5942 254.895 81.6638 251.414C84.7334 247.933 88.8179 245.503 93.3417 244.466C97.8655 243.429 102.601 243.838 106.88 245.635C111.828 247.694 117.591 248.876 122.205 246.21Z" fill="#9C58FA"/>
<path d="M196.915 241.18C198.304 236.024 195.686 230.756 192.414 226.542C189.567 222.87 187.944 218.398 187.774 213.755C187.604 209.112 188.896 204.533 191.467 200.664C194.038 196.794 197.759 193.829 202.104 192.187C206.45 190.544 211.202 190.307 215.69 191.509C220.178 192.712 224.175 195.292 227.118 198.887C230.061 202.481 231.802 206.909 232.094 211.546C232.387 216.183 231.217 220.794 228.749 224.731C226.281 228.667 222.64 231.729 218.339 233.486C213.406 235.513 208.505 238.77 207.164 243.91C205.823 249.051 208.393 254.335 211.666 258.549C214.513 262.22 216.136 266.693 216.306 271.335C216.476 275.978 215.184 280.557 212.613 284.427C210.042 288.297 206.321 291.262 201.975 292.904C197.629 294.546 192.877 294.783 188.39 293.581C183.902 292.379 179.905 289.799 176.962 286.204C174.019 282.609 172.278 278.181 171.985 273.545C171.693 268.908 172.863 264.296 175.331 260.36C177.799 256.424 181.44 253.361 185.741 251.605C190.658 249.577 195.543 246.337 196.915 241.18Z" fill="#9C58FA"/>
<path d="M246.195 184.797C243.529 180.184 237.957 178.316 232.673 177.629C228.069 177.045 223.764 175.03 220.365 171.869C216.967 168.708 214.646 164.56 213.729 160.01C212.813 155.46 213.348 150.737 215.258 146.507C217.168 142.277 220.357 138.753 224.376 136.431C228.395 134.11 233.041 133.108 237.66 133.567C242.279 134.026 246.637 135.923 250.12 138.991C253.604 142.058 256.037 146.141 257.077 150.664C258.117 155.188 257.711 159.923 255.917 164.204C253.857 169.137 252.724 174.9 255.342 179.513C257.96 184.127 263.595 186.01 268.879 186.681C273.484 187.267 277.789 189.283 281.186 192.446C284.584 195.608 286.904 199.757 287.819 204.308C288.733 208.859 288.197 213.582 286.285 217.811C284.372 222.041 281.181 225.564 277.16 227.884C273.14 230.203 268.492 231.203 263.874 230.741C259.255 230.279 254.897 228.379 251.416 225.31C247.934 222.24 245.503 218.155 244.466 213.63C243.429 209.106 243.838 204.37 245.636 200.09C247.695 195.173 248.861 189.411 246.195 184.797Z" fill="#9C58FA"/>
<path d="M241.18 110.07C236.024 108.697 230.756 111.315 226.542 114.588C222.87 117.435 218.398 119.058 213.755 119.228C209.112 119.398 204.533 118.106 200.664 115.535C196.794 112.964 193.829 109.243 192.187 104.897C190.544 100.551 190.307 95.7994 191.509 91.3117C192.712 86.824 195.292 82.8268 198.887 79.8837C202.481 76.9405 206.909 75.2 211.546 74.9073C216.183 74.6147 220.794 75.7849 224.731 78.2527C228.667 80.7206 231.729 84.3617 233.486 88.6627C235.513 93.5955 238.754 98.4964 243.91 99.8374C249.066 101.178 254.335 98.6082 258.549 95.3356C262.22 92.4959 266.69 90.8798 271.328 90.7151C275.967 90.5503 280.54 91.8452 284.403 94.4172C288.267 96.9892 291.226 100.709 292.863 105.052C294.501 109.394 294.734 114.142 293.531 118.624C292.327 123.107 289.748 127.099 286.155 130.037C282.563 132.976 278.139 134.714 273.507 135.005C268.875 135.296 264.268 134.126 260.336 131.661C256.403 129.195 253.344 125.557 251.589 121.261C249.577 116.36 246.321 111.459 241.18 110.07Z" fill="#9C58FA"/>
<path d="M153.491 191.533C174.501 191.533 191.533 174.501 191.533 153.491C191.533 132.482 174.501 115.45 153.491 115.45C132.481 115.45 115.449 132.482 115.449 153.491C115.449 174.501 132.481 191.533 153.491 191.533Z" fill="#9C58FA"/>
</svg>
