<svg width="32" height="32" viewBox="0 0 32 32" fill="none" xmlns="http://www.w3.org/2000/svg">
<path d="M24.625 12.0075C24.4842 11.848 24.3111 11.7202 24.1171 11.6327C23.9231 11.5452 23.7128 11.5 23.5 11.5H20V10.5C20 9.83696 19.7366 9.20107 19.2678 8.73223C18.7989 8.26339 18.163 8 17.5 8C17.4071 7.99993 17.316 8.02574 17.237 8.07454C17.158 8.12333 17.0941 8.19318 17.0525 8.27625L14.6912 13H12C11.7348 13 11.4804 13.1054 11.2929 13.2929C11.1054 13.4804 11 13.7348 11 14V19.5C11 19.7652 11.1054 20.0196 11.2929 20.2071C11.4804 20.3946 11.7348 20.5 12 20.5H22.75C23.1154 20.5001 23.4684 20.3668 23.7425 20.1252C24.0166 19.8835 24.1931 19.5501 24.2388 19.1875L24.9888 13.1875C25.0153 12.9763 24.9966 12.7618 24.9339 12.5583C24.8712 12.3549 24.7659 12.1671 24.625 12.0075ZM12 14H14.5V19.5H12V14ZM23.9963 13.0625L23.2463 19.0625C23.231 19.1834 23.1722 19.2945 23.0808 19.3751C22.9895 19.4556 22.8718 19.5 22.75 19.5H15.5V13.6181L17.7944 9.02875C18.1344 9.09681 18.4404 9.2806 18.6602 9.54884C18.88 9.81708 19.0001 10.1532 19 10.5V12C19 12.1326 19.0527 12.2598 19.1464 12.3536C19.2402 12.4473 19.3674 12.5 19.5 12.5H23.5C23.571 12.5 23.6411 12.5151 23.7058 12.5442C23.7704 12.5734 23.8282 12.616 23.8751 12.6692C23.9221 12.7224 23.9571 12.785 23.978 12.8528C23.9989 12.9206 24.0051 12.9921 23.9963 13.0625Z" fill="black"/>
<path d="M12 15.5H8.5V22H19H20.5L21 19L21.5 14.5L20.5 14H16.5V13L16 11L14.5 10.5L12 15.5Z" fill="white"/>
<path d="M21.625 14.0075C21.4842 13.848 21.3111 13.7202 21.1171 13.6327C20.9231 13.5452 20.7128 13.5 20.5 13.5H17V12.5C17 11.837 16.7366 11.2011 16.2678 10.7322C15.7989 10.2634 15.163 10 14.5 10C14.4071 9.99993 14.316 10.0257 14.237 10.0745C14.158 10.1233 14.0941 10.1932 14.0525 10.2763L11.6912 15H9C8.73478 15 8.48043 15.1054 8.29289 15.2929C8.10536 15.4804 8 15.7348 8 16V21.5C8 21.7652 8.10536 22.0196 8.29289 22.2071C8.48043 22.3946 8.73478 22.5 9 22.5H19.75C20.1154 22.5001 20.4684 22.3668 20.7425 22.1252C21.0166 21.8835 21.1931 21.5501 21.2388 21.1875L21.9888 15.1875C22.0153 14.9763 21.9966 14.7618 21.9339 14.5583C21.8712 14.3549 21.7659 14.1671 21.625 14.0075ZM9 16H11.5V21.5H9V16ZM20.9963 15.0625L20.2463 21.0625C20.231 21.1834 20.1722 21.2945 20.0808 21.3751C19.9895 21.4556 19.8718 21.5 19.75 21.5H12.5V15.6181L14.7944 11.0288C15.1344 11.0968 15.4404 11.2806 15.6602 11.5488C15.88 11.8171 16.0001 12.1532 16 12.5V14C16 14.1326 16.0527 14.2598 16.1464 14.3536C16.2402 14.4473 16.3674 14.5 16.5 14.5H20.5C20.571 14.5 20.6411 14.5151 20.7058 14.5442C20.7704 14.5734 20.8282 14.616 20.8751 14.6692C20.9221 14.7224 20.9571 14.785 20.978 14.8528C20.9989 14.9206 21.0051 14.9921 20.9963 15.0625Z" fill="black"/>
</svg>
