<svg xmlns="http://www.w3.org/2000/svg" width="41" height="24" viewBox="0 0 41 24" fill="none">
  <g clip-path="url(#clip0_8821_113354)">
    <path d="M11.5294 8.75552C11.5294 9.24343 11.5827 9.63904 11.6761 9.92915C11.7829 10.2193 11.9163 10.5357 12.1031 10.8786C12.1698 10.9841 12.1965 11.0896 12.1965 11.1819C12.1965 11.3138 12.1164 11.4456 11.943 11.5775L11.1024 12.1313C10.9823 12.2105 10.8622 12.25 10.7555 12.25C10.6221 12.25 10.4886 12.1841 10.3552 12.0654C10.1684 11.8676 10.0083 11.6566 9.8749 11.4456C9.74147 11.2215 9.60805 10.9709 9.46129 10.6676C8.42058 11.8808 7.11303 12.4874 5.53862 12.4874C4.41786 12.4874 3.52393 12.1709 2.87015 11.5379C2.21637 10.905 1.88281 10.061 1.88281 9.00607C1.88281 7.88519 2.28308 6.9753 3.09697 6.28959C3.91085 5.60387 4.99159 5.26102 6.36585 5.26102C6.81949 5.26102 7.28648 5.30058 7.78014 5.36651C8.27381 5.43244 8.78082 5.53794 9.31452 5.65662V4.69398C9.31452 3.69178 9.10104 2.99288 8.68743 2.58409C8.26047 2.1753 7.53998 1.9775 6.51262 1.9775C6.04563 1.9775 5.56531 2.03025 5.07164 2.14893C4.57797 2.26761 4.09765 2.41266 3.63066 2.59728C3.41719 2.68959 3.25708 2.74233 3.16368 2.76871C3.07028 2.79508 3.00357 2.80827 2.9502 2.80827C2.76341 2.80827 2.67001 2.6764 2.67001 2.39948V1.75332C2.67001 1.54233 2.6967 1.38409 2.76341 1.29178C2.83012 1.19948 2.9502 1.10717 3.137 1.01486C3.60398 0.777498 4.16436 0.579696 4.81814 0.421454C5.47191 0.250026 6.16572 0.170905 6.89955 0.170905C8.48729 0.170905 9.64808 0.526949 10.3953 1.23904C11.1291 1.95112 11.5027 3.03244 11.5027 4.48299V8.75552H11.5294ZM6.11235 10.7599C6.55265 10.7599 7.00629 10.6808 7.48661 10.5226C7.96694 10.3643 8.39389 10.0742 8.75414 9.6786C8.96762 9.42805 9.12773 9.15113 9.20778 8.83464C9.28783 8.51816 9.3412 8.13574 9.3412 7.68739V7.13354C8.95427 7.04124 8.54066 6.96212 8.1137 6.90937C7.68675 6.85662 7.27313 6.83025 6.85952 6.83025C5.96558 6.83025 5.3118 7.00168 4.87151 7.35772C4.43121 7.71376 4.21773 8.21486 4.21773 8.8742C4.21773 9.49398 4.37784 9.95552 4.7114 10.272C5.03161 10.6017 5.4986 10.7599 6.11235 10.7599ZM16.8263 12.1841C16.5861 12.1841 16.426 12.1445 16.3193 12.0522C16.2125 11.9731 16.1191 11.7885 16.0391 11.5379L12.9036 1.34453C12.8236 1.0808 12.7835 0.909367 12.7835 0.817059C12.7835 0.60607 12.8903 0.487388 13.1038 0.487388H14.4113C14.6648 0.487388 14.8383 0.526949 14.9317 0.619257C15.0384 0.698377 15.1185 0.882993 15.1985 1.13354L17.44 9.86321L19.5214 1.13354C19.5882 0.869806 19.6682 0.698377 19.7749 0.619257C19.8817 0.540136 20.0685 0.487388 20.3086 0.487388H21.376C21.6295 0.487388 21.803 0.526949 21.9097 0.619257C22.0165 0.698377 22.1099 0.882993 22.1632 1.13354L24.2713 9.96871L26.5796 1.13354C26.6596 0.869806 26.753 0.698377 26.8464 0.619257C26.9531 0.540136 27.1266 0.487388 27.3668 0.487388H28.6076C28.8211 0.487388 28.9412 0.592883 28.9412 0.817059C28.9412 0.882993 28.9278 0.948927 28.9145 1.02805C28.9011 1.10717 28.8744 1.21266 28.8211 1.35772L25.6056 11.5511C25.5255 11.8149 25.4321 11.9863 25.3254 12.0654C25.2186 12.1445 25.0452 12.1973 24.8184 12.1973H23.6709C23.4174 12.1973 23.244 12.1577 23.1372 12.0654C23.0305 11.9731 22.9371 11.8017 22.8837 11.5379L20.8156 3.03244L18.7609 11.5248C18.6942 11.7885 18.6142 11.9599 18.5074 12.0522C18.4007 12.1445 18.2139 12.1841 17.9737 12.1841H16.8263ZM33.9712 12.5401C33.2774 12.5401 32.5836 12.461 31.9165 12.3028C31.2494 12.1445 30.729 11.9731 30.3821 11.7753C30.1687 11.6566 30.0219 11.5248 29.9685 11.4061C29.9152 11.2874 29.8885 11.1555 29.8885 11.0368V10.3643C29.8885 10.0874 29.9952 9.95552 30.1953 9.95552C30.2754 9.95552 30.3555 9.96871 30.4355 9.99508C30.5156 10.0215 30.6356 10.0742 30.7691 10.127C31.2227 10.3248 31.7164 10.483 32.2367 10.5885C32.7704 10.694 33.2908 10.7467 33.8245 10.7467C34.665 10.7467 35.3188 10.6017 35.7725 10.3116C36.2261 10.0215 36.4663 9.59948 36.4663 9.05882C36.4663 8.68959 36.3462 8.38629 36.106 8.13574C35.8659 7.88519 35.4122 7.66102 34.7584 7.45003L32.8238 6.85662C31.8498 6.55332 31.1293 6.10497 30.689 5.51157C30.2487 4.93135 30.0219 4.28519 30.0219 3.59948C30.0219 3.04563 30.142 2.55772 30.3821 2.13574C30.6223 1.71376 30.9425 1.34453 31.3428 1.05442C31.7431 0.751125 32.1967 0.526949 32.7304 0.368707C33.2641 0.210465 33.8245 0.144531 34.4115 0.144531C34.7051 0.144531 35.0119 0.157718 35.3055 0.197279C35.6124 0.236839 35.8925 0.289586 36.1727 0.342333C36.4396 0.408268 36.6931 0.474202 36.9332 0.553323C37.1734 0.632443 37.3602 0.711564 37.4936 0.790685C37.6804 0.89618 37.8138 1.00167 37.8939 1.12036C37.9739 1.22585 38.014 1.37091 38.014 1.55552V2.1753C38.014 2.45222 37.9072 2.59728 37.7071 2.59728C37.6004 2.59728 37.4269 2.54453 37.2001 2.43904C36.4396 2.09618 35.5857 1.92475 34.6384 1.92475C33.8778 1.92475 33.2774 2.04343 32.8638 2.29398C32.4502 2.54453 32.2367 2.92695 32.2367 3.46761C32.2367 3.83684 32.3702 4.15332 32.637 4.40387C32.9038 4.65442 33.3975 4.90497 34.1047 5.12915L35.9993 5.72255C36.9599 6.02585 37.6537 6.44783 38.0673 6.98849C38.481 7.52915 38.6811 8.14893 38.6811 8.83464C38.6811 9.40168 38.561 9.91596 38.3342 10.3643C38.094 10.8127 37.7738 11.2083 37.3602 11.5248C36.9466 11.8544 36.4529 12.0918 35.8792 12.2632C35.2788 12.4478 34.6517 12.5401 33.9712 12.5401Z" fill="#FCFCFC"/>
    <path fill-rule="evenodd" clip-rule="evenodd" d="M36.4954 18.9492C32.1058 22.1536 25.7281 23.8547 20.2444 23.8547C12.5592 23.8547 5.6345 21.0459 0.404285 16.3778C-0.00932851 16.0086 0.364258 15.5075 0.857926 15.7976C6.5151 19.0415 13.4932 21.0064 20.7114 21.0064C25.5814 21.0064 30.9317 20.0042 35.855 17.947C36.5888 17.6174 37.2159 18.4218 36.4954 18.9492Z" fill="#FCFCFC"/>
    <path fill-rule="evenodd" clip-rule="evenodd" d="M38.3192 16.8916C37.7588 16.1796 34.61 16.5488 33.1823 16.7202C32.7554 16.773 32.6887 16.4037 33.0756 16.1268C35.584 14.3861 39.7068 14.8872 40.1871 15.4675C40.6674 16.0609 40.0537 20.1356 37.7054 22.0872C37.3452 22.3905 36.9983 22.2323 37.1584 21.8367C37.6921 20.5312 38.8795 17.5905 38.3192 16.8916Z" fill="#FCFCFC"/>
  </g>
  <defs>
    <clipPath id="clip0_8821_113354">
      <rect width="40.5608" height="24" fill="white"/>
    </clipPath>
  </defs>
</svg>
