<svg width="98" height="24" viewBox="0 0 98 24" fill="none" xmlns="http://www.w3.org/2000/svg">
<path d="M49.8441 12.3848C49.8172 11.6868 49.6919 10.962 49.4056 10.3266C48.0633 7.36471 43.7591 7.27522 41.9784 9.84343C40.6988 7.74949 37.54 7.42735 35.7145 8.99332L35.2492 9.51233V8.41167H31.7414V20.9932H35.2492V12.8591C35.2492 12.7159 35.3834 12.2953 35.446 12.1521C36.0187 10.8099 38.1306 10.7383 38.7838 12.0268C38.8733 12.1969 39.0254 12.6353 39.0254 12.8233V20.9932H42.5332V13.0917C42.5511 11.6242 43.8397 10.7025 45.2356 11.2662C45.7278 11.4631 46.3005 12.1611 46.3005 12.698V20.9484C46.3005 20.9484 46.3452 21.0021 46.3542 21.0021H49.7904C49.8172 21.0021 49.853 20.9216 49.8441 20.8858C49.7456 18.076 49.9604 15.1946 49.8441 12.3937V12.3848Z" fill="#FCFCFC"/>
<path d="M75.7946 8.69802C75.3024 9.01122 74.9355 9.40495 74.5597 9.84343C73.5485 8.00899 70.9177 7.55262 69.119 8.46537C68.609 8.72487 68.2242 9.08281 67.8483 9.51233V8.41167H64.3406V20.9932H67.8483V13.2886C67.6783 10.5235 71.6246 10.2998 71.6604 13.0917V20.9932H75.1682V12.8591C75.1682 12.7338 75.2934 12.3311 75.3471 12.1969C75.9109 10.8099 78.0317 10.7114 78.7117 12.0268C78.7923 12.179 78.9534 12.6353 78.9534 12.7875V20.9932H82.4612V12.0537C82.3717 8.65328 78.6312 6.91728 75.8214 8.69802H75.7946Z" fill="#FCFCFC"/>
<path d="M51.2221 11.7584C48.9761 16.68 52.815 22.1654 58.3004 21.2795C60.618 20.9037 62.6135 19.2035 63.2041 16.9306H59.6784C59.3473 17.4764 58.9715 17.9597 58.3719 18.2281C56.5554 19.0156 54.5957 17.8612 54.2557 15.9731H63.3562C63.392 15.9552 63.392 15.9284 63.401 15.8926C63.5799 15.1588 63.5262 13.9955 63.392 13.2438C62.3271 7.141 53.8082 6.09403 51.2132 11.7763L51.2221 11.7584ZM54.2557 13.3691C54.5957 11.83 55.7321 10.7741 57.3787 10.9083C58.6225 11.0067 59.8395 12.0805 59.8305 13.3691H54.2557Z" fill="#FCFCFC"/>
<path d="M96.7429 8.58169C95.9823 5.19023 93.7183 2.4878 89.9778 2.63098C83.4365 2.87259 82.4254 11.4273 83.9287 16.2953C84.9757 19.6867 87.6602 21.888 91.3559 21.2885C96.895 20.3847 97.7361 13.0291 96.7339 8.59064L96.7429 8.58169ZM87.1233 11.7942C87.1233 11.3289 87.1501 10.9083 87.1859 10.5593C87.3291 8.99332 87.9376 6.40722 89.8526 6.19246C90.819 6.08508 91.5259 6.41617 92.0449 7.00677C92.2239 7.21258 92.3223 7.31996 92.385 7.56157C92.4118 7.66001 92.4208 7.83897 92.4118 7.94636C92.385 8.19691 92.2686 8.37588 92.0449 8.72487L89.6736 12.3669C89.0741 13.2796 88.7788 13.7449 88.2508 13.7807C88.0271 13.7986 87.7139 13.7002 87.5349 13.566C87.1143 13.2438 87.1233 12.7696 87.1322 11.8121L87.1233 11.7942ZM93.3246 12.1611C93.3156 12.9843 93.244 13.7271 93.1545 14.2729C92.9129 15.7405 92.1971 17.7002 90.4432 17.8254C89.5394 17.8881 88.8772 17.548 88.385 16.9753C88.2061 16.7695 88.1166 16.6621 88.0539 16.4205C88.0271 16.3221 88.0181 16.1431 88.0271 16.0447C88.0539 15.7941 88.1703 15.6241 88.394 15.2751L90.7922 11.5973C91.3827 10.6935 91.6781 10.2372 92.206 10.2103C92.4297 10.1924 92.7429 10.2908 92.9219 10.4251C93.3425 10.7472 93.3335 11.2215 93.3246 12.1611Z" fill="#FCFCFC"/>
<path d="M11.9922 8.61749C10.1219 8.61749 8.60964 10.1298 8.60964 12C8.60964 13.8702 10.1219 15.3825 11.9922 15.3825C13.8624 15.3825 15.3747 13.8702 15.3747 12C15.3747 10.1298 13.8624 8.61749 11.9922 8.61749Z" fill="#FCFCFC"/>
<path d="M12.0101 2.00459C12.5559 1.99564 13.0033 1.54822 12.9944 0.984466C12.9854 0.420714 12.538 -0.00881115 11.9743 0.000137291C11.4105 0.00908574 10.981 0.456508 10.9899 1.02026C10.9989 1.58401 11.4463 2.01354 12.0101 2.00459Z" fill="#FCFCFC"/>
<path d="M11.9743 21.9954C11.4105 22.0044 10.981 22.4518 10.9899 23.0155C10.9989 23.5793 11.4463 24.0088 12.0101 23.9999C12.5559 23.9909 13.0033 23.5435 12.9944 22.9797C12.9854 22.416 12.538 21.9865 11.9743 21.9954Z" fill="#FCFCFC"/>
<path d="M4.94078 4.92178C5.31662 4.52805 5.31662 3.89271 4.91394 3.49898C4.51126 3.10525 3.88487 3.12314 3.49113 3.52582C3.0974 3.9285 3.1153 4.55489 3.51798 4.94863C3.92066 5.34236 4.54705 5.32446 4.94078 4.92178Z" fill="#FCFCFC"/>
<path d="M19.0525 19.0782C18.6587 19.4809 18.6766 20.1073 19.0793 20.501C19.482 20.8948 20.1084 20.8769 20.5021 20.4742C20.878 20.0804 20.878 19.4451 20.4753 19.0514C20.0726 18.6576 19.4462 18.6755 19.0525 19.0782Z" fill="#FCFCFC"/>
<path d="M19.0704 4.94863C19.4641 5.32446 20.0994 5.32446 20.4932 4.92178C20.8869 4.5191 20.869 3.89271 20.4663 3.49898C20.0637 3.10525 19.4373 3.12314 19.0435 3.52582C18.6498 3.9285 18.6677 4.55489 19.0704 4.94863Z" fill="#FCFCFC"/>
<path d="M4.91394 19.0514C4.51126 18.6576 3.88487 18.6755 3.49113 19.0782C3.0974 19.4809 3.1153 20.1073 3.51798 20.501C3.91171 20.8769 4.54705 20.8769 4.94078 20.4742C5.33451 20.0715 5.31662 19.4451 4.91394 19.0514Z" fill="#FCFCFC"/>
<path d="M22.9361 10.9978C22.3724 11.0336 21.9607 11.4989 21.9876 12.0537C22.0144 12.5995 22.4887 13.0291 23.0435 13.0022C23.6072 12.9664 24.0189 12.5011 23.992 11.9463C23.9562 11.3826 23.4909 10.9709 22.9361 10.9978Z" fill="#FCFCFC"/>
<path d="M1.05716 13.0022C1.62091 12.9664 2.03254 12.5011 2.00569 11.9463C1.9699 11.3826 1.50458 10.9709 0.949776 10.9978C0.386024 11.0336 -0.0256043 11.4989 0.00124103 12.0537C0.0280864 12.5995 0.502354 13.0291 1.05716 13.0022Z" fill="#FCFCFC"/>
<path d="M10.4441 6.2372C10.5067 6.33564 10.5872 6.42512 10.6678 6.50566C11.2584 7.07836 12.1801 7.15889 12.8602 6.70252C13.3076 6.39827 13.585 5.89716 13.6208 5.34236C13.6476 4.97547 13.7282 4.46541 14.1308 4.18801C14.5425 3.9285 15.0436 4.05378 15.3926 4.17011C15.9205 4.35803 16.4843 4.29539 16.9406 4.00009C17.3344 3.74954 17.6028 3.3558 17.7013 2.89943C17.7997 2.44306 17.7192 1.97774 17.4597 1.58401L17.3881 1.47663C17.3254 1.3782 17.2449 1.28871 17.1644 1.20818C16.5738 0.635477 15.6521 0.554941 14.972 1.01131C14.5246 1.31556 14.2472 1.81667 14.2114 2.37147C14.1845 2.73836 14.104 3.24842 13.7013 3.52582C13.2897 3.78533 12.7886 3.66005 12.4396 3.54372C11.9116 3.3558 11.3479 3.41844 10.8915 3.71374C10.0861 4.23275 9.85348 5.31551 10.3725 6.12087L10.4441 6.22825V6.2372Z" fill="#FCFCFC"/>
<path d="M6.59624 22.5234C6.65888 22.6218 6.73942 22.7113 6.81995 22.7918C7.41055 23.3645 8.33224 23.4451 9.01232 22.9887C9.45975 22.6844 9.73715 22.1833 9.77294 21.6285C9.79979 21.2616 9.88032 20.7516 10.283 20.4742C10.6946 20.2147 11.1957 20.34 11.5447 20.4563C12.0727 20.6442 12.6364 20.5816 13.0928 20.2863C13.4865 20.0357 13.755 19.642 13.8534 19.1856C13.9519 18.7292 13.8713 18.2639 13.6118 17.8702L13.5402 17.7628C13.4776 17.6644 13.3971 17.5749 13.3165 17.4943C12.7259 16.9216 11.8042 16.8411 11.1242 17.2975C10.6767 17.6017 10.3993 18.1028 10.3635 18.6576C10.3367 19.0245 10.2562 19.5346 9.85348 19.812C9.44185 20.0715 8.94074 19.9462 8.59175 19.8299C8.06379 19.642 7.50004 19.7046 7.04367 19.9999C6.23831 20.5189 6.00565 21.6017 6.52466 22.407L6.59624 22.5144V22.5234Z" fill="#FCFCFC"/>
<path d="M14.963 6.81885C14.9451 6.93518 14.9272 7.05151 14.9362 7.16784C14.9451 7.9911 15.5447 8.69802 16.359 8.85015C16.8959 8.94858 17.4418 8.79646 17.8623 8.42062C18.1397 8.17902 18.5603 7.87477 19.0346 7.96425C19.5089 8.07163 19.7773 8.51906 19.9384 8.8412C20.18 9.34231 20.6274 9.70025 21.1554 9.81658C21.6117 9.91501 22.0771 9.82553 22.4708 9.57497C22.8645 9.32442 23.133 8.93068 23.2314 8.47431L23.2582 8.34904C23.2761 8.23271 23.294 8.11638 23.2851 8.00005C23.2761 7.17679 22.6766 6.46986 21.8623 6.31774C21.3254 6.21931 20.7795 6.37143 20.359 6.74726C20.0815 6.98887 19.661 7.29312 19.1867 7.20363C18.7124 7.09625 18.444 6.64883 18.2829 6.32669C18.0413 5.82557 17.5939 5.46764 17.0659 5.35131C16.1263 5.15444 15.1957 5.75399 14.9988 6.69357L14.972 6.81885H14.963Z" fill="#FCFCFC"/>
<path d="M0.743962 15.642C0.726065 15.7583 0.708168 15.8747 0.717117 15.991C0.726065 16.8143 1.32561 17.5212 2.13992 17.6733C2.67683 17.7717 3.22268 17.6196 3.64326 17.2438C3.92066 17.0022 4.34124 16.6979 4.8155 16.7874C5.28977 16.8948 5.55822 17.3422 5.7193 17.6644C5.9609 18.1655 6.40833 18.5234 6.93629 18.6397C7.39266 18.7382 7.85798 18.6487 8.25171 18.3981C8.64544 18.1476 8.91389 17.7539 9.01232 17.2975L9.03917 17.1722C9.05707 17.0559 9.07496 16.9395 9.06602 16.8232C9.05707 16 8.45752 15.293 7.64321 15.1409C7.10631 15.0425 6.56045 15.1946 6.13987 15.5704C5.86247 15.812 5.44189 16.1163 4.96763 16.0268C4.49336 15.9194 4.22491 15.472 4.06383 15.1499C3.82223 14.6487 3.3748 14.2908 2.84685 14.1745C1.90726 13.9776 0.976621 14.5772 0.779756 15.5167L0.75291 15.642H0.743962Z" fill="#FCFCFC"/>
<path d="M17.755 10.434C17.6565 10.4967 17.567 10.5772 17.4865 10.6577C16.9138 11.2483 16.8333 12.17 17.2986 12.8501C17.6028 13.2975 18.1039 13.5749 18.6587 13.6107C19.0256 13.6376 19.5357 13.7181 19.8131 14.1208C20.0726 14.5324 19.9473 15.0335 19.831 15.3825C19.6431 15.9105 19.7057 16.4742 20.001 16.9306C20.2516 17.3243 20.6453 17.5928 21.1017 17.6912C21.558 17.7896 22.0234 17.7002 22.4171 17.4496L22.5245 17.378C22.6229 17.3154 22.7124 17.2348 22.7929 17.1543C23.3656 16.5637 23.4462 15.642 22.9808 14.9619C22.6766 14.5145 22.1755 14.2371 21.6207 14.2013C21.2538 14.1745 20.7437 14.0939 20.4663 13.6913C20.2068 13.2796 20.3321 12.7785 20.4484 12.4295C20.6364 11.9016 20.5737 11.3378 20.2784 10.8814C19.7594 10.0761 18.6766 9.84343 17.8713 10.3624L17.7639 10.434H17.755Z" fill="#FCFCFC"/>
<path d="M1.46879 6.62199C1.37035 6.68463 1.28087 6.76516 1.20033 6.8457C0.627632 7.43629 0.547096 8.35798 1.01242 9.03807C1.31666 9.48549 1.81778 9.76289 2.37258 9.79868C2.73946 9.82553 3.24953 9.90606 3.52693 10.3087C3.78643 10.7204 3.66115 11.2215 3.54482 11.5705C3.35691 12.0984 3.41955 12.6622 3.71484 13.1186C3.9654 13.5123 4.35913 13.7807 4.8155 13.8792C5.27187 13.9776 5.73719 13.8881 6.13093 13.6376L6.23831 13.566C6.33674 13.5033 6.42622 13.4228 6.50676 13.3423C7.07946 12.7517 7.16 11.83 6.69468 11.1499C6.39043 10.7025 5.88932 10.4251 5.33451 10.3893C4.96763 10.3624 4.45757 10.2819 4.18016 9.87922C3.92066 9.46759 4.04594 8.96648 4.16227 8.61749C4.35018 8.08953 4.28755 7.52578 3.99225 7.06941C3.47324 6.26405 2.39048 6.03139 1.58512 6.5504L1.47773 6.62199H1.46879Z" fill="#FCFCFC"/>
<path d="M17.1733 14.9709C17.057 14.953 16.9406 14.9351 16.8243 14.944C16.0011 14.953 15.2941 15.5525 15.142 16.3668C15.0436 16.9037 15.1957 17.4496 15.5715 17.8702C15.8131 18.1476 16.1174 18.5682 16.0279 19.0424C15.9205 19.5167 15.4731 19.7851 15.151 19.9462C14.6498 20.1878 14.2919 20.6353 14.1756 21.1632C14.0771 21.6196 14.1666 22.0849 14.4172 22.4786C14.6677 22.8724 15.0615 23.1408 15.5178 23.2392L15.6431 23.2661C15.7595 23.284 15.8758 23.3019 15.9921 23.2929C16.8154 23.284 17.5223 22.6844 17.6744 21.8701C17.7729 21.3332 17.6207 20.7874 17.2449 20.3668C17.0033 20.0894 16.699 19.6688 16.7885 19.1945C16.8959 18.7203 17.3433 18.4518 17.6655 18.2908C18.1666 18.0491 18.5245 17.6017 18.6409 17.0738C18.8377 16.1342 18.2382 15.2035 17.2986 15.0067L17.1733 14.9798V14.9709Z" fill="#FCFCFC"/>
<path d="M8.35014 0.751807C8.23381 0.73391 8.11748 0.716013 8.00115 0.724961C7.17789 0.73391 6.47097 1.33346 6.31884 2.14776C6.22041 2.68467 6.37253 3.23053 6.74837 3.6511C6.98998 3.9285 7.29422 4.34908 7.20474 4.82335C7.09736 5.29762 6.64993 5.56607 6.32779 5.72714C5.82668 5.96875 5.46874 6.41617 5.35241 6.94413C5.25398 7.4005 5.34346 7.86582 5.59402 8.25955C5.84457 8.65328 6.23831 8.92174 6.69468 9.02017L6.81995 9.04701C6.93629 9.06491 7.05261 9.08281 7.16894 9.07386C7.9922 9.06491 8.69913 8.46537 8.85125 7.65106C8.94969 7.11415 8.79756 6.56829 8.42173 6.14772C8.18012 5.87032 7.87587 5.44974 7.96536 4.97547C8.07274 4.5012 8.52016 4.23275 8.8423 4.07168C9.34342 3.83007 9.70135 3.38265 9.81768 2.85469C10.0145 1.9151 9.415 0.984466 8.47542 0.7876L8.35014 0.760755V0.751807Z" fill="#FCFCFC"/>
</svg>
