<svg xmlns="http://www.w3.org/2000/svg" width="109" height="21" viewBox="0 0 109 21" fill="none">
  <g clip-path="url(#clip0_8821_113361)">
    <path d="M66.3702 3.90968V17.4541H70.1925V3.90968H66.3702ZM36.2969 3.88672V17.4427H40.1536V6.91701L43.1609 6.92848C44.1481 6.92848 44.8368 7.16953 45.3074 7.67458C45.9157 8.31737 46.1568 9.3619 46.1568 11.2558V17.4427H49.8987V9.95877C49.8987 4.60986 46.4897 3.88672 43.1609 3.88672H36.2969ZM72.5341 3.90968V17.4541H78.7324C82.0382 17.4541 83.1171 16.9032 84.2764 15.675C85.1029 14.8141 85.6309 12.9087 85.6309 10.8311C85.6309 8.92572 85.1832 7.22692 84.3912 6.17091C82.9909 4.27698 80.9477 3.90968 77.8945 3.90968H72.5341ZM76.3219 6.84814H77.9633C80.3508 6.84814 81.8889 7.91562 81.8889 10.6934C81.8889 13.4712 80.3508 14.5501 77.9633 14.5501H76.3219V6.84814ZM60.8606 3.90968L57.6696 14.6419L54.6163 3.90968H50.4841L54.8459 17.4541H60.3555L64.7632 3.90968H60.8606ZM87.4215 17.4541H91.2438V3.90968H87.4215V17.4541ZM98.1423 3.90968L92.8049 17.4427H96.5698L97.4192 15.0437H103.732L104.536 17.4312H108.634L103.25 3.90968H98.1423ZM100.622 6.37752L102.94 12.7136H98.2341L100.622 6.37752Z" fill="#FCFCFC"/>
    <path d="M11.6276 6.15924V4.29974C11.8112 4.28826 11.9949 4.27679 12.1785 4.27679C17.2749 4.11609 20.6151 8.66152 20.6151 8.66152C20.6151 8.66152 17.0109 13.6661 13.1427 13.6661C12.6262 13.6661 12.1211 13.5857 11.6391 13.425V7.77769C13.6248 8.01873 14.0266 8.89109 15.2088 10.8768L17.8603 8.65004C17.8603 8.65004 15.9205 6.11332 12.6606 6.11332C12.3163 6.10185 11.9719 6.1248 11.6276 6.15924ZM11.6276 0.00683594V2.7846L12.1785 2.75016C19.2607 2.50912 23.8865 8.55822 23.8865 8.55822C23.8865 8.55822 18.5835 15.0091 13.0624 15.0091C12.5803 15.0091 12.1097 14.9631 11.6391 14.8828V16.6045C12.0293 16.6505 12.4311 16.6849 12.8213 16.6849C17.9636 16.6849 21.6826 14.0564 25.2868 10.9572C25.8837 11.4393 28.3286 12.5986 28.8336 13.1036C25.4131 15.9732 17.4356 18.2804 12.9132 18.2804C12.477 18.2804 12.0638 18.2574 11.6505 18.2115V20.6335H31.1867V0.00683594L11.6276 0.00683594ZM11.6276 13.425V14.8943C6.87554 14.0449 5.55553 9.0977 5.55553 9.0977C5.55553 9.0977 7.83972 6.57246 11.6276 6.15924V7.76621H11.6161C9.63034 7.52516 8.06929 9.38466 8.06929 9.38466C8.06929 9.38466 8.95312 12.5183 11.6276 13.425ZM3.19098 8.89109C3.19098 8.89109 6.00318 4.73592 11.6391 4.29974V2.7846C5.39483 3.28965 0 8.56969 0 8.56969C0 8.56969 3.05324 17.408 11.6276 18.2115V16.6045C5.33744 15.824 3.19098 8.89109 3.19098 8.89109Z" fill="#FCFCFC"/>
  </g>
  <defs>
    <clipPath id="clip0_8821_113361">
      <rect width="108.631" height="20.6399" fill="white"/>
    </clipPath>
  </defs>
</svg>
