<svg width="195" height="75" viewBox="0 0 195 75" fill="none" xmlns="http://www.w3.org/2000/svg">
<path d="M44.9802 0.200195H16.5703V10.1702H38.0442L56.3442 58.8102H68.1658L44.9802 0.200195Z" fill="#8F74E0"/>
<path d="M29.59 48.8403H0.5V58.8103H29.59V48.8403Z" fill="#8F74E0"/>
<path fill-rule="evenodd" clip-rule="evenodd" d="M106.781 57.3271L106.748 57.2946C106.538 62.7046 104.862 66.8535 101.651 69.6754C99.5756 71.5114 96.5827 72.8283 93.2745 73.5576C89.9605 74.288 86.2923 74.4374 82.8361 73.9058C75.9469 72.8462 69.7197 69.0281 69.1124 61.5207L69.0687 60.9803H78.6597L78.725 61.4043C79.2382 64.7375 82.2366 66.4244 85.7803 66.7766C87.5364 66.9511 89.3766 66.7868 91.0038 66.3457C92.6378 65.9028 94.0152 65.1926 94.8845 64.3096L94.8981 64.2958L94.9127 64.2831C95.4723 63.7965 95.9123 63.0704 96.2494 62.1504C96.5856 61.2328 96.8086 60.152 96.9526 58.9907C97.2411 56.6652 97.2058 54.0891 97.1761 51.9777L97.176 51.9732L97.1725 51.7158C94.7704 55.4822 91.6364 57.5831 88.3259 58.402C84.6598 59.3088 80.8264 58.6317 77.5991 56.9885C73.8994 55.2095 71.4248 51.9689 69.8863 48.249C68.3481 44.5298 67.7308 40.2996 67.7608 36.4697C67.7213 29.0048 71.2243 20.2031 78.2871 16.8883C81.4568 15.376 85.3623 14.7771 88.9867 15.6312C92.1761 16.3827 95.1358 18.258 97.1608 21.5917V16.3104H106.781V57.3271ZM94.6816 46.608C92.9795 49.2165 90.4738 50.8999 87.1583 50.8504L87.1487 50.8504C83.8825 50.8645 81.4259 49.1844 79.7641 46.5957C78.0929 43.9925 77.2408 40.4841 77.2408 36.9466C77.2408 33.4091 78.0929 29.9014 79.764 27.2995C81.4258 24.7121 83.8822 23.0339 87.1483 23.0504L87.1567 23.0504L87.1652 23.0502C90.5349 22.9535 93.0495 24.6029 94.7414 27.1812C96.4443 29.7765 97.3024 33.306 97.2896 36.8736C97.2767 40.4407 96.3932 43.9852 94.6816 46.608Z" fill="#8F74E0"/>
<path d="M122.38 21.817V16.29H113.24V58.84H122.83V32.77C122.83 31.4259 123.051 30.1528 123.481 28.9482C123.912 27.743 124.51 26.7201 125.264 25.8723L125.272 25.8624C126.034 24.9601 126.941 24.2776 128.028 23.8091L128.036 23.8056L128.044 23.8018C129.13 23.2869 130.356 23.02 131.75 23.02C134.224 23.02 135.948 23.6948 137.019 24.9541L137.027 24.9623C138.12 26.1911 138.761 28.2555 138.86 31.2684V58.84H148.45V29C148.45 24.4884 147.192 21.012 144.594 18.678C142.019 16.364 138.517 15.23 134.16 15.23C131.517 15.23 129.089 15.8709 126.898 17.1784C125.084 18.2196 123.584 20.0156 122.38 21.817Z" fill="#8F74E0"/>
<path fill-rule="evenodd" clip-rule="evenodd" d="M189.43 21.9877C186.048 17.7695 180.97 15.0322 174.236 15.2401C167.503 15.0322 162.425 17.7695 159.043 21.9877C155.669 26.1945 153.999 31.8497 154 37.4791C154.001 43.1085 155.672 48.7631 159.045 52.9686C162.428 57.1855 167.505 59.9209 174.236 59.7106C180.967 59.9209 186.044 57.1855 189.427 52.9686C192.801 48.7631 194.472 43.1085 194.473 37.4791C194.473 31.8497 192.803 26.1945 189.43 21.9877ZM182.196 47.4833C180.409 50.1702 177.762 51.9245 174.238 51.9103H174.234C170.71 51.9245 168.064 50.1702 166.277 47.4833C164.481 44.7816 163.564 41.1431 163.561 37.4762C163.559 33.8093 164.471 30.1718 166.266 27.4716C168.051 24.7867 170.699 23.0337 174.234 23.0503L174.239 23.0503C177.773 23.0337 180.422 24.7867 182.207 27.4716C184.002 30.1718 184.914 33.8093 184.911 37.4762C184.909 41.1431 183.992 44.7816 182.196 47.4833Z" fill="#8F74E0"/>
</svg>
