<svg height="1em" style="flex:none;line-height:1" viewBox="0 0 24 24" width="1em" xmlns="http://www.w3.org/2000/svg"><title>Azure</title><path d="M7.242 1.613A1.11 1.11 0 018.295.857h6.977L8.03 22.316a1.11 1.11 0 01-1.052.755h-5.43a1.11 1.11 0 01-1.053-1.466L7.242 1.613z" fill="url(#lobe-icons-azure-0-_R_0_)"></path><path d="M18.397 15.296H7.4a.51.51 0 00-.347.882l7.066 6.595c.206.192.477.298.758.298h6.226l-2.706-7.775z" fill="#8F74E0"></path><path d="M15.272.857H7.497L0 23.071h7.775l1.596-4.73 5.068 4.73h6.665l-2.707-7.775h-7.998L15.272.857z" fill="url(#lobe-icons-azure-1-_R_0_)"></path><path d="M17.193 1.613a1.11 1.11 0 00-1.052-.756h-7.81.035c.477 0 .9.304 1.052.756l6.748 19.992a1.11 1.11 0 01-1.052 1.466h-.12 7.895a1.11 1.11 0 001.052-1.466L17.193 1.613z" fill="url(#lobe-icons-azure-2-_R_0_)"></path><defs><linearGradient gradientUnits="userSpaceOnUse" id="lobe-icons-azure-0-_R_0_" x1="8.247" x2="1.002" y1="1.626" y2="23.03"><stop stop-color="#8F74E0"></stop><stop offset="1" stop-color="#8F74E0"></stop></linearGradient><linearGradient gradientUnits="userSpaceOnUse" id="lobe-icons-azure-1-_R_0_" x1="14.042" x2="12.324" y1="15.302" y2="15.888"><stop stop-opacity=".3"></stop><stop offset=".071" stop-opacity=".2"></stop><stop offset=".321" stop-opacity=".1"></stop><stop offset=".623" stop-opacity=".05"></stop><stop offset="1" stop-opacity="0"></stop></linearGradient><linearGradient gradientUnits="userSpaceOnUse" id="lobe-icons-azure-2-_R_0_" x1="12.841" x2="20.793" y1="1.626" y2="22.814"><stop stop-color="#8F74E0"></stop><stop offset="1" stop-color="#8F74E0"></stop></linearGradient></defs></svg>