<svg fill="#8F74E0" fill-rule="evenodd" height="1em" style="flex:none;line-height:1" viewBox="0 0 24 24" width="1em" xmlns="http://www.w3.org/2000/svg"><title>CrewAI</title><path clip-rule="evenodd" d="M18.213 14.057l.054-.071.132-.176c.158-.212.311-.427.462-.645a.748.748 0 011.256.031 1.438 1.438 0 01.158 1.103l-.136.522-.04.152a7.935 7.935 0 01-2.464 3.863c-.572.49-1.138.938-1.774 1.306-.427.247-.857.495-1.303.706a9.628 9.628 0 01-3.155.974c-.748.097-1.503.136-2.257.116a6.531 6.531 0 01-3.837-1.423 5.967 5.967 0 01-2.071-3.494 8.859 8.859 0 01-.085-3.08 13.56 13.56 0 011.54-4.568 19.7 19.7 0 012.212-3.348 13.382 13.382 0 013.088-2.759 7.9 7.9 0 012.832-1.141c1.307-.245 2.434.207 3.481.933a6.221 6.221 0 011.806 1.893c.423.766.536 1.667.314 2.514a12.39 12.39 0 01-.99 2.67l-.223.497c-.321.713-.642 1.426-.97 2.138a.762.762 0 01-.97.466 3.39 3.39 0 01-2.283-2.49c-.095-.83.04-1.669.39-2.426l.02-.054c.232-.594.485-1.18.741-1.764l.03-.065a326.498 326.498 0 01.37-.841l.02-.047a.533.533 0 00-.204-.742 2.348 2.348 0 00-1.2.702l-.036.036-.001.001-.028.028a26.065 26.065 0 00-1.55 1.702 21.56 21.56 0 00-2.618 4.184 7.59 7.59 0 00-.816 2.753 7.042 7.042 0 00.07 2.219 2.056 2.056 0 001.934 1.715c1.801.1 3.59-.363 5.116-1.328.582-.4 1.141-.831 1.675-1.293.481-.456.91-.951 1.31-1.47zm1.198-3.274a2.753 2.753 0 012.47 1.355c.483.806.622 1.772.385 2.68l-.136.522a9.994 9.994 0 01-3.156 5.058c-.605.517-1.283 1.062-2.083 1.524l-.028.017c-.402.232-.884.511-1.398.756-1.19.602-2.475.997-3.798 1.167-.854.111-1.716.155-2.577.132H9.072a8.588 8.588 0 01-5.046-1.87l-.012-.01-.012-.01A8.024 8.024 0 011.22 17.42a10.916 10.916 0 01-.102-3.779A15.622 15.622 0 012.88 8.4a21.758 21.758 0 012.432-3.678 15.44 15.44 0 013.56-3.182A9.958 9.958 0 0112.44.104h.004l.003-.002c2.057-.384 3.743.374 5.024 1.26a8.28 8.28 0 012.395 2.513l.024.04.023.042a5.474 5.474 0 01.508 4.012c-.239.97-.577 1.914-1.01 2.814z"></path></svg>