<svg fill="#8F74E0" fill-rule="evenodd" height="1em" style="flex:none;line-height:1" viewBox="0 0 24 24" width="1em" xmlns="http://www.w3.org/2000/svg"><title>LM Studio</title><path d="M2.84 2a1.273 1.273 0 100 2.547h14.107a1.273 1.273 0 100-2.547H2.84zM7.935 5.33a1.273 1.273 0 000 2.548H22.04a1.274 1.274 0 000-2.547H7.935zM3.624 9.935c0-.704.57-1.274 1.274-1.274h14.106a1.274 1.274 0 010 2.547H4.898c-.703 0-1.274-.57-1.274-1.273zM1.273 12.188a1.273 1.273 0 100 2.547H15.38a1.274 1.274 0 000-2.547H1.273zM3.624 16.792c0-.704.57-1.274 1.274-1.274h14.106a1.273 1.273 0 110 2.547H4.898c-.703 0-1.274-.57-1.274-1.273zM13.029 18.849a1.273 1.273 0 100 2.547h9.698a1.273 1.273 0 100-2.547h-9.698z" fill-opacity=".3"></path><path d="M2.84 2a1.273 1.273 0 100 2.547h10.287a1.274 1.274 0 000-2.547H2.84zM7.935 5.33a1.273 1.273 0 000 2.548H18.22a1.274 1.274 0 000-2.547H7.935zM3.624 9.935c0-.704.57-1.274 1.274-1.274h10.286a1.273 1.273 0 010 2.547H4.898c-.703 0-1.274-.57-1.274-1.273zM1.273 12.188a1.273 1.273 0 100 2.547H11.56a1.274 1.274 0 000-2.547H1.273zM3.624 16.792c0-.704.57-1.274 1.274-1.274h10.286a1.273 1.273 0 110 2.547H4.898c-.703 0-1.274-.57-1.274-1.273zM13.029 18.849a1.273 1.273 0 100 2.547h5.78a1.273 1.273 0 100-2.547h-5.78z"></path></svg>