<svg width="344" height="341" viewBox="0 0 344 341" xmlns="http://www.w3.org/2000/svg">
<style>
        path { fill: #8F74E0; }
        @media (prefers-color-scheme: dark) {
            path { fill: #8F74E0; }
        }
</style>
<g clip-path="url(#clip0_1813_6860)">
<path d="M342.898 147.765C342.266 146.617 341.606 145.469 340.832 144.206C335.667 135.653 329.526 127.732 322.582 120.671L322.467 120.556C321.635 119.724 320.947 119.035 320.315 118.404C315.38 113.611 309.985 109.162 304.247 105.201C304.074 105.087 303.902 104.972 303.759 104.857C303.328 104.57 302.927 104.283 302.496 103.996C302.353 103.881 302.181 103.795 302.037 103.68C302.037 103.537 302.037 103.393 302.037 103.25C302.037 103.049 302.037 102.848 302.037 102.647C302.037 102.446 302.037 102.245 302.037 102.044C301.922 95.2423 301.234 88.4402 300.057 81.8678L299.914 81.0642C299.77 80.2892 299.627 79.543 299.483 78.8255V78.7107C297.36 68.4071 294.003 58.4193 289.44 48.9767C288.924 47.8574 288.321 46.6807 287.633 45.3604L286.944 44.0402L285.538 43.5236C284.275 43.0357 282.984 42.5765 281.722 42.1747C277.073 40.5674 272.281 39.2472 267.547 38.214C262.726 37.152 257.791 36.3771 252.827 35.8892C251.822 35.7744 250.761 35.6883 249.641 35.6022C242.238 35.0569 234.72 35.143 227.289 35.9179C226.858 35.9466 226.399 36.004 225.969 36.0614C225.883 35.9466 225.797 35.8318 225.682 35.7457C221.091 30.3787 216.041 25.3847 210.703 20.9074C209.871 20.2186 209.039 19.5298 208.264 18.8984L208.207 18.841C199.914 12.2398 190.818 6.64316 181.148 2.25195C180.001 1.73534 178.767 1.19002 177.389 0.616007L176.041 0.0419922L174.664 0.529905C173.602 0.903014 172.196 1.39093 170.847 1.93624C161.579 5.52383 152.712 10.1733 144.563 15.77L143.243 16.6884C142.784 17.0041 142.354 17.3198 141.952 17.6355C135.582 22.2277 129.614 27.4512 124.19 33.1339C117.132 31.9285 109.958 31.3258 102.842 31.3258C101.809 31.3258 100.719 31.3258 99.6282 31.3832C89.0113 31.6128 78.4232 33.1913 68.122 36.0614C66.8594 36.4058 65.5395 36.8076 64.1908 37.2381L62.8135 37.6974L62.0675 38.9315C61.4075 40.0221 60.7475 41.1988 60.0302 42.4617C55.1809 51.2441 51.3645 60.6005 48.6673 70.3301C48.3803 71.392 48.1221 72.4252 47.8639 73.4585C45.9987 80.9207 44.7936 88.6125 44.3058 96.3616C38.0791 100.035 32.1107 104.226 26.6301 108.846C25.798 109.535 24.9946 110.224 24.1624 110.942C16.2715 117.916 9.21277 125.895 3.24437 134.62L3.15829 134.735C2.35485 135.883 1.6375 136.973 0.977533 138.035L0.202789 139.269L0.432343 140.733C0.661896 142.168 0.920144 143.488 1.1497 144.78C3.1009 154.739 6.25726 164.497 10.504 173.739L10.5614 173.854C11.0205 174.829 11.4796 175.777 11.9387 176.724L12.5987 178.073C15.7837 184.358 19.5427 190.443 23.732 196.125C21.2643 203.071 19.3705 210.275 18.1367 217.479V217.536C17.9645 218.598 17.7923 219.631 17.6202 220.664C16.0994 230.968 15.8411 241.444 16.8741 251.833C17.0176 253.182 17.1611 254.56 17.3332 255.852L17.5341 257.315L18.6532 258.291C19.7148 259.21 20.7478 260.071 21.7808 260.903L21.9243 261.018C29.9013 267.447 38.653 272.9 48.0073 277.262L48.3517 277.435C48.7247 277.607 49.069 277.779 49.4707 277.951L50.9628 278.611C57.792 281.596 64.9082 284.007 72.1678 285.758C74.779 292.818 78.0215 299.649 81.8091 306.078L82.2108 306.738C82.6412 307.456 83.0716 308.173 83.502 308.891C88.9253 317.616 95.3815 325.68 102.727 332.856C103.76 333.86 104.764 334.807 105.683 335.64L106.773 336.673H108.265C109.614 336.673 110.991 336.673 112.34 336.673C117.132 336.587 121.981 336.214 126.716 335.582C131.479 334.951 136.299 334.032 141.063 332.827L142.956 332.339C143.989 332.052 144.994 331.794 146.027 331.478C153.143 329.383 160.144 326.656 166.83 323.356C166.973 323.442 167.117 323.528 167.26 323.585C167.375 323.643 167.519 323.729 167.633 323.786C174.032 327.345 180.718 330.387 187.547 332.798C188.064 332.97 188.552 333.143 189.068 333.344L190.617 333.86C200.287 337.017 210.33 338.998 220.517 339.773L222.554 339.916C223.214 339.945 223.903 340.002 224.591 340.031L226.084 340.088L227.231 339.141C228.436 338.165 229.412 337.333 230.33 336.529C237.561 330.215 244.103 323.097 249.756 315.32L250.875 313.741V313.684C251.507 312.823 252.109 311.962 252.683 311.072C254.979 307.599 257.102 304.069 258.996 300.539L259.713 299.161C260.861 296.951 261.98 294.655 263.042 292.273C263.128 292.101 263.214 291.9 263.3 291.728C263.386 291.555 263.443 291.383 263.529 291.211C263.616 291.211 263.673 291.211 263.759 291.182C263.845 291.182 263.902 291.182 263.989 291.154C264.189 291.125 264.419 291.067 264.62 291.039C265.136 290.953 265.624 290.838 266.112 290.752C272.712 289.403 279.225 287.537 285.452 285.212L286.944 284.638C287.46 284.438 287.948 284.237 288.465 284.036C297.934 280.219 306.915 275.282 315.208 269.341L316.872 268.136L319.655 265.983L319.914 264.577C320.057 263.917 320.172 263.256 320.287 262.568L320.631 260.559C322.18 250.571 322.553 240.411 321.75 230.365C321.664 229.217 321.549 228.041 321.463 227.151C321.061 223.362 320.487 219.516 319.713 215.699C319.11 212.714 318.393 209.701 317.589 206.716C317.532 206.515 317.475 206.343 317.417 206.142C317.36 205.941 317.302 205.769 317.245 205.568C317.159 205.224 317.044 204.879 316.958 204.535C317.245 204.19 317.532 203.846 317.819 203.501C317.934 203.358 318.077 203.186 318.192 203.042C318.307 202.899 318.45 202.727 318.565 202.583C322.381 197.79 325.853 192.71 328.924 187.458L329.67 186.166C330.186 185.248 330.703 184.301 331.219 183.354C336.068 174.284 339.856 164.612 342.41 154.595L342.898 152.615C343.041 152.07 343.156 151.524 343.271 150.979L343.672 149.171L342.955 147.879L342.898 147.765ZM290.932 109.535L291.879 110.023L291.965 110.109V110.368L291.879 110.97L291.535 114.013V114.328C290.932 121.475 289.699 128.564 287.862 135.395L287.374 137.174C287.03 138.408 286.628 139.728 286.14 141.221C285.28 143.861 284.333 146.473 283.271 149.027C275.897 142.455 267.776 136.744 259.139 131.979H259.082C258.623 131.692 258.164 131.434 257.733 131.204L256.901 130.774C256.901 130.774 256.758 130.688 256.7 130.659C256.643 130.63 256.585 130.602 256.528 130.573L254.491 129.54L254.692 127.387C254.806 126.182 254.892 125.206 254.95 124.287C255.696 114.73 255.409 105.173 254.118 95.845C257.475 96.4765 260.803 97.2801 264.046 98.1985L264.649 98.3707C266.141 98.8012 267.374 99.203 268.58 99.5761C275.265 101.757 281.836 104.627 288.12 108.072L290.387 109.22L290.932 109.507V109.535ZM257.217 183.612L250.244 190.701L254.95 202.612C258.192 210.992 260.488 219.66 261.779 228.356L261.865 228.959C261.923 229.39 261.98 229.849 262.066 230.337C261.463 230.566 260.89 230.767 260.316 230.939C252.023 233.695 243.357 235.531 234.606 236.421L233.888 236.479C233.401 236.536 232.855 236.593 232.281 236.622L221.205 237.397L218.164 247.04C217.906 247.815 217.619 248.676 217.274 249.71L216.93 250.685C214.147 258.607 210.56 266.213 206.285 273.302L206.084 273.646C205.739 274.249 205.338 274.88 204.878 275.569L203.358 274.966C194.979 271.666 186.945 267.389 179.542 262.309C179.14 262.051 178.795 261.793 178.422 261.534L177.418 260.846L168.896 254.646L160.345 260.243C159.714 260.673 158.996 261.104 158.078 261.678C150.56 266.213 142.612 269.915 134.406 272.699H134.319C133.545 272.986 132.741 273.273 131.967 273.503C131.794 273.216 131.651 272.929 131.479 272.642L131.106 271.924C126.888 264.117 123.53 255.766 121.091 247.069L120.948 246.581C120.833 246.151 120.69 245.605 120.518 244.974L117.906 234.383L110.274 233.436C109.011 233.293 107.749 233.121 106.486 232.948C105.998 232.891 105.511 232.805 105.023 232.748C100.69 232.087 96.3571 231.14 92.1103 229.992C88.0644 228.902 84.0185 227.581 80.1448 226.089L79.5422 225.859C78.8536 225.601 78.1649 225.314 77.4476 225.027C77.5623 224.396 77.7058 223.707 77.878 222.903L78.251 221.239C80.03 213.202 82.6986 205.31 86.1419 197.733C86.3141 197.331 86.6297 196.699 86.888 196.154L86.9453 196.039C87.634 194.576 88.1792 193.112 88.667 191.82L91.2208 185.018L86.1993 179.938L84.9081 178.589C84.2481 177.872 83.6455 177.212 83.0716 176.523C80.1161 173.107 77.3328 169.549 74.779 165.904C72.3974 162.459 70.1879 158.929 68.2654 155.399L67.7776 154.481C67.5194 153.993 67.2611 153.505 67.0029 153.017C67.0029 152.959 66.9455 152.902 66.9168 152.845L67.2037 152.615L69.0402 151.151C75.3816 146.186 82.2969 141.852 89.6139 138.236L91.3643 137.404C92.1677 137.002 92.8851 136.686 93.6024 136.37L102.469 132.438V122.766C102.469 122.508 102.469 122.278 102.469 122.078V121.274C102.412 120.642 102.383 120.097 102.383 119.581V119.265C102.211 110.741 102.928 102.188 104.535 93.8934L104.965 91.7695C105.023 91.4251 105.109 91.0807 105.195 90.7363C106.084 90.7363 107.031 90.765 108.179 90.8224L109.815 90.8798C117.763 91.3103 125.769 92.5444 133.602 94.5535C134.606 94.8118 135.439 95.0414 136.185 95.2423L146.17 98.1985L152.885 89.1291C152.885 89.1291 153.114 88.8421 153.229 88.6698L154.233 87.4644C159.599 80.8632 165.625 74.8361 172.11 69.5839L173.602 68.4071C173.86 68.1775 174.147 67.9766 174.405 67.7757L174.606 67.9479C175.18 68.4358 175.754 68.9524 176.414 69.5552L176.672 69.7848C182.956 75.4962 188.666 81.9252 193.688 88.9569L194.233 89.7031L194.29 89.7605C194.606 90.191 194.922 90.6502 195.237 91.1381L200.775 99.5187L210.589 97.481C211.019 97.3949 211.449 97.3088 211.851 97.194C212.396 97.0792 212.97 96.9644 213.573 96.8496C222.669 95.0701 231.966 94.3239 240.976 94.6396H241.205C241.521 94.6396 241.837 94.6396 242.152 94.6683C242.296 95.4432 242.411 96.3329 242.583 97.3949C243.759 105.89 244.017 114.615 243.329 123.312V123.771L243.3 123.857C243.271 124.488 243.185 125.235 243.099 126.182L242.095 136.342L251.019 140.819C251.019 140.819 251.277 140.963 251.42 141.049L253.601 142.225C260.918 146.244 267.834 151.065 274.175 156.518L275.753 157.925C276.126 158.24 276.471 158.556 276.815 158.872C276.471 159.475 276.069 160.106 275.61 160.881C269.039 171.586 260.316 180.57 259.34 181.574C258.508 182.435 257.819 183.095 257.389 183.526L257.303 183.612H257.217ZM90.6469 119.581V119.667C90.6469 120.384 90.6469 121.188 90.7043 122.106V122.25C90.7043 122.25 90.7043 122.278 90.7043 122.365C90.7043 122.393 90.7043 122.451 90.7043 122.537C90.7043 122.623 90.7043 122.709 90.7043 122.824V124.89L88.8105 125.722C87.9496 126.096 87.0601 126.526 86.0845 126.985L84.3916 127.789C76.7876 131.549 69.5567 136.026 62.8996 141.106C62.0675 138.552 61.2927 135.94 60.6328 133.328L60.518 132.869C60.1737 131.491 59.858 130.085 59.5711 128.679C58.1364 121.791 57.3329 114.701 57.1895 107.584L57.0173 103.307L60.8336 101.556H60.891C67.835 98.2272 75.1233 95.6154 82.6125 93.7212C83.9612 93.3768 85.3385 93.0611 86.7732 92.7741C88.8392 92.3435 90.9052 91.9417 92.9711 91.626C91.1921 100.782 90.4173 110.138 90.6182 119.523L90.6469 119.581ZM248.752 47.226C249.756 47.3121 250.674 47.3695 251.564 47.4843H251.65C256.155 47.9435 260.66 48.6323 265.05 49.6082C269.354 50.5266 273.687 51.7607 277.934 53.1957H278.02C278.221 53.2818 278.393 53.368 278.594 53.4254C278.68 53.6263 278.766 53.8272 278.881 54.0568C282.984 62.5522 286.026 71.5642 287.948 80.8345L288.006 81.179C288.178 82.0687 288.35 82.9584 288.522 83.8481L288.952 86.4312C289.44 89.5309 289.785 92.7167 290.014 95.8737C284.247 92.9463 278.278 90.478 272.224 88.4689C270.875 88.0097 269.44 87.5792 267.747 87.0913L267.288 86.9478H267.202C262.611 85.6276 257.905 84.5656 253.2 83.7907C252.08 79.8874 250.732 75.9554 249.182 72.1095V72.0234C248.608 70.7032 248.035 69.2682 247.317 67.6609C244.132 60.4857 240.258 53.5402 235.782 46.9964C240.115 46.8242 244.448 46.9103 248.752 47.226ZM222.497 48.4027L222.554 48.4601H222.64L224.792 51.6746L224.964 51.9042C229.555 58.3619 233.458 65.2213 236.614 72.3678V72.4539C237.188 73.6594 237.647 74.75 238.049 75.7832L238.279 76.3285C239.139 78.5385 239.972 80.7484 240.689 82.9871C230.904 82.7001 220.976 83.5324 211.249 85.4267C210.56 85.5702 209.871 85.7137 209.183 85.8572C208.867 85.9433 208.523 86.0007 208.178 86.0868L206.084 86.5173L204.907 84.7378C204.305 83.8481 203.759 83.0445 203.186 82.2696V82.2122C197.791 74.6926 191.65 67.747 184.907 61.5764C187.432 60.1987 190.015 58.8785 192.597 57.7018L194.491 56.8694C195.61 56.3815 196.844 55.8649 198.422 55.2335L198.967 55.0326C205.252 52.593 211.794 50.6701 218.451 49.3498L222.554 48.4314L222.497 48.4027ZM148.724 27.0781L148.781 27.0207C149.126 26.7624 149.47 26.5041 149.843 26.2745L151.134 25.3847C158.537 20.3047 166.572 16.0857 175.008 12.8138H175.094C175.295 12.699 175.467 12.6416 175.668 12.5555C175.869 12.6416 176.098 12.7564 176.299 12.8425C184.993 16.8032 193.2 21.7971 200.689 27.7382L200.861 27.8817C201.665 28.5418 202.468 29.1732 203.157 29.7759C206.428 32.5312 209.584 35.4874 212.569 38.6158C206.256 40.0508 200.058 41.9738 194.089 44.3559L193.975 44.4133C192.31 45.0734 190.962 45.6475 189.728 46.1928L187.719 47.0825L187.404 47.226C183.559 49.0054 179.714 51.0145 176.041 53.1957C172.684 50.9571 169.183 48.8332 165.625 46.9103L165.338 46.7381C164.075 46.078 162.727 45.3604 161.12 44.5568L161.005 44.4994C153.659 40.9118 145.912 38.0131 137.964 35.8605C141.378 32.7034 144.965 29.7759 148.724 27.0494V27.0781ZM127.203 49.1489L129.814 45.7623L133.717 46.8816L133.918 46.939C141.522 48.9193 148.925 51.6459 155.926 55.09L156.529 55.377C157.246 55.7501 157.935 56.0945 158.566 56.4102L159.771 57.0703C161.608 58.0462 163.415 59.0794 165.194 60.17L164.735 60.5431C157.447 66.4268 150.704 73.1715 144.764 80.5475L144.047 81.4086C143.817 81.6956 143.616 81.9539 143.416 82.2122L141.522 84.7378L139.398 84.1064C138.423 83.8194 137.476 83.5611 136.443 83.3028C127.835 81.0929 119.025 79.7439 110.302 79.2847H109.7C110.876 76.2424 112.225 73.2576 113.66 70.3301C114.291 69.0385 114.951 67.747 115.64 66.4842L115.783 66.2259C119.054 60.2274 122.899 54.4873 127.175 49.1489H127.203ZM59.1694 76.2424C59.3989 75.3814 59.6285 74.3769 59.9154 73.4011C62.3544 64.5612 65.8264 56.0658 70.2453 48.0583L70.5897 47.4556C70.8192 47.3982 71.0488 47.3408 71.2496 47.2547C80.6039 44.6429 90.2165 43.2079 99.8577 43.007H100.059C100.977 42.9783 101.952 42.9496 102.813 42.9496C107.404 42.9496 111.995 43.2366 116.586 43.7819C112.426 49.1776 108.696 54.9465 105.453 60.9162V60.9736C104.678 62.3513 103.961 63.7576 103.301 65.1065C101.006 69.6987 98.9969 74.463 97.3327 79.256C97.3327 79.256 97.3327 79.2847 97.3327 79.3134C96.9309 79.3421 96.5292 79.3995 96.1275 79.4569C92.2251 79.9161 88.3514 80.5475 84.5063 81.3799C82.9282 81.6956 81.3787 82.0687 79.8866 82.4418C71.9096 84.4508 64.0761 87.2348 56.6156 90.7363C57.1895 85.8285 58.079 80.9493 59.2841 76.2137L59.1694 76.2424ZM23.0434 172.792L22.4121 171.5C22.0965 170.869 21.7808 170.237 21.4939 169.577L21.1782 168.888C17.3045 160.479 14.4064 151.582 12.6274 142.426C12.5987 142.225 12.5413 141.996 12.4839 141.766L13.8899 139.728C19.1123 132.352 25.138 125.608 31.8525 119.695C32.6272 119.007 33.3733 118.375 34.1193 117.744C37.7348 114.701 41.5798 111.86 45.597 109.248C45.8553 116.624 46.7161 123.972 48.2082 131.118C48.5238 132.639 48.8681 134.189 49.2412 135.653V135.71C50.3889 140.274 51.7663 144.78 53.3731 149.171C53.4305 149.343 53.5166 149.544 53.574 149.716C53.6027 149.802 53.6601 149.917 53.6888 150.032C53.574 150.147 53.4592 150.262 53.3444 150.405C53.2297 150.549 53.0862 150.692 52.9427 150.836C50.0733 153.849 47.3187 157.092 44.7075 160.479L43.3015 162.345C42.8137 162.976 42.3546 163.607 41.8955 164.268C37.3331 170.668 33.3159 177.527 29.9874 184.645C27.4336 180.828 25.1094 176.867 23.0434 172.792ZM55.6113 267.877L54.2053 267.246C53.8896 267.102 53.6027 266.987 53.2871 266.815L52.914 266.643C44.3919 262.654 36.3575 257.631 29.0978 251.776L28.5813 251.346L28.4953 250.628C27.5484 241.186 27.7779 231.657 29.1552 222.3V222.214C29.2987 221.21 29.4709 220.205 29.6143 219.344V219.115C30.4465 214.58 31.5369 210.045 32.8855 205.597C38.0504 211.452 43.7893 216.819 49.9011 221.612L51.795 223.047C52.4262 223.535 53.0575 223.994 53.7175 224.453C57.2182 226.979 60.891 229.361 64.65 231.542C64.9943 231.743 65.3673 231.944 65.7116 232.145C65.7116 232.26 65.7116 232.403 65.7116 232.518C65.4247 237.139 65.3673 241.817 65.5969 246.466C65.6543 247.959 65.769 249.537 65.8838 251.145C66.4864 258.435 67.7202 265.725 69.5567 272.871C64.8221 271.493 60.145 269.8 55.6113 267.82V267.877ZM75.5251 192.94C71.7374 201.263 68.8393 209.959 66.8594 218.77L66.7733 219.229C64.65 217.909 62.584 216.503 60.5754 215.039C59.9441 214.58 59.3989 214.178 58.8824 213.805L57.0747 212.427C51.3645 207.979 46.0561 202.927 41.2355 197.474L38.3661 194.317L40.1164 190.644L40.2025 190.471C43.3015 183.669 47.0604 177.154 51.3932 171.098C51.7663 170.582 52.1967 169.979 52.5984 169.405L53.9757 167.597C55.4391 165.703 56.9599 163.866 58.5381 162.086C60.5467 165.674 62.7848 169.262 65.1951 172.706C67.9785 176.695 71.0488 180.627 74.2912 184.329C74.9799 185.133 75.6685 185.879 76.3572 186.625L77.3615 187.687L77.6771 188.003C77.2754 189.094 76.845 190.213 76.3859 191.189C76.0989 191.792 75.7546 192.509 75.5538 192.968L75.5251 192.94ZM82.4404 275.942L81.5221 272.383L81.3787 271.809C79.4562 264.806 78.1649 257.574 77.5623 250.37V250.312C77.4476 248.82 77.3615 247.356 77.2754 246.007C77.1606 243.195 77.1319 240.353 77.218 237.541C81.1204 239.004 85.1089 240.296 89.1261 241.386C93.7746 242.649 98.5665 243.654 103.33 244.4C103.846 244.486 104.363 244.544 104.908 244.63C106.142 244.802 107.347 244.974 108.552 245.118L109.155 247.586C109.155 247.586 109.155 247.701 109.183 247.729L109.241 247.959C109.442 248.734 109.614 249.451 109.843 250.198C112.426 259.468 115.984 268.423 120.431 276.774C118.079 277.119 115.726 277.348 113.344 277.549C111.823 277.664 110.446 277.75 109.04 277.808C107.49 277.865 105.884 277.894 104.305 277.894C98.4517 277.894 92.512 277.435 86.6584 276.545L82.4404 276V275.942ZM142.641 320.227C141.751 320.486 140.833 320.744 139.972 320.974L138.136 321.461C133.832 322.552 129.441 323.384 125.109 323.93C120.805 324.504 116.386 324.848 112.024 324.934C111.795 324.934 111.565 324.934 111.335 324.934C111.163 324.791 111.02 324.619 110.819 324.446C104.162 317.931 98.2796 310.613 93.3442 302.691C92.9424 302.06 92.5694 301.428 92.1964 300.797L91.8234 300.166C89.5565 296.32 87.5192 292.302 85.6828 288.169C93.5737 289.317 101.608 289.747 109.499 289.431C110.991 289.374 112.569 289.288 114.262 289.144C118.739 288.8 123.272 288.197 127.749 287.365C130.618 291.297 133.717 295.085 136.988 298.587C138.078 299.764 139.169 300.912 140.23 301.974C145.08 306.853 150.331 311.359 155.898 315.406C151.565 317.271 147.117 318.878 142.583 320.199L142.641 320.227ZM172.052 308.001C170.905 308.718 169.786 309.465 168.695 310.153L165.453 307.8L165.223 307.628C159.255 303.524 153.659 298.845 148.552 293.679C147.576 292.703 146.601 291.699 145.625 290.608C143.473 288.283 141.407 285.844 139.427 283.318C147.978 280.333 156.299 276.401 164.161 271.637C165.051 271.092 165.883 270.575 166.744 270.03L168.552 268.824L170.388 270.173C170.56 270.288 170.704 270.403 170.876 270.518H170.905C171.536 271.006 172.167 271.436 172.856 271.924C180.919 277.463 189.642 282.113 198.767 285.729C197.188 287.509 195.553 289.231 193.889 290.895L191.966 292.761C191.45 293.249 190.933 293.737 190.388 294.224C184.821 299.305 178.709 303.897 172.225 307.829L171.995 307.972L172.052 308.001ZM249.297 293.708L248.608 294.999C246.887 298.185 244.964 301.4 242.87 304.557C242.296 305.389 241.722 306.221 241.205 306.996L240.201 308.431C235.065 315.492 229.125 321.978 222.554 327.69C222.382 327.833 222.238 327.977 222.066 328.12L221.292 328.063C212.109 327.345 202.985 325.566 194.233 322.724L192.712 322.208C192.282 322.064 191.851 321.921 191.392 321.748C187.49 320.371 183.616 318.764 179.857 316.955C186.428 312.823 192.655 308.116 198.336 302.892C198.91 302.347 199.484 301.83 200.058 301.285L201.78 299.649C204.907 296.578 207.92 293.249 210.79 289.776C215.352 290.895 220.058 291.785 224.764 292.416L227.059 292.703C227.834 292.789 228.609 292.876 229.383 292.933C236.012 293.564 242.812 293.65 249.527 293.249C249.441 293.421 249.354 293.593 249.268 293.765L249.297 293.708ZM263.845 248.763L263.673 250.685C263.529 252.12 263.357 253.527 263.185 254.876C262.181 262.338 260.43 269.714 258.049 276.803L256.93 280.477L256.844 280.793L256.758 280.907L255.151 281.022L252.855 281.166H252.54C245.223 281.883 237.791 281.883 230.56 281.166H230.101C229.498 281.08 228.982 281.022 228.523 280.965L226.284 280.706C223.013 280.276 219.771 279.702 216.557 278.984C221.378 270.977 225.366 262.395 228.408 253.469V253.383C228.752 252.436 229.068 251.489 229.383 250.513L230.015 248.476L232.281 248.303C232.281 248.303 232.511 248.303 232.568 248.303H232.798C233.63 248.217 234.434 248.16 235.151 248.074H235.237C245.079 247.127 254.778 245.06 264.046 241.989C264.103 241.989 264.161 241.96 264.218 241.932C264.161 244.228 264.046 246.495 263.874 248.734L263.845 248.763ZM265.854 198.335L263.931 193.485L265.452 191.935C265.882 191.505 266.657 190.758 267.604 189.783C269.354 188.003 278.422 178.561 285.509 167.023C285.567 166.937 285.624 166.851 285.681 166.765C287.403 168.888 289.067 171.098 290.617 173.308L291.621 174.772C292.453 175.977 293.199 177.126 293.917 178.274L294.777 179.651C298.278 185.449 301.32 191.591 303.816 197.962L304.935 200.574L305.165 201.119L305.394 201.665L305.48 201.866C305.48 201.866 305.423 201.923 305.394 201.952L305.107 202.21L304.677 202.612L304.247 203.042L302.64 204.563L302.353 204.822C297.073 210.16 291.248 215.039 285.05 219.287C283.902 220.062 282.726 220.865 281.492 221.612C278.852 223.276 276.097 224.884 273.285 226.319C271.851 216.819 269.354 207.376 265.825 198.249L265.854 198.335ZM309.067 258.062L308.866 259.382L308.264 259.812C300.746 265.179 292.568 269.685 283.988 273.129H283.902C283.472 273.359 283.099 273.503 282.726 273.646L281.262 274.191C277.618 275.569 273.859 276.746 270.043 277.75C272.224 270.833 273.802 263.687 274.778 256.483C274.978 254.962 275.179 253.383 275.323 251.776L275.495 249.767C275.811 245.979 275.954 242.104 275.897 238.229C279.943 236.22 283.96 233.982 287.747 231.571C289.067 230.738 290.387 229.877 291.65 228.988C297.331 225.084 302.726 220.722 307.719 215.958C307.862 216.589 307.977 217.22 308.12 217.852C308.809 221.353 309.354 224.855 309.698 228.299C309.784 228.988 309.871 229.877 309.928 230.71V231.226C310.703 240.152 310.387 249.164 309.038 258.033L309.067 258.062ZM331.018 151.611C328.665 160.709 325.251 169.491 320.86 177.7C320.401 178.532 320.028 179.249 319.684 179.852L318.737 181.488C317.015 184.415 315.179 187.257 313.199 190.041C310.531 183.813 307.403 177.786 303.845 172.103L303.701 171.873C302.984 170.725 302.209 169.549 301.377 168.286L301.291 168.142C298.651 164.268 295.753 160.479 292.683 156.834C294.404 152.931 295.954 148.884 297.274 144.808C297.819 143.173 298.249 141.709 298.651 140.331L299.168 138.466C300.889 132.008 302.152 125.349 302.869 118.662C306.14 121.216 309.268 123.943 312.252 126.813C312.826 127.387 313.457 128.019 314.261 128.822L315.523 130.114C321.32 136.198 326.513 142.972 330.875 150.233C330.989 150.434 331.133 150.635 331.248 150.836L331.076 151.582L331.018 151.611Z" />
<path fill-rule="evenodd" clip-rule="evenodd" d="M183.758 181.874C180.069 185.563 176.108 188.814 171.94 191.627C167.77 188.813 163.808 185.562 160.118 181.872C156.429 178.183 153.178 174.221 150.364 170.053C153.178 165.883 156.43 161.921 160.12 158.231C163.809 154.542 167.77 151.291 171.939 148.478C176.109 151.291 180.071 154.543 183.761 158.233C187.45 161.922 190.701 165.883 193.514 170.052C190.7 174.222 187.448 178.184 183.758 181.874Z" />
</g>
<defs>
<clipPath id="clip0_1813_6860">
<rect width="343.47" height="340.018"  transform="translate(0.205078 0.0449219)"/>
</clipPath>

</defs>
</svg>