<svg height="1em" style="flex:none;line-height:1" viewBox="0 0 24 24" width="1em" xmlns="http://www.w3.org/2000/svg"><title>together.ai</title><path d="M23.197 4.503A6 6 0 0015 2.307a5.973 5.973 0 00-2.995 4.933l5.996.008v.515h-5.996c.039.937.298 1.87.8 2.74a6 6 0 1010.39-6z" fill="#8F74E0"></path><path d="M.805 4.5A6 6 0 003 12.697a5.972 5.972 0 005.77.127L5.779 7.627l.446-.257 2.997 5.192A6 6 0 10.804 4.5z" fill="#8F74E0"></path><path d="M12 23.894a6 6 0 005.999-6c0-2.13-1.1-3.996-2.775-5.06l-3.005 5.189-.444-.258 2.997-5.192A6 6 0 1012 23.894z" fill="#8F74E0"></path></svg>