<svg width="213" height="131" viewBox="0 0 213 131" fill="none" xmlns="http://www.w3.org/2000/svg">
<g clip-path="url(#clip0_678_1937)">
<path fill-rule="evenodd" clip-rule="evenodd" d="M65 52.75H54.75V58H65V52.75ZM59.75 63.25H50.75V73H59.75V63.25ZM70 69.75H80.5V81H91V86H96.25V95.75H105.75V105.75H169.5V121H157.75V126H111V121H95V111H85.25V101.25H80.25V96.25H75V81H70V69.75Z" fill="#8F74E0"/>
<path fill-rule="evenodd" clip-rule="evenodd" d="M90.25 38.75H203.5V85.5V86.75V90.75H198V96.25V101H192.75V105.75H187.5V111.25H182.25V116.25H140.25V111.25H126.25V105.75H111V101H105.5V96.25H90.25V86.75V84.5V38.75Z" fill="#8F74E0"/>
<path fill-rule="evenodd" clip-rule="evenodd" d="M112 -0.5H158V3.75H164.25V13.75H177V18.75H187.25V28.5H192.75V52H187.25H180H177H174.5H164.25H158H151.5H146.5H131.25H118V66H80V32.75H85.25V18.75H100.5V13.75H105.5V8.75H112V-0.5ZM54.75 33.5H59.75V42.25H65V49.25H59.75V52.75H54.75V33.5Z" fill="#8F74E0"/>
<path fill-rule="evenodd" clip-rule="evenodd" d="M149.5 4.25H158.5V9H149.5V4.25ZM149.5 14H135.75V9H149.5V14ZM149.5 14H154.25V18.75H164V13.75H169.25V18.75H164.25V23.5H178.25V29H174V38.75H169.25V29H159V23.5H149.5V19V18.75V14ZM187.75 28.75H178.75V38.5H187.75V28.75ZM159 43.25H151.75V52V52.25V61H146V65.5H131H126.25V61H121.25V52H116.25V61H111V65.25H105.5V70.5H111V80.5H116.25V75.75H121V85.75H126.25V90.75H131H135.75V85.5H131V80.5H140.5V85.75H145.75V90.75H149.5V95.75H159.25V90.75H164.25V95.75H183.25V90.75H193H208V55.25H186V43.25H170.25V52H159V43.25ZM183.25 60.5H170.25V61V65.5H165.5V75.5L168.75 80.125H171.375V85.5H183.25V60.5ZM87.25 50.5H90.5V55.25H100V56.75H87.25V55.25V50.5ZM191.5 38.5H198.5V48H191.5V38.5ZM116.25 14H121.25V18.75H116.25V14ZM149.5 23.75H140.25V28.5H135.75V33.5H145.75V38.25H159V33.5H154.25V28.5H149.5V23.75ZM126.25 23.75H135.5V28.75H126.25V23.75ZM145.75 38.5H136V48H145.75V38.5Z" fill="#8F74E0"/>
<path fill-rule="evenodd" clip-rule="evenodd" d="M105.5 23.75H111V28.5H105.5V23.75ZM54.75 28.5H46.25V58H54.75V28.5ZM100 55.25H87.25V50.5H85.5V55.25H80.5V65.25H85.25V75.25H100V65.25V55.25ZM121.25 28.75H116V33.5H121.25V28.75ZM100.75 80.5H111V85.75H100.75V80.5ZM140.5 80.5H131V85.5H135.75V90.5H131V95.75H140.25V100.75H149.5V95.75V90.5H140.5V85.5V80.5ZM121 85.75H126.25V90.75H121V85.75ZM149.75 101H159V106H149.75V101ZM174 101H169.25V95.75H159V101H164.25V105.75H174V101ZM174 101H188V95.75H193V90.75H183.25V95.75H174V101ZM203.25 80.75H198.5V85.5H203.25V80.75ZM174.5 55.75H183.25V60.5H170.25L170.75 59.375L174.5 55.75ZM208 70.5H203.25V75.25H208V70.5Z" fill="#8F74E0"/>
<path fill-rule="evenodd" clip-rule="evenodd" d="M54.75 35.5H50.5V38.5V43.25H59.5V38.5H54.75V35.5Z" fill="#8F74E0"/>
<path fill-rule="evenodd" clip-rule="evenodd" d="M100.25 23.5H95L90.5 28V28.75H100.25V23.5ZM70.25 43.25H75V51.5H70.25V43.25ZM65 63.25H70V68.25H65V63.25ZM90.25 80.5H85V85.5H90.25V80.5ZM193 95.75H188V101H193V95.75ZM182.25 106H177.25V111.25H182.25V106ZM169.5 111H176.75V116H169.5V111ZM116 121H111V126H116V121ZM102.5 101H111V106H102.5V101ZM59.75 68H54.75V73H59.75V68Z" fill="#8F74E0"/>
<rect x="-0.5" y="29" width="4" height="4.25" fill="#8F74E0"/>
<rect x="8.25" y="43.5" width="3.5" height="4.25" fill="#8F74E0"/>
<rect x="16.75" y="43.5" width="3" height="4.25" fill="#8F74E0"/>
<rect x="20.75" y="106.5" width="8.5" height="4.25" fill="#8F74E0"/>
<rect x="34" y="106.5" width="35.5" height="4.25" fill="#8F74E0"/>
<rect x="51.5" y="97" width="3.75" height="4.25" fill="#8F74E0"/>
<rect x="65" y="96.5" width="10" height="4.75" fill="#8F74E0"/>
<rect y="106.5" width="7.75" height="4.25" fill="#8F74E0"/>
<rect x="12.5" y="92.25" width="57.5" height="4.25" fill="#8F74E0"/>
<rect x="21.25" y="43.5" width="25" height="4.25" fill="#8F74E0"/>
<rect y="59.5" width="24.75" height="4.25" fill="#8F74E0"/>
<rect x="20.75" y="68.75" width="25.5" height="4.25" fill="#8F74E0"/>
<rect x="16.75" y="82.75" width="48.25" height="4.25" fill="#8F74E0"/>
<rect x="4" y="82.75" width="8" height="4.25" fill="#8F74E0"/>
<rect x="8.25" y="29" width="4" height="4.25" fill="#8F74E0"/>
<rect x="16.5" y="29" width="4" height="4.25" fill="#8F74E0"/>
<rect y="43.5" width="3.5" height="4.25" fill="#8F74E0"/>
<rect x="25.25" y="29" width="21" height="4.25" fill="#8F74E0"/>
<rect x="62.75" y="28.5" width="12.25" height="4.75" fill="#8F74E0"/>
<rect x="4" y="68.75" width="3.75" height="4.25" fill="#8F74E0"/>
<rect x="29.5" y="59.5" width="3.75" height="4.25" fill="#8F74E0"/>
<rect y="92.25" width="3.5" height="4.25" fill="#8F74E0"/>
<path fill-rule="evenodd" clip-rule="evenodd" d="M116 4.25H111.5V9H116V4.25ZM100.5 9H105.75V14H100.5V18.75H95.25V13.75H100.5V9ZM80.25 28.5H85.25V38.25H80.25V55H75.25V58V63.25V71.25H70V63.25H65V58H70V51.5H75V43.25H70.25V38.5H75V33.25H80.25V28.5ZM85.25 28.5L89.75 23.5H85.25V28.5ZM59.75 58H46.25V63.25H59.75V58ZM105.5 60.75H100V68.5H105.5V60.75ZM90 70.25H94.75V75.25H90V70.25ZM75 81.5H70V86.75H75V81.5ZM75 91H80.25V96.25H75V91ZM85.25 101H80.25V106H85.25V101ZM100.75 116H105.75V121H100.75V116ZM100.25 38.5H95.25V40.5L90.25 45.25H94.75V48.25H100.25V46V45.25V38.75H105.75V33.5H100.25V38.5ZM105.5 48.25H111L109.25 52H105.5L100.25 55.25V50.5H100.5L105.5 45.75V48.25ZM131 4.25H135.75V9H131V4.25ZM111 18.75H121.25V23.75V28.75H116V23.75H111V18.75ZM131 13.75H126.25V18.75H131V13.75ZM135.5 18.75H140.25V23.75H135.5V18.75ZM149.5 14H145V19H149.5V14ZM149.5 23.5H159V28.5H149.5V23.5ZM164 13.75H158.75V18.75H164V13.75ZM164 13.75H169.25V8.75H164V13.75ZM174 18.75H169.25V23.5H174V18.75ZM174 29H178.75V33.75H174V29ZM169.25 33.5H164.25V38.5H169.25V33.5ZM159 43H164V48H159V43ZM179 43.25L174 48V52H179V43.25ZM65 38.25H59.5V43.25H65V38.25ZM59.75 47.5H65V52.75H56.25V51H57.75V50H58.5V49H59.75V47.5ZM59.5 28.5H54.75V33.5H59.5V28.5ZM94.75 18.75H90.25V23.75L94.75 18.75ZM116 38.5H111.5L116 33.5V38.5ZM121.25 43.25L111 53.5V56.375H116.25V52H121.25V43.25Z" fill="#8F74E0"/>
<path fill-rule="evenodd" clip-rule="evenodd" d="M131 -0.5H111V3.75H105.75V9H111.5V4.25H131V-0.5ZM95.25 9.25H100.5V13.75H95.25V18.75H90.25V23.5H85.25V18.5H90.25V13.5H95.25V9.25ZM80.25 28.5V23.5H85.25V28.5H80.25ZM75 33.25V28.5H80.25V33.25H75ZM65 58V38H70.25V33.25H75V38.5H70.25V58H65ZM80.25 96.25V101.25H75V96.5H70V87H65V68.75H62.75V73.25H59.5V78H50.5V73.25H46.25V63.25H50.75V73H59.5V68.25H59.75V58H65V68.25H70V86.75H75V96.25H80.25ZM80.25 96.25V91H85V96.25H80.25ZM50.5 23.75H59.25V28.5H50.75V33.5H46.25V28.5H50.5V23.75ZM62.75 28.5H59.5V38.25H62.75V28.5ZM111 85.75H100.75V90.75H111V85.75ZM149.25 105.75H140.5V110.75H149.25V105.75ZM154 111H159.25V116H154V111ZM135.75 -0.5H158.5V3.75H164.25V9H158.5V4.25H135.75V-0.5ZM169.25 9H176.75V13.5H182V18.5H187.5V23.5H192.75V28.25H197.5V33.25H202.75V38.5H207.25V43.25H208V55H213V75.5H208.25V90.75H203.25V101H198V106.25H192.75V111.25H187.5V116H182.25V111H187.5V105.75H192.75V100.75H198V90.25H203.25V75.25H208V55.5H202.75V60.5H198V65.5H193V60.5H189V55.25H186V48.75V43.25V38.5H191.5V43.25H194.5V48H198.5V43.75V43.25V38.5H197.5H192.75V28.75H187.5V23.75H182V18.75H176.75V13.75H169.25V9ZM182.25 116V121H169.75V126H158V130.75H111.25V126H157.75V121H169.5V116H182.25ZM176.25 60.5H170.25V65.25H165.5V75.25H170.25V76.5L173.75 80H185.5C187.019 80 188.25 78.7688 188.25 77.25V75.25H192.75V70.25H188.5V65.25H176.25V60.5ZM176.25 65.25V70.25H188.25V75.25H170.25V65.25H176.25ZM101 121H111V125.5H101V121ZM100.75 116H95.25V111H100.25V105.75H95.25V111H85.25V106H90.25V100.75H85.25V106H80.5V111H85.25V116H91.25V121H100.75V116ZM95.25 90.5H90.25V96H95.25V90.5ZM75 81H80.25V86.5H75V81ZM80.25 55H75.25V69.75H80.5V80.5H85.25H90.25V85.75H94.75V80.5V75.5H100.25V70.25H94.75V75.25H85.25V65.25H94.75V60.5H85V65.25H80.5V55.25H85.5V50.5H90.5V55.25H100V60.75H105.5V55.25H100.25V50.5H94.75V45.25H85.25V50.25H80.25V55ZM105.5 43H111V48.25H105.5V43ZM85 33.5H90.25V38.5H85.25V43.25H80V38.25H85V33.5ZM105.5 28.5H110.75V33.5H105.5V28.5ZM121.25 33.5H116V38.5H121.25V33.5ZM105.75 13.75H111V18.75H105.75V13.75ZM126.5 9H121.25V14H126.5V9ZM126.25 56.25V60.75H130.5V65.5H136H140.25H146V56.5H147.25H150.25H151.75V43.25H150.25V38.25H145.75V33.5H136H130.5V38.5H126.25V43.25H121.25V56.25H126.25ZM136 38.5V43.25H140.25V48H145.75V38.5H136ZM41.75 53H46.25V58H41.75V53ZM55.75 43.25H50.5V48H55.75V43.25ZM121 95.75H116V101H121V95.75ZM121.25 106H126.25V111.25H121.25V106ZM150 116H145V121.25H150V116ZM116 115.75H121V121H116V115.75ZM111 111H105.75V116H111V111Z" fill="#8F74E0"/>
<path fill-rule="evenodd" clip-rule="evenodd" d="M176.25 60.5H183.25V65.25H176.25V60.5ZM176.25 70.25V65.25H170.25V70.25H176.25ZM176.25 70.25V75.25H183.25V70.25H176.25Z" fill="#8F74E0"/>
<rect x="170.25" y="70.25" width="6" height="5" fill="#8F74E0"/>
<path fill-rule="evenodd" clip-rule="evenodd" d="M70 75.75H75V81.5H70V75.75ZM126.25 121H143.75V126H126.25V121ZM140.25 111.25H130.75V116.25H140.25V111.25ZM152.25 121H157.75V126H152.25V121ZM169.5 116H164V121H169.5V116Z" fill="#8F74E0"/>
</g>
<defs>
<clipPath id="clip0_678_1937">
<rect width="213" height="131" fill="#8F74E0"/>
</clipPath>
</defs>
</svg>
