<?xml version="1.0" standalone="no"?>
<!DOCTYPE svg PUBLIC "-//W3C//DTD SVG 20010904//EN"
 "http://www.w3.org/TR/2001/REC-SVG-20010904/DTD/svg10.dtd">
<svg version="1.0" xmlns="http://www.w3.org/2000/svg"
 width="584.000000pt" height="584.000000pt" viewBox="0 0 584.000000 584.000000"
 preserveAspectRatio="xMidYMid meet">
<metadata>
Created by potrace 1.14, written by Peter Selinger 2001-2017
</metadata>
<g transform="translate(0.000000,584.000000) scale(0.100000,-0.100000)"
fill="#8F74E0" stroke="none">
<path d="M2800 5635 c-41 -24 -80 -47 -86 -52 -5 -4 -26 -16 -45 -27 -82 -44
-146 -80 -169 -95 -14 -10 -36 -22 -50 -29 -14 -6 -32 -16 -40 -22 -8 -5 -67
-39 -130 -75 -63 -36 -122 -69 -130 -74 -74 -45 -193 -111 -200 -111 -6 0 -10
-4 -10 -10 0 -5 -4 -10 -9 -10 -5 0 -122 -65 -261 -145 -138 -80 -256 -145
-261 -145 -5 0 -9 -4 -9 -10 0 -5 -4 -10 -10 -10 -5 0 -31 -13 -58 -29 -26
-15 -70 -41 -98 -56 -27 -16 -65 -38 -85 -49 -21 -12 -66 -37 -100 -57 -35
-20 -82 -47 -104 -59 -22 -13 -53 -30 -68 -39 -16 -9 -36 -20 -45 -26 -41 -24
-349 -201 -367 -210 -23 -12 -24 -25 -24 -300 0 -99 0 -189 0 -200 0 -11 0
-105 0 -210 1 -104 1 -194 1 -200 -1 -5 -1 -127 -1 -270 0 -143 0 -269 0 -280
0 -11 0 -69 0 -130 0 -60 0 -117 0 -125 0 -8 0 -80 0 -160 1 -80 1 -149 1
-155 -1 -5 -1 -91 -1 -190 0 -207 0 -184 -1 -339 0 -66 4 -124 9 -129 5 -5 98
-64 207 -132 110 -68 204 -129 211 -134 7 -6 15 -11 18 -11 4 0 26 -13 50 -30
24 -17 48 -30 54 -30 6 0 11 -4 11 -10 0 -5 7 -10 15 -10 8 0 15 -4 15 -10 0
-5 7 -10 15 -10 8 0 15 -4 15 -10 0 -5 5 -10 10 -10 10 0 122 -68 147 -90 7
-5 14 -10 17 -10 3 0 48 -27 100 -60 53 -33 97 -60 100 -60 7 0 4 707 -3 718
-6 10 -339 222 -348 222 -27 0 -29 44 -27 1005 1 539 2 983 3 986 0 3 20 16
43 29 24 13 45 26 48 29 3 4 24 15 47 26 24 11 43 23 43 26 0 3 16 11 35 19
19 8 35 17 35 22 0 4 4 8 10 8 8 0 138 72 180 100 8 6 22 13 30 17 8 4 53 29
100 56 88 51 105 61 230 132 147 84 375 215 390 225 8 6 26 16 40 22 14 7 36
19 50 29 24 16 70 42 175 99 28 15 74 41 103 59 29 17 57 31 62 31 4 0 10 3
12 8 2 4 45 31 95 60 l93 52 122 -73 c198 -117 272 -161 293 -173 11 -6 65
-38 120 -70 55 -33 142 -85 193 -115 111 -64 102 -59 227 -133 55 -32 136 -80
180 -106 44 -26 96 -57 116 -68 20 -11 47 -26 60 -34 13 -7 26 -15 29 -18 11
-11 46 -31 73 -41 15 -6 27 -15 27 -20 0 -5 5 -9 10 -9 6 0 67 -34 136 -75 69
-41 129 -75 135 -75 5 0 9 -4 9 -9 0 -5 9 -11 20 -14 20 -5 20 -13 20 -1059
l0 -1053 -140 -78 c-76 -42 -143 -77 -149 -77 -5 0 -11 -4 -13 -8 -1 -4 -34
-25 -73 -47 -128 -70 -146 -80 -375 -210 -41 -24 -95 -54 -120 -68 -25 -13
-74 -41 -110 -62 -36 -20 -90 -51 -120 -68 -30 -17 -73 -41 -95 -54 -22 -12
-62 -34 -90 -49 -27 -15 -62 -35 -77 -46 -16 -11 -28 -16 -28 -11 0 4 -4 4 -8
-2 -4 -5 -16 -15 -27 -21 -11 -6 -42 -24 -70 -39 -27 -16 -90 -51 -140 -78
-49 -27 -102 -58 -117 -68 -31 -22 -41 -19 -118 31 -30 20 -59 39 -65 41 -5 2
-40 24 -77 47 l-68 44 0 578 0 578 -57 27 c-94 46 -169 101 -239 175 -60 65
-84 95 -84 108 0 6 -3 12 -8 12 -8 0 -15 12 -53 91 -58 121 -79 212 -83 354
-7 220 79 438 234 595 129 131 277 211 436 237 60 10 225 10 279 0 147 -27
304 -108 410 -214 56 -55 105 -110 105 -117 0 -3 13 -24 28 -48 30 -46 79
-152 85 -184 2 -10 9 -37 15 -59 22 -82 30 -221 17 -300 -3 -16 -8 -46 -11
-65 -8 -53 -51 -175 -81 -228 -86 -157 -203 -271 -355 -348 -38 -19 -68 -38
-69 -42 -3 -23 -3 -602 0 -602 2 0 26 14 53 30 26 17 50 30 53 30 3 0 34 18
70 40 36 22 68 40 71 40 2 0 62 33 132 73 70 40 134 76 142 80 8 4 38 21 65
38 28 16 62 35 78 40 15 6 27 15 27 20 0 5 4 9 9 9 5 0 38 16 73 36 34 20 92
52 128 72 36 19 77 43 91 51 l25 16 0 758 -1 759 -45 26 c-25 15 -46 30 -48
34 -2 4 -8 8 -13 8 -5 0 -55 28 -111 61 -57 34 -121 72 -143 84 -22 13 -240
141 -484 284 l-443 261 -70 -40 c-38 -22 -72 -40 -76 -40 -3 0 -13 -6 -21 -14
-9 -7 -46 -30 -83 -50 -37 -19 -85 -46 -105 -59 -21 -13 -45 -27 -53 -31 -8
-4 -24 -12 -35 -19 -11 -7 -58 -34 -105 -61 -47 -26 -98 -56 -115 -66 -16 -9
-77 -44 -135 -77 -58 -33 -161 -92 -229 -131 -69 -40 -128 -72 -133 -72 -4 0
-8 -3 -8 -7 0 -5 -26 -21 -58 -36 -31 -16 -65 -34 -75 -42 -18 -13 -19 -48
-19 -736 0 -597 2 -723 13 -730 8 -5 52 -33 99 -63 47 -30 137 -86 200 -125
63 -39 122 -75 130 -81 12 -8 14 -97 15 -649 l0 -640 80 -50 c44 -28 85 -55
92 -61 7 -5 15 -10 18 -10 5 0 91 -54 186 -116 19 -13 40 -24 46 -24 6 0 13
-3 15 -7 3 -8 89 -67 98 -68 3 0 25 -14 50 -29 25 -16 77 -49 115 -74 39 -24
82 -53 97 -63 15 -10 32 -19 39 -19 12 0 208 107 414 227 22 12 47 26 55 30 8
4 52 29 97 55 44 26 86 48 91 48 6 0 17 6 24 13 7 7 63 40 123 74 61 33 162
90 225 125 63 36 133 75 155 88 193 107 240 135 243 142 2 4 12 8 22 8 10 0
25 6 32 13 7 7 101 61 208 121 107 60 206 116 220 124 14 9 27 17 30 17 3 0
37 20 77 43 39 23 76 42 82 42 6 0 11 3 11 8 0 4 17 15 38 25 20 10 46 23 57
30 11 7 65 37 120 69 l100 56 0 1399 c0 769 -3 1403 -7 1409 -7 10 -121 80
-208 127 -19 11 -42 25 -51 33 -8 8 -19 14 -22 14 -4 0 -36 18 -72 40 -36 22
-70 40 -75 40 -6 0 -10 5 -10 10 0 6 -4 10 -9 10 -5 0 -56 28 -113 61 -57 34
-116 69 -133 79 -16 9 -115 67 -219 129 -103 61 -192 111 -197 111 -5 0 -9 5
-9 10 0 6 -4 10 -10 10 -5 0 -50 25 -101 55 -50 30 -93 55 -94 55 -2 0 -51 29
-110 65 -59 36 -109 65 -110 65 -1 0 -55 32 -119 70 -65 39 -121 70 -127 70
-5 0 -9 5 -9 10 0 6 -4 10 -10 10 -5 0 -42 20 -82 44 -221 132 -468 276 -480
280 -7 2 -47 -15 -88 -39z"/>
<path d="M2760 3307 c-220 -62 -332 -336 -225 -547 118 -231 408 -271 582 -81
31 34 82 139 88 182 16 112 -6 230 -54 294 -40 51 -111 113 -154 133 -60 28
-173 37 -237 19z"/>
</g>
</svg>
