<svg fill="#8F74E0" fill-rule="evenodd" height="1em" style="flex:none;line-height:1" viewBox="0 0 24 24" width="1em" xmlns="http://www.w3.org/2000/svg"><title>VertexAI</title><path d="M11.995 20.216a1.892 1.892 0 100 3.785 1.892 1.892 0 000-3.785zm0 2.806a.927.927 0 11.927-.914.914.914 0 01-.927.914z"></path><path clip-rule="evenodd" d="M21.687 14.144c.237.038.452.16.605.344a.978.978 0 01-.18 1.3l-8.24 6.082a1.892 1.892 0 00-1.147-1.508l8.28-6.08a.991.991 0 01.682-.138z"></path><path clip-rule="evenodd" d="M10.122 21.842l-8.217-6.066a.952.952 0 01-.206-1.287.978.978 0 011.287-.206l8.28 6.08a1.893 1.893 0 00-1.144 1.479z"></path><path d="M4.273 4.475a.978.978 0 01-.965-.965V1.09a.978.978 0 111.943 0v2.42a.978.978 0 01-.978.965zM4.247 13.034a.978.978 0 100-1.956.978.978 0 000 1.956zM4.247 10.19a.978.978 0 100-1.956.978.978 0 000 1.956zM4.247 7.332a.978.978 0 100-1.956.978.978 0 000 1.956z"></path><path d="M19.718 7.307a.978.978 0 01-.965-.979v-2.42a.965.965 0 011.93 0v2.42a.964.964 0 01-.965.979zM19.743 13.047a.978.978 0 100-1.956.978.978 0 000 1.956zM19.743 10.151a.978.978 0 100-1.956.978.978 0 000 1.956zM19.743 2.068a.978.978 0 100-1.956.978.978 0 000 1.956z"></path><path d="M11.995 15.917a.978.978 0 01-.965-.965v-2.459a.978.978 0 011.943 0v2.433a.976.976 0 01-.978.991zM11.995 18.762a.978.978 0 100-1.956.978.978 0 000 1.956zM11.995 10.64a.978.978 0 100-1.956.978.978 0 000 1.956zM11.995 7.783a.978.978 0 100-1.956.978.978 0 000 1.956z"></path><path d="M15.856 10.177a.978.978 0 01-.965-.965v-2.42a.977.977 0 011.702-.763.979.979 0 01.241.763v2.42a.978.978 0 01-.978.965zM15.869 4.913a.978.978 0 100-1.956.978.978 0 000 1.956zM15.869 15.853a.978.978 0 100-1.956.978.978 0 000 1.956zM15.869 12.996a.978.978 0 100-1.956.978.978 0 000 1.956z"></path><path d="M8.121 15.853a.978.978 0 100-1.956.978.978 0 000 1.956zM8.121 7.783a.978.978 0 100-1.956.978.978 0 000 1.956zM8.121 4.913a.978.978 0 100-1.957.978.978 0 000 1.957zM8.134 12.996a.978.978 0 01-.978-.94V9.611a.965.965 0 011.93 0v2.445a.966.966 0 01-.952.94z"></path></svg>