<svg width="206" height="206" viewBox="0 0 206 206" fill="none" xmlns="http://www.w3.org/2000/svg">
<g clip-path="url(#clip0_6435_59475)">
<path opacity="0.6" d="M-138.5 -9H-150V4.21053M-138.5 -9V4.21053M-138.5 -9H-127M-138.5 4.21053H-150M-138.5 4.21053V17.4211M-138.5 4.21053H-127M-150 4.21053V17.4211M-138.5 17.4211H-150M-138.5 17.4211V30.6316M-138.5 17.4211H-127M-150 17.4211V30.6316M-138.5 30.6316H-150M-138.5 30.6316V43.8421M-138.5 30.6316H-127M-150 30.6316V43.8421M-138.5 43.8421H-150M-138.5 43.8421V57.0526M-138.5 43.8421H-127M-150 43.8421V57.0526M-138.5 57.0526H-150M-138.5 57.0526V70.2632M-138.5 57.0526H-127M-150 57.0526V70.2632M-138.5 70.2632H-150M-138.5 70.2632V83.4737M-138.5 70.2632H-127M-150 70.2632V83.4737M-138.5 83.4737H-150M-138.5 83.4737V96.6842M-138.5 83.4737H-127M-150 83.4737V96.6842M-138.5 96.6842H-150M-138.5 96.6842V109.895M-138.5 96.6842H-127M-150 96.6842V109.895M-138.5 109.895H-150M-138.5 109.895V123.105M-138.5 109.895H-127M-150 109.895V123.105M-138.5 123.105H-150M-138.5 123.105V136.316M-138.5 123.105H-127M-150 123.105V136.316M-138.5 136.316H-150M-138.5 136.316V149.526M-138.5 136.316H-127M-150 136.316V149.526M-138.5 149.526H-150M-138.5 149.526V162.737M-138.5 149.526H-127M-150 149.526V162.737M-138.5 162.737H-150M-138.5 162.737V175.947M-138.5 162.737H-127M-150 162.737V175.947M-138.5 175.947H-150M-138.5 175.947V189.158M-138.5 175.947H-127M-150 175.947V189.158M-138.5 189.158H-150M-138.5 189.158V202.368M-138.5 189.158H-127M-150 189.158V202.368M-138.5 202.368H-150M-138.5 202.368V215.579M-138.5 202.368H-127M-150 202.368V215.579M-138.5 215.579H-150M-138.5 215.579V228.789M-138.5 215.579H-127M-150 215.579V228.789M-138.5 228.789H-150M-138.5 228.789V242M-138.5 228.789H-127M-150 228.789V242H-138.5M-138.5 242H-127M-127 -9V4.21053M-127 -9H-115.5M-127 4.21053V17.4211M-127 4.21053H-115.5M-127 17.4211V30.6316M-127 17.4211H-115.5M-127 30.6316V43.8421M-127 30.6316H-115.5M-127 43.8421V57.0526M-127 43.8421H-115.5M-127 57.0526V70.2632M-127 57.0526H-115.5M-127 70.2632V83.4737M-127 70.2632H-115.5M-127 83.4737V96.6842M-127 83.4737H-115.5M-127 96.6842V109.895M-127 96.6842H-115.5M-127 109.895V123.105M-127 109.895H-115.5M-127 123.105V136.316M-127 123.105H-115.5M-127 136.316V149.526M-127 136.316H-115.5M-127 149.526V162.737M-127 149.526H-115.5M-127 162.737V175.947M-127 162.737H-115.5M-127 175.947V189.158M-127 175.947H-115.5M-127 189.158V202.368M-127 189.158H-115.5M-127 202.368V215.579M-127 202.368H-115.5M-127 215.579V228.789M-127 215.579H-115.5M-127 228.789V242M-127 228.789H-115.5M-127 242H-115.5M-115.5 -9V4.21053M-115.5 -9H-104M-115.5 4.21053V17.4211M-115.5 4.21053H-104M-115.5 17.4211V30.6316M-115.5 17.4211H-104M-115.5 30.6316V43.8421M-115.5 30.6316H-104M-115.5 43.8421V57.0526M-115.5 43.8421H-104M-115.5 57.0526V70.2632M-115.5 57.0526H-104M-115.5 70.2632V83.4737M-115.5 70.2632H-104M-115.5 83.4737V96.6842M-115.5 83.4737H-104M-115.5 96.6842V109.895M-115.5 96.6842H-104M-115.5 109.895V123.105M-115.5 109.895H-104M-115.5 123.105V136.316M-115.5 123.105H-104M-115.5 136.316V149.526M-115.5 136.316H-104M-115.5 149.526V162.737M-115.5 149.526H-104M-115.5 162.737V175.947M-115.5 162.737H-104M-115.5 175.947V189.158M-115.5 175.947H-104M-115.5 189.158V202.368M-115.5 189.158H-104M-115.5 202.368V215.579M-115.5 202.368H-104M-115.5 215.579V228.789M-115.5 215.579H-104M-115.5 228.789V242M-115.5 228.789H-104M-115.5 242H-104M-104 -9V4.21053M-104 -9H-92.5M-104 4.21053V17.4211M-104 4.21053H-92.5M-104 17.4211V30.6316M-104 17.4211H-92.5M-104 30.6316V43.8421M-104 30.6316H-92.5M-104 43.8421V57.0526M-104 43.8421H-92.5M-104 57.0526V70.2632M-104 57.0526H-92.5M-104 70.2632V83.4737M-104 70.2632H-92.5M-104 83.4737V96.6842M-104 83.4737H-92.5M-104 96.6842V109.895M-104 96.6842H-92.5M-104 109.895V123.105M-104 109.895H-92.5M-104 123.105V136.316M-104 123.105H-92.5M-104 136.316V149.526M-104 136.316H-92.5M-104 149.526V162.737M-104 149.526H-92.5M-104 162.737V175.947M-104 162.737H-92.5M-104 175.947V189.158M-104 175.947H-92.5M-104 189.158V202.368M-104 189.158H-92.5M-104 202.368V215.579M-104 202.368H-92.5M-104 215.579V228.789M-104 215.579H-92.5M-104 228.789V242M-104 228.789H-92.5M-104 242H-92.5M-92.5 -9V4.21053M-92.5 -9H-81M-92.5 4.21053V17.4211M-92.5 4.21053H-81M-92.5 17.4211V30.6316M-92.5 17.4211H-81M-92.5 30.6316V43.8421M-92.5 30.6316H-81M-92.5 43.8421V57.0526M-92.5 43.8421H-81M-92.5 57.0526V70.2632M-92.5 57.0526H-81M-92.5 70.2632V83.4737M-92.5 70.2632H-81M-92.5 83.4737V96.6842M-92.5 83.4737H-81M-92.5 96.6842V109.895M-92.5 96.6842H-81M-92.5 109.895V123.105M-92.5 109.895H-81M-92.5 123.105V136.316M-92.5 123.105H-81M-92.5 136.316V149.526M-92.5 136.316H-81M-92.5 149.526V162.737M-92.5 149.526H-81M-92.5 162.737V175.947M-92.5 162.737H-81M-92.5 175.947V189.158M-92.5 175.947H-81M-92.5 189.158V202.368M-92.5 189.158H-81M-92.5 202.368V215.579M-92.5 202.368H-81M-92.5 215.579V228.789M-92.5 215.579H-81M-92.5 228.789V242M-92.5 228.789H-81M-92.5 242H-81M-81 -9V4.21053M-81 -9H-69.5M-81 4.21053V17.4211M-81 4.21053H-69.5M-81 17.4211V30.6316M-81 17.4211H-69.5M-81 30.6316V43.8421M-81 30.6316H-69.5M-81 43.8421V57.0526M-81 43.8421H-69.5M-81 57.0526V70.2632M-81 57.0526H-69.5M-81 70.2632V83.4737M-81 70.2632H-69.5M-81 83.4737V96.6842M-81 83.4737H-69.5M-81 96.6842V109.895M-81 96.6842H-69.5M-81 109.895V123.105M-81 109.895H-69.5M-81 123.105V136.316M-81 123.105H-69.5M-81 136.316V149.526M-81 136.316H-69.5M-81 149.526V162.737M-81 149.526H-69.5M-81 162.737V175.947M-81 162.737H-69.5M-81 175.947V189.158M-81 175.947H-69.5M-81 189.158V202.368M-81 189.158H-69.5M-81 202.368V215.579M-81 202.368H-69.5M-81 215.579V228.789M-81 215.579H-69.5M-81 228.789V242M-81 228.789H-69.5M-81 242H-69.5M-69.5 -9V4.21053M-69.5 -9H-58M-69.5 4.21053V17.4211M-69.5 4.21053H-58M-69.5 17.4211V30.6316M-69.5 17.4211H-58M-69.5 30.6316V43.8421M-69.5 30.6316H-58M-69.5 43.8421V57.0526M-69.5 43.8421H-58M-69.5 57.0526V70.2632M-69.5 57.0526H-58M-69.5 70.2632V83.4737M-69.5 70.2632H-58M-69.5 83.4737V96.6842M-69.5 83.4737H-58M-69.5 96.6842V109.895M-69.5 96.6842H-58M-69.5 109.895V123.105M-69.5 109.895H-58M-69.5 123.105V136.316M-69.5 123.105H-58M-69.5 136.316V149.526M-69.5 136.316H-58M-69.5 149.526V162.737M-69.5 149.526H-58M-69.5 162.737V175.947M-69.5 162.737H-58M-69.5 175.947V189.158M-69.5 175.947H-58M-69.5 189.158V202.368M-69.5 189.158H-58M-69.5 202.368V215.579M-69.5 202.368H-58M-69.5 215.579V228.789M-69.5 215.579H-58M-69.5 228.789V242M-69.5 228.789H-58M-69.5 242H-58M-58 -9V4.21053M-58 -9H-46.5M-58 4.21053V17.4211M-58 4.21053H-46.5M-58 17.4211V30.6316M-58 17.4211H-46.5M-58 30.6316V43.8421M-58 30.6316H-46.5M-58 43.8421V57.0526M-58 43.8421H-46.5M-58 57.0526V70.2632M-58 57.0526H-46.5M-58 70.2632V83.4737M-58 70.2632H-46.5M-58 83.4737V96.6842M-58 83.4737H-46.5M-58 96.6842V109.895M-58 96.6842H-46.5M-58 109.895V123.105M-58 109.895H-46.5M-58 123.105V136.316M-58 123.105H-46.5M-58 136.316V149.526M-58 136.316H-46.5M-58 149.526V162.737M-58 149.526H-46.5M-58 162.737V175.947M-58 162.737H-46.5M-58 175.947V189.158M-58 175.947H-46.5M-58 189.158V202.368M-58 189.158H-46.5M-58 202.368V215.579M-58 202.368H-46.5M-58 215.579V228.789M-58 215.579H-46.5M-58 228.789V242M-58 228.789H-46.5M-58 242H-46.5M-46.5 -9V4.21053M-46.5 -9H-35M-46.5 4.21053V17.4211M-46.5 4.21053H-35M-46.5 17.4211V30.6316M-46.5 17.4211H-35M-46.5 30.6316V43.8421M-46.5 30.6316H-35M-46.5 43.8421V57.0526M-46.5 43.8421H-35M-46.5 57.0526V70.2632M-46.5 57.0526H-35M-46.5 70.2632V83.4737M-46.5 70.2632H-35M-46.5 83.4737V96.6842M-46.5 83.4737H-35M-46.5 96.6842V109.895M-46.5 96.6842H-35M-46.5 109.895V123.105M-46.5 109.895H-35M-46.5 123.105V136.316M-46.5 123.105H-35M-46.5 136.316V149.526M-46.5 136.316H-35M-46.5 149.526V162.737M-46.5 149.526H-35M-46.5 162.737V175.947M-46.5 162.737H-35M-46.5 175.947V189.158M-46.5 175.947H-35M-46.5 189.158V202.368M-46.5 189.158H-35M-46.5 202.368V215.579M-46.5 202.368H-35M-46.5 215.579V228.789M-46.5 215.579H-35M-46.5 228.789V242M-46.5 228.789H-35M-46.5 242H-35M-35 -9V4.21053M-35 -9H-23.5M-35 4.21053V17.4211M-35 4.21053H-23.5M-35 17.4211V30.6316M-35 17.4211H-23.5M-35 30.6316V43.8421M-35 30.6316H-23.5M-35 43.8421V57.0526M-35 43.8421H-23.5M-35 57.0526V70.2632M-35 57.0526H-23.5M-35 70.2632V83.4737M-35 70.2632H-23.5M-35 83.4737V96.6842M-35 83.4737H-23.5M-35 96.6842V109.895M-35 96.6842H-23.5M-35 109.895V123.105M-35 109.895H-23.5M-35 123.105V136.316M-35 123.105H-23.5M-35 136.316V149.526M-35 136.316H-23.5M-35 149.526V162.737M-35 149.526H-23.5M-35 162.737V175.947M-35 162.737H-23.5M-35 175.947V189.158M-35 175.947H-23.5M-35 189.158V202.368M-35 189.158H-23.5M-35 202.368V215.579M-35 202.368H-23.5M-35 215.579V228.789M-35 215.579H-23.5M-35 228.789V242M-35 228.789H-23.5M-35 242H-23.5M-23.5 -9V4.21053M-23.5 -9H-12M-23.5 4.21053V17.4211M-23.5 4.21053H-12M-23.5 17.4211V30.6316M-23.5 17.4211H-12M-23.5 30.6316V43.8421M-23.5 30.6316H-12M-23.5 43.8421V57.0526M-23.5 43.8421H-12M-23.5 57.0526V70.2632M-23.5 57.0526H-12M-23.5 70.2632V83.4737M-23.5 70.2632H-12M-23.5 83.4737V96.6842M-23.5 83.4737H-12M-23.5 96.6842V109.895M-23.5 96.6842H-12M-23.5 109.895V123.105M-23.5 109.895H-12M-23.5 123.105V136.316M-23.5 123.105H-12M-23.5 136.316V149.526M-23.5 136.316H-12M-23.5 149.526V162.737M-23.5 149.526H-12M-23.5 162.737V175.947M-23.5 162.737H-12M-23.5 175.947V189.158M-23.5 175.947H-12M-23.5 189.158V202.368M-23.5 189.158H-12M-23.5 202.368V215.579M-23.5 202.368H-12M-23.5 215.579V228.789M-23.5 215.579H-12M-23.5 228.789V242M-23.5 228.789H-12M-23.5 242H-12M-12 -9V4.21053M-12 -9H-0.500003M-12 4.21053V17.4211M-12 4.21053H-0.500003M-12 17.4211V30.6316M-12 17.4211H-0.500003M-12 30.6316V43.8421M-12 30.6316H-0.500003M-12 43.8421V57.0526M-12 43.8421H-0.500003M-12 57.0526V70.2632M-12 57.0526H-0.500003M-12 70.2632V83.4737M-12 70.2632H-0.500003M-12 83.4737V96.6842M-12 83.4737H-0.500003M-12 96.6842V109.895M-12 96.6842H-0.500003M-12 109.895V123.105M-12 109.895H-0.500003M-12 123.105V136.316M-12 123.105H-0.500003M-12 136.316V149.526M-12 136.316H-0.500003M-12 149.526V162.737M-12 149.526H-0.500003M-12 162.737V175.947M-12 162.737H-0.500003M-12 175.947V189.158M-12 175.947H-0.500003M-12 189.158V202.368M-12 189.158H-0.500003M-12 202.368V215.579M-12 202.368H-0.500003M-12 215.579V228.789M-12 215.579H-0.500003M-12 228.789V242M-12 228.789H-0.500003M-12 242H-0.500003M-0.500003 -9V4.21053M-0.500003 -9H11M-0.500003 4.21053V17.4211M-0.500003 4.21053H11M-0.500003 17.4211V30.6316M-0.500003 17.4211H11M-0.500003 30.6316V43.8421M-0.500003 30.6316H11M-0.500003 43.8421V57.0526M-0.500003 43.8421H11M-0.500003 57.0526V70.2632M-0.500003 57.0526H11M-0.500003 70.2632V83.4737M-0.500003 70.2632H11M-0.500003 83.4737V96.6842M-0.500003 83.4737H11M-0.500003 96.6842V109.895M-0.500003 96.6842H11M-0.500003 109.895V123.105M-0.500003 109.895H11M-0.500003 123.105V136.316M-0.500003 123.105H11M-0.500003 136.316V149.526M-0.500003 136.316H11M-0.500003 149.526V162.737M-0.500003 149.526H11M-0.500003 162.737V175.947M-0.500003 162.737H11M-0.500003 175.947V189.158M-0.500003 175.947H11M-0.500003 189.158V202.368M-0.500003 189.158H11M-0.500003 202.368V215.579M-0.500003 202.368H11M-0.500003 215.579V228.789M-0.500003 215.579H11M-0.500003 228.789V242M-0.500003 228.789H11M-0.500003 242H11M11 -9V4.21053M11 -9H22.5M11 4.21053V17.4211M11 4.21053H22.5M11 17.4211V30.6316M11 17.4211H22.5M11 30.6316V43.8421M11 30.6316H22.5M11 43.8421V57.0526M11 43.8421H22.5M11 57.0526V70.2632M11 57.0526H22.5M11 70.2632V83.4737M11 70.2632H22.5M11 83.4737V96.6842M11 83.4737H22.5M11 96.6842V109.895M11 96.6842H22.5M11 109.895V123.105M11 109.895H22.5M11 123.105V136.316M11 123.105H22.5M11 136.316V149.526M11 136.316H22.5M11 149.526V162.737M11 149.526H22.5M11 162.737V175.947M11 162.737H22.5M11 175.947V189.158M11 175.947H22.5M11 189.158V202.368M11 189.158H22.5M11 202.368V215.579M11 202.368H22.5M11 215.579V228.789M11 215.579H22.5M11 228.789V242M11 228.789H22.5M11 242H22.5M22.5 -9V4.21053M22.5 -9H34M22.5 4.21053V17.4211M22.5 4.21053H34M22.5 17.4211V30.6316M22.5 17.4211H34M22.5 30.6316V43.8421M22.5 30.6316H34M22.5 43.8421V57.0526M22.5 43.8421H34M22.5 57.0526V70.2632M22.5 57.0526H34M22.5 70.2632V83.4737M22.5 70.2632H34M22.5 83.4737V96.6842M22.5 83.4737H34M22.5 96.6842V109.895M22.5 96.6842H34M22.5 109.895V123.105M22.5 109.895H34M22.5 123.105V136.316M22.5 123.105H34M22.5 136.316V149.526M22.5 136.316H34M22.5 149.526V162.737M22.5 149.526H34M22.5 162.737V175.947M22.5 162.737H34M22.5 175.947V189.158M22.5 175.947H34M22.5 189.158V202.368M22.5 189.158H34M22.5 202.368V215.579M22.5 202.368H34M22.5 215.579V228.789M22.5 215.579H34M22.5 228.789V242M22.5 228.789H34M22.5 242H34M34 -9V4.21053M34 -9H45.5M34 4.21053V17.4211M34 4.21053H45.5M34 17.4211V30.6316M34 17.4211H45.5M34 30.6316V43.8421M34 30.6316H45.5M34 43.8421V57.0526M34 43.8421H45.5M34 57.0526V70.2632M34 57.0526H45.5M34 70.2632V83.4737M34 70.2632H45.5M34 83.4737V96.6842M34 83.4737H45.5M34 96.6842V109.895M34 96.6842H45.5M34 109.895V123.105M34 109.895H45.5M34 123.105V136.316M34 123.105H45.5M34 136.316V149.526M34 136.316H45.5M34 149.526V162.737M34 149.526H45.5M34 162.737V175.947M34 162.737H45.5M34 175.947V189.158M34 175.947H45.5M34 189.158V202.368M34 189.158H45.5M34 202.368V215.579M34 202.368H45.5M34 215.579V228.789M34 215.579H45.5M34 228.789V242M34 228.789H45.5M34 242H45.5M45.5 -9V4.21053M45.5 -9H57M45.5 4.21053V17.4211M45.5 4.21053H57M45.5 17.4211V30.6316M45.5 17.4211H57M45.5 30.6316V43.8421M45.5 30.6316H57M45.5 43.8421V57.0526M45.5 43.8421H57M45.5 57.0526V70.2632M45.5 57.0526H57M45.5 70.2632V83.4737M45.5 70.2632H57M45.5 83.4737V96.6842M45.5 83.4737H57M45.5 96.6842V109.895M45.5 96.6842H57M45.5 109.895V123.105M45.5 109.895H57M45.5 123.105V136.316M45.5 123.105H57M45.5 136.316V149.526M45.5 136.316H57M45.5 149.526V162.737M45.5 149.526H57M45.5 162.737V175.947M45.5 162.737H57M45.5 175.947V189.158M45.5 175.947H57M45.5 189.158V202.368M45.5 189.158H57M45.5 202.368V215.579M45.5 202.368H57M45.5 215.579V228.789M45.5 215.579H57M45.5 228.789V242M45.5 228.789H57M45.5 242H57M57 -9V4.21053M57 -9H68.5M57 4.21053V17.4211M57 4.21053H68.5M57 17.4211V30.6316M57 17.4211H68.5M57 30.6316V43.8421M57 30.6316H68.5M57 43.8421V57.0526M57 43.8421H68.5M57 57.0526V70.2632M57 57.0526H68.5M57 70.2632V83.4737M57 70.2632H68.5M57 83.4737V96.6842M57 83.4737H68.5M57 96.6842V109.895M57 96.6842H68.5M57 109.895V123.105M57 109.895H68.5M57 123.105V136.316M57 123.105H68.5M57 136.316V149.526M57 136.316H68.5M57 149.526V162.737M57 149.526H68.5M57 162.737V175.947M57 162.737H68.5M57 175.947V189.158M57 175.947H68.5M57 189.158V202.368M57 189.158H68.5M57 202.368V215.579M57 202.368H68.5M57 215.579V228.789M57 215.579H68.5M57 228.789V242M57 228.789H68.5M57 242H68.5M68.5 -9V4.21053M68.5 -9H80M68.5 4.21053V17.4211M68.5 4.21053H80M68.5 17.4211V30.6316M68.5 17.4211H80M68.5 30.6316V43.8421M68.5 30.6316H80M68.5 43.8421V57.0526M68.5 43.8421H80M68.5 57.0526V70.2632M68.5 57.0526H80M68.5 70.2632V83.4737M68.5 70.2632H80M68.5 83.4737V96.6842M68.5 83.4737H80M68.5 96.6842V109.895M68.5 96.6842H80M68.5 109.895V123.105M68.5 109.895H80M68.5 123.105V136.316M68.5 123.105H80M68.5 136.316V149.526M68.5 136.316H80M68.5 149.526V162.737M68.5 149.526H80M68.5 162.737V175.947M68.5 162.737H80M68.5 175.947V189.158M68.5 175.947H80M68.5 189.158V202.368M68.5 189.158H80M68.5 202.368V215.579M68.5 202.368H80M68.5 215.579V228.789M68.5 215.579H80M68.5 228.789V242M68.5 228.789H80M68.5 242H80M80 -9V4.21053M80 -9H91.5M80 4.21053V17.4211M80 4.21053H91.5M80 17.4211V30.6316M80 17.4211H91.5M80 30.6316V43.8421M80 30.6316H91.5M80 43.8421V57.0526M80 43.8421H91.5M80 57.0526V70.2632M80 57.0526H91.5M80 70.2632V83.4737M80 70.2632H91.5M80 83.4737V96.6842M80 83.4737H91.5M80 96.6842V109.895M80 96.6842H91.5M80 109.895V123.105M80 109.895H91.5M80 123.105V136.316M80 123.105H91.5M80 136.316V149.526M80 136.316H91.5M80 149.526V162.737M80 149.526H91.5M80 162.737V175.947M80 162.737H91.5M80 175.947V189.158M80 175.947H91.5M80 189.158V202.368M80 189.158H91.5M80 202.368V215.579M80 202.368H91.5M80 215.579V228.789M80 215.579H91.5M80 228.789V242M80 228.789H91.5M80 242H91.5M91.5 -9V4.21053M91.5 -9H103M91.5 4.21053V17.4211M91.5 4.21053H103M91.5 17.4211V30.6316M91.5 17.4211H103M91.5 30.6316V43.8421M91.5 30.6316H103M91.5 43.8421V57.0526M91.5 43.8421H103M91.5 57.0526V70.2632M91.5 57.0526H103M91.5 70.2632V83.4737M91.5 70.2632H103M91.5 83.4737V96.6842M91.5 83.4737H103M91.5 96.6842V109.895M91.5 96.6842H103M91.5 109.895V123.105M91.5 109.895H103M91.5 123.105V136.316M91.5 123.105H103M91.5 136.316V149.526M91.5 136.316H103M91.5 149.526V162.737M91.5 149.526H103M91.5 162.737V175.947M91.5 162.737H103M91.5 175.947V189.158M91.5 175.947H103M91.5 189.158V202.368M91.5 189.158H103M91.5 202.368V215.579M91.5 202.368H103M91.5 215.579V228.789M91.5 215.579H103M91.5 228.789V242M91.5 228.789H103M91.5 242H103M103 -9V4.21053M103 -9H114.5M103 4.21053V17.4211M103 4.21053H114.5M103 17.4211V30.6316M103 17.4211H114.5M103 30.6316V43.8421M103 30.6316H114.5M103 43.8421V57.0526M103 43.8421H114.5M103 57.0526V70.2632M103 57.0526H114.5M103 70.2632V83.4737M103 70.2632H114.5M103 83.4737V96.6842M103 83.4737H114.5M103 96.6842V109.895M103 96.6842H114.5M103 109.895V123.105M103 109.895H114.5M103 123.105V136.316M103 123.105H114.5M103 136.316V149.526M103 136.316H114.5M103 149.526V162.737M103 149.526H114.5M103 162.737V175.947M103 162.737H114.5M103 175.947V189.158M103 175.947H114.5M103 189.158V202.368M103 189.158H114.5M103 202.368V215.579M103 202.368H114.5M103 215.579V228.789M103 215.579H114.5M103 228.789V242M103 228.789H114.5M103 242H114.5M114.5 -9V4.21053M114.5 -9H126M114.5 4.21053V17.4211M114.5 4.21053H126M114.5 17.4211V30.6316M114.5 17.4211H126M114.5 30.6316V43.8421M114.5 30.6316H126M114.5 43.8421V57.0526M114.5 43.8421H126M114.5 57.0526V70.2632M114.5 57.0526H126M114.5 70.2632V83.4737M114.5 70.2632H126M114.5 83.4737V96.6842M114.5 83.4737H126M114.5 96.6842V109.895M114.5 96.6842H126M114.5 109.895V123.105M114.5 109.895H126M114.5 123.105V136.316M114.5 123.105H126M114.5 136.316V149.526M114.5 136.316H126M114.5 149.526V162.737M114.5 149.526H126M114.5 162.737V175.947M114.5 162.737H126M114.5 175.947V189.158M114.5 175.947H126M114.5 189.158V202.368M114.5 189.158H126M114.5 202.368V215.579M114.5 202.368H126M114.5 215.579V228.789M114.5 215.579H126M114.5 228.789V242M114.5 228.789H126M114.5 242H126M126 -9V4.21053M126 -9H137.5M126 4.21053V17.4211M126 4.21053H137.5M126 17.4211V30.6316M126 17.4211H137.5M126 30.6316V43.8421M126 30.6316H137.5M126 43.8421V57.0526M126 43.8421H137.5M126 57.0526V70.2632M126 57.0526H137.5M126 70.2632V83.4737M126 70.2632H137.5M126 83.4737V96.6842M126 83.4737H137.5M126 96.6842V109.895M126 96.6842H137.5M126 109.895V123.105M126 109.895H137.5M126 123.105V136.316M126 123.105H137.5M126 136.316V149.526M126 136.316H137.5M126 149.526V162.737M126 149.526H137.5M126 162.737V175.947M126 162.737H137.5M126 175.947V189.158M126 175.947H137.5M126 189.158V202.368M126 189.158H137.5M126 202.368V215.579M126 202.368H137.5M126 215.579V228.789M126 215.579H137.5M126 228.789V242M126 228.789H137.5M126 242H137.5M137.5 -9V4.21053M137.5 -9H149M137.5 4.21053V17.4211M137.5 4.21053H149M137.5 17.4211V30.6316M137.5 17.4211H149M137.5 30.6316V43.8421M137.5 30.6316H149M137.5 43.8421V57.0526M137.5 43.8421H149M137.5 57.0526V70.2632M137.5 57.0526H149M137.5 70.2632V83.4737M137.5 70.2632H149M137.5 83.4737V96.6842M137.5 83.4737H149M137.5 96.6842V109.895M137.5 96.6842H149M137.5 109.895V123.105M137.5 109.895H149M137.5 123.105V136.316M137.5 123.105H149M137.5 136.316V149.526M137.5 136.316H149M137.5 149.526V162.737M137.5 149.526H149M137.5 162.737V175.947M137.5 162.737H149M137.5 175.947V189.158M137.5 175.947H149M137.5 189.158V202.368M137.5 189.158H149M137.5 202.368V215.579M137.5 202.368H149M137.5 215.579V228.789M137.5 215.579H149M137.5 228.789V242M137.5 228.789H149M137.5 242H149M149 -9V4.21053M149 -9H160.5M149 4.21053V17.4211M149 4.21053H160.5M149 17.4211V30.6316M149 17.4211H160.5M149 30.6316V43.8421M149 30.6316H160.5M149 43.8421V57.0526M149 43.8421H160.5M149 57.0526V70.2632M149 57.0526H160.5M149 70.2632V83.4737M149 70.2632H160.5M149 83.4737V96.6842M149 83.4737H160.5M149 96.6842V109.895M149 96.6842H160.5M149 109.895V123.105M149 109.895H160.5M149 123.105V136.316M149 123.105H160.5M149 136.316V149.526M149 136.316H160.5M149 149.526V162.737M149 149.526H160.5M149 162.737V175.947M149 162.737H160.5M149 175.947V189.158M149 175.947H160.5M149 189.158V202.368M149 189.158H160.5M149 202.368V215.579M149 202.368H160.5M149 215.579V228.789M149 215.579H160.5M149 228.789V242M149 228.789H160.5M149 242H160.5M160.5 -9V4.21053M160.5 -9H172M160.5 4.21053V17.4211M160.5 4.21053H172M160.5 17.4211V30.6316M160.5 17.4211H172M160.5 30.6316V43.8421M160.5 30.6316H172M160.5 43.8421V57.0526M160.5 43.8421H172M160.5 57.0526V70.2632M160.5 57.0526H172M160.5 70.2632V83.4737M160.5 70.2632H172M160.5 83.4737V96.6842M160.5 83.4737H172M160.5 96.6842V109.895M160.5 96.6842H172M160.5 109.895V123.105M160.5 109.895H172M160.5 123.105V136.316M160.5 123.105H172M160.5 136.316V149.526M160.5 136.316H172M160.5 149.526V162.737M160.5 149.526H172M160.5 162.737V175.947M160.5 162.737H172M160.5 175.947V189.158M160.5 175.947H172M160.5 189.158V202.368M160.5 189.158H172M160.5 202.368V215.579M160.5 202.368H172M160.5 215.579V228.789M160.5 215.579H172M160.5 228.789V242M160.5 228.789H172M160.5 242H172M172 -9V4.21053M172 -9H183.5M172 4.21053V17.4211M172 4.21053H183.5M172 17.4211V30.6316M172 17.4211H183.5M172 30.6316V43.8421M172 30.6316H183.5M172 43.8421V57.0526M172 43.8421H183.5M172 57.0526V70.2632M172 57.0526H183.5M172 70.2632V83.4737M172 70.2632H183.5M172 83.4737V96.6842M172 83.4737H183.5M172 96.6842V109.895M172 96.6842H183.5M172 109.895V123.105M172 109.895H183.5M172 123.105V136.316M172 123.105H183.5M172 136.316V149.526M172 136.316H183.5M172 149.526V162.737M172 149.526H183.5M172 162.737V175.947M172 162.737H183.5M172 175.947V189.158M172 175.947H183.5M172 189.158V202.368M172 189.158H183.5M172 202.368V215.579M172 202.368H183.5M172 215.579V228.789M172 215.579H183.5M172 228.789V242M172 228.789H183.5M172 242H183.5M183.5 -9V4.21053M183.5 -9H195M183.5 4.21053V17.4211M183.5 4.21053H195M183.5 17.4211V30.6316M183.5 17.4211H195M183.5 30.6316V43.8421M183.5 30.6316H195M183.5 43.8421V57.0526M183.5 43.8421H195M183.5 57.0526V70.2632M183.5 57.0526H195M183.5 70.2632V83.4737M183.5 70.2632H195M183.5 83.4737V96.6842M183.5 83.4737H195M183.5 96.6842V109.895M183.5 96.6842H195M183.5 109.895V123.105M183.5 109.895H195M183.5 123.105V136.316M183.5 123.105H195M183.5 136.316V149.526M183.5 136.316H195M183.5 149.526V162.737M183.5 149.526H195M183.5 162.737V175.947M183.5 162.737H195M183.5 175.947V189.158M183.5 175.947H195M183.5 189.158V202.368M183.5 189.158H195M183.5 202.368V215.579M183.5 202.368H195M183.5 215.579V228.789M183.5 215.579H195M183.5 228.789V242M183.5 228.789H195M183.5 242H195M195 -9V4.21053M195 -9H206.5M195 4.21053V17.4211M195 4.21053H206.5M195 17.4211V30.6316M195 17.4211H206.5M195 30.6316V43.8421M195 30.6316H206.5M195 43.8421V57.0526M195 43.8421H206.5M195 57.0526V70.2632M195 57.0526H206.5M195 70.2632V83.4737M195 70.2632H206.5M195 83.4737V96.6842M195 83.4737H206.5M195 96.6842V109.895M195 96.6842H206.5M195 109.895V123.105M195 109.895H206.5M195 123.105V136.316M195 123.105H206.5M195 136.316V149.526M195 136.316H206.5M195 149.526V162.737M195 149.526H206.5M195 162.737V175.947M195 162.737H206.5M195 175.947V189.158M195 175.947H206.5M195 189.158V202.368M195 189.158H206.5M195 202.368V215.579M195 202.368H206.5M195 215.579V228.789M195 215.579H206.5M195 228.789V242M195 228.789H206.5M195 242H206.5M206.5 -9V4.21053M206.5 -9H218M206.5 4.21053V17.4211M206.5 4.21053H218M206.5 17.4211V30.6316M206.5 17.4211H218M206.5 30.6316V43.8421M206.5 30.6316H218M206.5 43.8421V57.0526M206.5 43.8421H218M206.5 57.0526V70.2632M206.5 57.0526H218M206.5 70.2632V83.4737M206.5 70.2632H218M206.5 83.4737V96.6842M206.5 83.4737H218M206.5 96.6842V109.895M206.5 96.6842H218M206.5 109.895V123.105M206.5 109.895H218M206.5 123.105V136.316M206.5 123.105H218M206.5 136.316V149.526M206.5 136.316H218M206.5 149.526V162.737M206.5 149.526H218M206.5 162.737V175.947M206.5 162.737H218M206.5 175.947V189.158M206.5 175.947H218M206.5 189.158V202.368M206.5 189.158H218M206.5 202.368V215.579M206.5 202.368H218M206.5 215.579V228.789M206.5 215.579H218M206.5 228.789V242M206.5 228.789H218M206.5 242H218M218 -9V4.21053M218 -9H229.5M218 4.21053V17.4211M218 4.21053H229.5M218 17.4211V30.6316M218 17.4211H229.5M218 30.6316V43.8421M218 30.6316H229.5M218 43.8421V57.0526M218 43.8421H229.5M218 57.0526V70.2632M218 57.0526H229.5M218 70.2632V83.4737M218 70.2632H229.5M218 83.4737V96.6842M218 83.4737H229.5M218 96.6842V109.895M218 96.6842H229.5M218 109.895V123.105M218 109.895H229.5M218 123.105V136.316M218 123.105H229.5M218 136.316V149.526M218 136.316H229.5M218 149.526V162.737M218 149.526H229.5M218 162.737V175.947M218 162.737H229.5M218 175.947V189.158M218 175.947H229.5M218 189.158V202.368M218 189.158H229.5M218 202.368V215.579M218 202.368H229.5M218 215.579V228.789M218 215.579H229.5M218 228.789V242M218 228.789H229.5M218 242H229.5M229.5 -9V4.21053M229.5 -9H241M229.5 4.21053V17.4211M229.5 4.21053H241M229.5 17.4211V30.6316M229.5 17.4211H241M229.5 30.6316V43.8421M229.5 30.6316H241M229.5 43.8421V57.0526M229.5 43.8421H241M229.5 57.0526V70.2632M229.5 57.0526H241M229.5 70.2632V83.4737M229.5 70.2632H241M229.5 83.4737V96.6842M229.5 83.4737H241M229.5 96.6842V109.895M229.5 96.6842H241M229.5 109.895V123.105M229.5 109.895H241M229.5 123.105V136.316M229.5 123.105H241M229.5 136.316V149.526M229.5 136.316H241M229.5 149.526V162.737M229.5 149.526H241M229.5 162.737V175.947M229.5 162.737H241M229.5 175.947V189.158M229.5 175.947H241M229.5 189.158V202.368M229.5 189.158H241M229.5 202.368V215.579M229.5 202.368H241M229.5 215.579V228.789M229.5 215.579H241M229.5 228.789V242M229.5 228.789H241M229.5 242H241M241 -9V4.21053M241 -9H252.5M241 4.21053V17.4211M241 4.21053H252.5M241 17.4211V30.6316M241 17.4211H252.5M241 30.6316V43.8421M241 30.6316H252.5M241 43.8421V57.0526M241 43.8421H252.5M241 57.0526V70.2632M241 57.0526H252.5M241 70.2632V83.4737M241 70.2632H252.5M241 83.4737V96.6842M241 83.4737H252.5M241 96.6842V109.895M241 96.6842H252.5M241 109.895V123.105M241 109.895H252.5M241 123.105V136.316M241 123.105H252.5M241 136.316V149.526M241 136.316H252.5M241 149.526V162.737M241 149.526H252.5M241 162.737V175.947M241 162.737H252.5M241 175.947V189.158M241 175.947H252.5M241 189.158V202.368M241 189.158H252.5M241 202.368V215.579M241 202.368H252.5M241 215.579V228.789M241 215.579H252.5M241 228.789V242M241 228.789H252.5M241 242H252.5M252.5 -9V4.21053M252.5 -9H264M252.5 4.21053V17.4211M252.5 4.21053H264M252.5 17.4211V30.6316M252.5 17.4211H264M252.5 30.6316V43.8421M252.5 30.6316H264M252.5 43.8421V57.0526M252.5 43.8421H264M252.5 57.0526V70.2632M252.5 57.0526H264M252.5 70.2632V83.4737M252.5 70.2632H264M252.5 83.4737V96.6842M252.5 83.4737H264M252.5 96.6842V109.895M252.5 96.6842H264M252.5 109.895V123.105M252.5 109.895H264M252.5 123.105V136.316M252.5 123.105H264M252.5 136.316V149.526M252.5 136.316H264M252.5 149.526V162.737M252.5 149.526H264M252.5 162.737V175.947M252.5 162.737H264M252.5 175.947V189.158M252.5 175.947H264M252.5 189.158V202.368M252.5 189.158H264M252.5 202.368V215.579M252.5 202.368H264M252.5 215.579V228.789M252.5 215.579H264M252.5 228.789V242M252.5 228.789H264M252.5 242H264M264 -9V4.21053M264 -9H275.5M264 4.21053V17.4211M264 4.21053H275.5M264 17.4211V30.6316M264 17.4211H275.5M264 30.6316V43.8421M264 30.6316H275.5M264 43.8421V57.0526M264 43.8421H275.5M264 57.0526V70.2632M264 57.0526H275.5M264 70.2632V83.4737M264 70.2632H275.5M264 83.4737V96.6842M264 83.4737H275.5M264 96.6842V109.895M264 96.6842H275.5M264 109.895V123.105M264 109.895H275.5M264 123.105V136.316M264 123.105H275.5M264 136.316V149.526M264 136.316H275.5M264 149.526V162.737M264 149.526H275.5M264 162.737V175.947M264 162.737H275.5M264 175.947V189.158M264 175.947H275.5M264 189.158V202.368M264 189.158H275.5M264 202.368V215.579M264 202.368H275.5M264 215.579V228.789M264 215.579H275.5M264 228.789V242M264 228.789H275.5M264 242H275.5M275.5 -9V4.21053M275.5 -9H287M275.5 4.21053V17.4211M275.5 4.21053H287M275.5 17.4211V30.6316M275.5 17.4211H287M275.5 30.6316V43.8421M275.5 30.6316H287M275.5 43.8421V57.0526M275.5 43.8421H287M275.5 57.0526V70.2632M275.5 57.0526H287M275.5 70.2632V83.4737M275.5 70.2632H287M275.5 83.4737V96.6842M275.5 83.4737H287M275.5 96.6842V109.895M275.5 96.6842H287M275.5 109.895V123.105M275.5 109.895H287M275.5 123.105V136.316M275.5 123.105H287M275.5 136.316V149.526M275.5 136.316H287M275.5 149.526V162.737M275.5 149.526H287M275.5 162.737V175.947M275.5 162.737H287M275.5 175.947V189.158M275.5 175.947H287M275.5 189.158V202.368M275.5 189.158H287M275.5 202.368V215.579M275.5 202.368H287M275.5 215.579V228.789M275.5 215.579H287M275.5 228.789V242M275.5 228.789H287M275.5 242H287M287 -9V4.21053M287 -9H298.5M287 4.21053V17.4211M287 4.21053H298.5M287 17.4211V30.6316M287 17.4211H298.5M287 30.6316V43.8421M287 30.6316H298.5M287 43.8421V57.0526M287 43.8421H298.5M287 57.0526V70.2632M287 57.0526H298.5M287 70.2632V83.4737M287 70.2632H298.5M287 83.4737V96.6842M287 83.4737H298.5M287 96.6842V109.895M287 96.6842H298.5M287 109.895V123.105M287 109.895H298.5M287 123.105V136.316M287 123.105H298.5M287 136.316V149.526M287 136.316H298.5M287 149.526V162.737M287 149.526H298.5M287 162.737V175.947M287 162.737H298.5M287 175.947V189.158M287 175.947H298.5M287 189.158V202.368M287 189.158H298.5M287 202.368V215.579M287 202.368H298.5M287 215.579V228.789M287 215.579H298.5M287 228.789V242M287 228.789H298.5M287 242H298.5M298.5 -9V4.21053M298.5 -9H310M298.5 4.21053V17.4211M298.5 4.21053H310M298.5 17.4211V30.6316M298.5 17.4211H310M298.5 30.6316V43.8421M298.5 30.6316H310M298.5 43.8421V57.0526M298.5 43.8421H310M298.5 57.0526V70.2632M298.5 57.0526H310M298.5 70.2632V83.4737M298.5 70.2632H310M298.5 83.4737V96.6842M298.5 83.4737H310M298.5 96.6842V109.895M298.5 96.6842H310M298.5 109.895V123.105M298.5 109.895H310M298.5 123.105V136.316M298.5 123.105H310M298.5 136.316V149.526M298.5 136.316H310M298.5 149.526V162.737M298.5 149.526H310M298.5 162.737V175.947M298.5 162.737H310M298.5 175.947V189.158M298.5 175.947H310M298.5 189.158V202.368M298.5 189.158H310M298.5 202.368V215.579M298.5 202.368H310M298.5 215.579V228.789M298.5 215.579H310M298.5 228.789V242M298.5 228.789H310M298.5 242H310M310 -9V4.21053M310 -9H321.5M310 4.21053V17.4211M310 4.21053H321.5M310 17.4211V30.6316M310 17.4211H321.5M310 30.6316V43.8421M310 30.6316H321.5M310 43.8421V57.0526M310 43.8421H321.5M310 57.0526V70.2632M310 57.0526H321.5M310 70.2632V83.4737M310 70.2632H321.5M310 83.4737V96.6842M310 83.4737H321.5M310 96.6842V109.895M310 96.6842H321.5M310 109.895V123.105M310 109.895H321.5M310 123.105V136.316M310 123.105H321.5M310 136.316V149.526M310 136.316H321.5M310 149.526V162.737M310 149.526H321.5M310 162.737V175.947M310 162.737H321.5M310 175.947V189.158M310 175.947H321.5M310 189.158V202.368M310 189.158H321.5M310 202.368V215.579M310 202.368H321.5M310 215.579V228.789M310 215.579H321.5M310 228.789V242M310 228.789H321.5M310 242H321.5M321.5 -9V4.21053M321.5 -9H333M321.5 4.21053V17.4211M321.5 4.21053H333M321.5 17.4211V30.6316M321.5 17.4211H333M321.5 30.6316V43.8421M321.5 30.6316H333M321.5 43.8421V57.0526M321.5 43.8421H333M321.5 57.0526V70.2632M321.5 57.0526H333M321.5 70.2632V83.4737M321.5 70.2632H333M321.5 83.4737V96.6842M321.5 83.4737H333M321.5 96.6842V109.895M321.5 96.6842H333M321.5 109.895V123.105M321.5 109.895H333M321.5 123.105V136.316M321.5 123.105H333M321.5 136.316V149.526M321.5 136.316H333M321.5 149.526V162.737M321.5 149.526H333M321.5 162.737V175.947M321.5 162.737H333M321.5 175.947V189.158M321.5 175.947H333M321.5 189.158V202.368M321.5 189.158H333M321.5 202.368V215.579M321.5 202.368H333M321.5 215.579V228.789M321.5 215.579H333M321.5 228.789V242M321.5 228.789H333M321.5 242H333M333 -9V4.21053M333 -9H344.5M333 4.21053V17.4211M333 4.21053H344.5M333 17.4211V30.6316M333 17.4211H344.5M333 30.6316V43.8421M333 30.6316H344.5M333 43.8421V57.0526M333 43.8421H344.5M333 57.0526V70.2632M333 57.0526H344.5M333 70.2632V83.4737M333 70.2632H344.5M333 83.4737V96.6842M333 83.4737H344.5M333 96.6842V109.895M333 96.6842H344.5M333 109.895V123.105M333 109.895H344.5M333 123.105V136.316M333 123.105H344.5M333 136.316V149.526M333 136.316H344.5M333 149.526V162.737M333 149.526H344.5M333 162.737V175.947M333 162.737H344.5M333 175.947V189.158M333 175.947H344.5M333 189.158V202.368M333 189.158H344.5M333 202.368V215.579M333 202.368H344.5M333 215.579V228.789M333 215.579H344.5M333 228.789V242M333 228.789H344.5M333 242H344.5M344.5 -9V4.21053M344.5 -9H356V4.21053M344.5 4.21053V17.4211M344.5 4.21053H356M344.5 17.4211V30.6316M344.5 17.4211H356M344.5 30.6316V43.8421M344.5 30.6316H356M344.5 43.8421V57.0526M344.5 43.8421H356M344.5 57.0526V70.2632M344.5 57.0526H356M344.5 70.2632V83.4737M344.5 70.2632H356M344.5 83.4737V96.6842M344.5 83.4737H356M344.5 96.6842V109.895M344.5 96.6842H356M344.5 109.895V123.105M344.5 109.895H356M344.5 123.105V136.316M344.5 123.105H356M344.5 136.316V149.526M344.5 136.316H356M344.5 149.526V162.737M344.5 149.526H356M344.5 162.737V175.947M344.5 162.737H356M344.5 175.947V189.158M344.5 175.947H356M344.5 189.158V202.368M344.5 189.158H356M344.5 202.368V215.579M344.5 202.368H356M344.5 215.579V228.789M344.5 215.579H356M344.5 228.789V242M344.5 228.789H356M344.5 242H356V228.789M356 4.21053V17.4211M356 17.4211V30.6316M356 30.6316V43.8421M356 43.8421V57.0526M356 57.0526V70.2632M356 70.2632V83.4737M356 83.4737V96.6842M356 96.6842V109.895M356 109.895V123.105M356 123.105V136.316M356 136.316V149.526M356 149.526V162.737M356 162.737V175.947M356 175.947V189.158M356 189.158V202.368M356 202.368V215.579M356 215.579V228.789" stroke="url(#paint0_radial_6435_59475)" stroke-width="0.472727"/>
<g filter="url(#filter0_d_6435_59475)">
<path d="M66 77C66 72.0294 70.0294 68 75 68H180C184.971 68 189 72.0294 189 77V98H75C70.0294 98 66 93.9706 66 89V77Z" fill="white"/>
<path d="M75 68.5H180C184.694 68.5 188.5 72.3056 188.5 77V97.5H75C70.3056 97.5 66.5 93.6944 66.5 89V77C66.5 72.3056 70.3056 68.5 75 68.5Z" stroke="#D9D8D6"/>
<rect x="78" y="78" width="99" height="10" rx="5" fill="#EFEFEF"/>
</g>
<g filter="url(#filter1_d_6435_59475)">
<path d="M17 117C17 112.029 21.0294 108 26 108H131C135.971 108 140 112.029 140 117V129C140 133.971 135.971 138 131 138H17V117Z" fill="#FAFAFA"/>
<path d="M26 108.5H131C135.694 108.5 139.5 112.306 139.5 117V129C139.5 133.694 135.694 137.5 131 137.5H17.5V117C17.5 112.306 21.3056 108.5 26 108.5Z" stroke="#D9D8D6"/>
<rect x="29" y="118" width="99" height="10" rx="5" fill="#EFEFEF"/>
</g>
</g>
<defs>
<filter id="filter0_d_6435_59475" x="56" y="61" width="143" height="50" filterUnits="userSpaceOnUse" color-interpolation-filters="sRGB">
<feFlood flood-opacity="0" result="BackgroundImageFix"/>
<feColorMatrix in="SourceAlpha" type="matrix" values="0 0 0 0 0 0 0 0 0 0 0 0 0 0 0 0 0 0 127 0" result="hardAlpha"/>
<feOffset dy="3"/>
<feGaussianBlur stdDeviation="5"/>
<feComposite in2="hardAlpha" operator="out"/>
<feColorMatrix type="matrix" values="0 0 0 0 0 0 0 0 0 0 0 0 0 0 0 0 0 0 0.08 0"/>
<feBlend mode="normal" in2="BackgroundImageFix" result="effect1_dropShadow_6435_59475"/>
<feBlend mode="normal" in="SourceGraphic" in2="effect1_dropShadow_6435_59475" result="shape"/>
</filter>
<filter id="filter1_d_6435_59475" x="7" y="101" width="143" height="50" filterUnits="userSpaceOnUse" color-interpolation-filters="sRGB">
<feFlood flood-opacity="0" result="BackgroundImageFix"/>
<feColorMatrix in="SourceAlpha" type="matrix" values="0 0 0 0 0 0 0 0 0 0 0 0 0 0 0 0 0 0 127 0" result="hardAlpha"/>
<feOffset dy="3"/>
<feGaussianBlur stdDeviation="5"/>
<feComposite in2="hardAlpha" operator="out"/>
<feColorMatrix type="matrix" values="0 0 0 0 0 0 0 0 0 0 0 0 0 0 0 0 0 0 0.08 0"/>
<feBlend mode="normal" in2="BackgroundImageFix" result="effect1_dropShadow_6435_59475"/>
<feBlend mode="normal" in="SourceGraphic" in2="effect1_dropShadow_6435_59475" result="shape"/>
</filter>
<radialGradient id="paint0_radial_6435_59475" cx="0" cy="0" r="1" gradientUnits="userSpaceOnUse" gradientTransform="translate(103 116.5) rotate(90) scale(71.5 144.139)">
<stop stop-color="#8D8D8D"/>
<stop offset="1" stop-color="white" stop-opacity="0"/>
</radialGradient>
<clipPath id="clip0_6435_59475">
<rect width="206" height="206" fill="white"/>
</clipPath>
</defs>
</svg>
