<svg width="432" height="217" viewBox="0 0 432 217" fill="none" xmlns="http://www.w3.org/2000/svg">
<path opacity="0.6" d="M10.7727 1H1V12.3158M10.7727 1V12.3158M10.7727 1H20.5455M10.7727 12.3158H1M10.7727 12.3158V23.6316M10.7727 12.3158H20.5455M1 12.3158V23.6316M10.7727 23.6316H1M10.7727 23.6316V34.9474M10.7727 23.6316H20.5455M1 23.6316V34.9474M10.7727 34.9474H1M10.7727 34.9474V46.2632M10.7727 34.9474H20.5455M1 34.9474V46.2632M10.7727 46.2632H1M10.7727 46.2632V57.5789M10.7727 46.2632H20.5455M1 46.2632V57.5789M10.7727 57.5789H1M10.7727 57.5789V68.8947M10.7727 57.5789H20.5455M1 57.5789V68.8947M10.7727 68.8947H1M10.7727 68.8947V80.2105M10.7727 68.8947H20.5455M1 68.8947V80.2105M10.7727 80.2105H1M10.7727 80.2105V91.5263M10.7727 80.2105H20.5455M1 80.2105V91.5263M10.7727 91.5263H1M10.7727 91.5263V102.842M10.7727 91.5263H20.5455M1 91.5263V102.842M10.7727 102.842H1M10.7727 102.842V114.158M10.7727 102.842H20.5455M1 102.842V114.158M10.7727 114.158H1M10.7727 114.158V125.474M10.7727 114.158H20.5455M1 114.158V125.474M10.7727 125.474H1M10.7727 125.474V136.789M10.7727 125.474H20.5455M1 125.474V136.789M10.7727 136.789H1M10.7727 136.789V148.105M10.7727 136.789H20.5455M1 136.789V148.105M10.7727 148.105H1M10.7727 148.105V159.421M10.7727 148.105H20.5455M1 148.105V159.421M10.7727 159.421H1M10.7727 159.421V170.737M10.7727 159.421H20.5455M1 159.421V170.737M10.7727 170.737H1M10.7727 170.737V182.053M10.7727 170.737H20.5455M1 170.737V182.053M10.7727 182.053H1M10.7727 182.053V193.368M10.7727 182.053H20.5455M1 182.053V193.368M10.7727 193.368H1M10.7727 193.368V204.684M10.7727 193.368H20.5455M1 193.368V204.684M10.7727 204.684H1M10.7727 204.684V216M10.7727 204.684H20.5455M1 204.684V216H10.7727M10.7727 216H20.5455M20.5455 1V12.3158M20.5455 1H30.3182M20.5455 12.3158V23.6316M20.5455 12.3158H30.3182M20.5455 23.6316V34.9474M20.5455 23.6316H30.3182M20.5455 34.9474V46.2632M20.5455 34.9474H30.3182M20.5455 46.2632V57.5789M20.5455 46.2632H30.3182M20.5455 57.5789V68.8947M20.5455 57.5789H30.3182M20.5455 68.8947V80.2105M20.5455 68.8947H30.3182M20.5455 80.2105V91.5263M20.5455 80.2105H30.3182M20.5455 91.5263V102.842M20.5455 91.5263H30.3182M20.5455 102.842V114.158M20.5455 102.842H30.3182M20.5455 114.158V125.474M20.5455 114.158H30.3182M20.5455 125.474V136.789M20.5455 125.474H30.3182M20.5455 136.789V148.105M20.5455 136.789H30.3182M20.5455 148.105V159.421M20.5455 148.105H30.3182M20.5455 159.421V170.737M20.5455 159.421H30.3182M20.5455 170.737V182.053M20.5455 170.737H30.3182M20.5455 182.053V193.368M20.5455 182.053H30.3182M20.5455 193.368V204.684M20.5455 193.368H30.3182M20.5455 204.684V216M20.5455 204.684H30.3182M20.5455 216H30.3182M30.3182 1V12.3158M30.3182 1H40.0909M30.3182 12.3158V23.6316M30.3182 12.3158H40.0909M30.3182 23.6316V34.9474M30.3182 23.6316H40.0909M30.3182 34.9474V46.2632M30.3182 34.9474H40.0909M30.3182 46.2632V57.5789M30.3182 46.2632H40.0909M30.3182 57.5789V68.8947M30.3182 57.5789H40.0909M30.3182 68.8947V80.2105M30.3182 68.8947H40.0909M30.3182 80.2105V91.5263M30.3182 80.2105H40.0909M30.3182 91.5263V102.842M30.3182 91.5263H40.0909M30.3182 102.842V114.158M30.3182 102.842H40.0909M30.3182 114.158V125.474M30.3182 114.158H40.0909M30.3182 125.474V136.789M30.3182 125.474H40.0909M30.3182 136.789V148.105M30.3182 136.789H40.0909M30.3182 148.105V159.421M30.3182 148.105H40.0909M30.3182 159.421V170.737M30.3182 159.421H40.0909M30.3182 170.737V182.053M30.3182 170.737H40.0909M30.3182 182.053V193.368M30.3182 182.053H40.0909M30.3182 193.368V204.684M30.3182 193.368H40.0909M30.3182 204.684V216M30.3182 204.684H40.0909M30.3182 216H40.0909M40.0909 1V12.3158M40.0909 1H49.8636M40.0909 12.3158V23.6316M40.0909 12.3158H49.8636M40.0909 23.6316V34.9474M40.0909 23.6316H49.8636M40.0909 34.9474V46.2632M40.0909 34.9474H49.8636M40.0909 46.2632V57.5789M40.0909 46.2632H49.8636M40.0909 57.5789V68.8947M40.0909 57.5789H49.8636M40.0909 68.8947V80.2105M40.0909 68.8947H49.8636M40.0909 80.2105V91.5263M40.0909 80.2105H49.8636M40.0909 91.5263V102.842M40.0909 91.5263H49.8636M40.0909 102.842V114.158M40.0909 102.842H49.8636M40.0909 114.158V125.474M40.0909 114.158H49.8636M40.0909 125.474V136.789M40.0909 125.474H49.8636M40.0909 136.789V148.105M40.0909 136.789H49.8636M40.0909 148.105V159.421M40.0909 148.105H49.8636M40.0909 159.421V170.737M40.0909 159.421H49.8636M40.0909 170.737V182.053M40.0909 170.737H49.8636M40.0909 182.053V193.368M40.0909 182.053H49.8636M40.0909 193.368V204.684M40.0909 193.368H49.8636M40.0909 204.684V216M40.0909 204.684H49.8636M40.0909 216H49.8636M49.8636 1V12.3158M49.8636 1H59.6364M49.8636 12.3158V23.6316M49.8636 12.3158H59.6364M49.8636 23.6316V34.9474M49.8636 23.6316H59.6364M49.8636 34.9474V46.2632M49.8636 34.9474H59.6364M49.8636 46.2632V57.5789M49.8636 46.2632H59.6364M49.8636 57.5789V68.8947M49.8636 57.5789H59.6364M49.8636 68.8947V80.2105M49.8636 68.8947H59.6364M49.8636 80.2105V91.5263M49.8636 80.2105H59.6364M49.8636 91.5263V102.842M49.8636 91.5263H59.6364M49.8636 102.842V114.158M49.8636 102.842H59.6364M49.8636 114.158V125.474M49.8636 114.158H59.6364M49.8636 125.474V136.789M49.8636 125.474H59.6364M49.8636 136.789V148.105M49.8636 136.789H59.6364M49.8636 148.105V159.421M49.8636 148.105H59.6364M49.8636 159.421V170.737M49.8636 159.421H59.6364M49.8636 170.737V182.053M49.8636 170.737H59.6364M49.8636 182.053V193.368M49.8636 182.053H59.6364M49.8636 193.368V204.684M49.8636 193.368H59.6364M49.8636 204.684V216M49.8636 204.684H59.6364M49.8636 216H59.6364M59.6364 1V12.3158M59.6364 1H69.4091M59.6364 12.3158V23.6316M59.6364 12.3158H69.4091M59.6364 23.6316V34.9474M59.6364 23.6316H69.4091M59.6364 34.9474V46.2632M59.6364 34.9474H69.4091M59.6364 46.2632V57.5789M59.6364 46.2632H69.4091M59.6364 57.5789V68.8947M59.6364 57.5789H69.4091M59.6364 68.8947V80.2105M59.6364 68.8947H69.4091M59.6364 80.2105V91.5263M59.6364 80.2105H69.4091M59.6364 91.5263V102.842M59.6364 91.5263H69.4091M59.6364 102.842V114.158M59.6364 102.842H69.4091M59.6364 114.158V125.474M59.6364 114.158H69.4091M59.6364 125.474V136.789M59.6364 125.474H69.4091M59.6364 136.789V148.105M59.6364 136.789H69.4091M59.6364 148.105V159.421M59.6364 148.105H69.4091M59.6364 159.421V170.737M59.6364 159.421H69.4091M59.6364 170.737V182.053M59.6364 170.737H69.4091M59.6364 182.053V193.368M59.6364 182.053H69.4091M59.6364 193.368V204.684M59.6364 193.368H69.4091M59.6364 204.684V216M59.6364 204.684H69.4091M59.6364 216H69.4091M69.4091 1V12.3158M69.4091 1H79.1818M69.4091 12.3158V23.6316M69.4091 12.3158H79.1818M69.4091 23.6316V34.9474M69.4091 23.6316H79.1818M69.4091 34.9474V46.2632M69.4091 34.9474H79.1818M69.4091 46.2632V57.5789M69.4091 46.2632H79.1818M69.4091 57.5789V68.8947M69.4091 57.5789H79.1818M69.4091 68.8947V80.2105M69.4091 68.8947H79.1818M69.4091 80.2105V91.5263M69.4091 80.2105H79.1818M69.4091 91.5263V102.842M69.4091 91.5263H79.1818M69.4091 102.842V114.158M69.4091 102.842H79.1818M69.4091 114.158V125.474M69.4091 114.158H79.1818M69.4091 125.474V136.789M69.4091 125.474H79.1818M69.4091 136.789V148.105M69.4091 136.789H79.1818M69.4091 148.105V159.421M69.4091 148.105H79.1818M69.4091 159.421V170.737M69.4091 159.421H79.1818M69.4091 170.737V182.053M69.4091 170.737H79.1818M69.4091 182.053V193.368M69.4091 182.053H79.1818M69.4091 193.368V204.684M69.4091 193.368H79.1818M69.4091 204.684V216M69.4091 204.684H79.1818M69.4091 216H79.1818M79.1818 1V12.3158M79.1818 1H88.9545M79.1818 12.3158V23.6316M79.1818 12.3158H88.9545M79.1818 23.6316V34.9474M79.1818 23.6316H88.9545M79.1818 34.9474V46.2632M79.1818 34.9474H88.9545M79.1818 46.2632V57.5789M79.1818 46.2632H88.9545M79.1818 57.5789V68.8947M79.1818 57.5789H88.9545M79.1818 68.8947V80.2105M79.1818 68.8947H88.9545M79.1818 80.2105V91.5263M79.1818 80.2105H88.9545M79.1818 91.5263V102.842M79.1818 91.5263H88.9545M79.1818 102.842V114.158M79.1818 102.842H88.9545M79.1818 114.158V125.474M79.1818 114.158H88.9545M79.1818 125.474V136.789M79.1818 125.474H88.9545M79.1818 136.789V148.105M79.1818 136.789H88.9545M79.1818 148.105V159.421M79.1818 148.105H88.9545M79.1818 159.421V170.737M79.1818 159.421H88.9545M79.1818 170.737V182.053M79.1818 170.737H88.9545M79.1818 182.053V193.368M79.1818 182.053H88.9545M79.1818 193.368V204.684M79.1818 193.368H88.9545M79.1818 204.684V216M79.1818 204.684H88.9545M79.1818 216H88.9545M88.9545 1V12.3158M88.9545 1H98.7273M88.9545 12.3158V23.6316M88.9545 12.3158H98.7273M88.9545 23.6316V34.9474M88.9545 23.6316H98.7273M88.9545 34.9474V46.2632M88.9545 34.9474H98.7273M88.9545 46.2632V57.5789M88.9545 46.2632H98.7273M88.9545 57.5789V68.8947M88.9545 57.5789H98.7273M88.9545 68.8947V80.2105M88.9545 68.8947H98.7273M88.9545 80.2105V91.5263M88.9545 80.2105H98.7273M88.9545 91.5263V102.842M88.9545 91.5263H98.7273M88.9545 102.842V114.158M88.9545 102.842H98.7273M88.9545 114.158V125.474M88.9545 114.158H98.7273M88.9545 125.474V136.789M88.9545 125.474H98.7273M88.9545 136.789V148.105M88.9545 136.789H98.7273M88.9545 148.105V159.421M88.9545 148.105H98.7273M88.9545 159.421V170.737M88.9545 159.421H98.7273M88.9545 170.737V182.053M88.9545 170.737H98.7273M88.9545 182.053V193.368M88.9545 182.053H98.7273M88.9545 193.368V204.684M88.9545 193.368H98.7273M88.9545 204.684V216M88.9545 204.684H98.7273M88.9545 216H98.7273M98.7273 1V12.3158M98.7273 1H108.5M98.7273 12.3158V23.6316M98.7273 12.3158H108.5M98.7273 23.6316V34.9474M98.7273 23.6316H108.5M98.7273 34.9474V46.2632M98.7273 34.9474H108.5M98.7273 46.2632V57.5789M98.7273 46.2632H108.5M98.7273 57.5789V68.8947M98.7273 57.5789H108.5M98.7273 68.8947V80.2105M98.7273 68.8947H108.5M98.7273 80.2105V91.5263M98.7273 80.2105H108.5M98.7273 91.5263V102.842M98.7273 91.5263H108.5M98.7273 102.842V114.158M98.7273 102.842H108.5M98.7273 114.158V125.474M98.7273 114.158H108.5M98.7273 125.474V136.789M98.7273 125.474H108.5M98.7273 136.789V148.105M98.7273 136.789H108.5M98.7273 148.105V159.421M98.7273 148.105H108.5M98.7273 159.421V170.737M98.7273 159.421H108.5M98.7273 170.737V182.053M98.7273 170.737H108.5M98.7273 182.053V193.368M98.7273 182.053H108.5M98.7273 193.368V204.684M98.7273 193.368H108.5M98.7273 204.684V216M98.7273 204.684H108.5M98.7273 216H108.5M108.5 1V12.3158M108.5 1H118.273M108.5 12.3158V23.6316M108.5 12.3158H118.273M108.5 23.6316V34.9474M108.5 23.6316H118.273M108.5 34.9474V46.2632M108.5 34.9474H118.273M108.5 46.2632V57.5789M108.5 46.2632H118.273M108.5 57.5789V68.8947M108.5 57.5789H118.273M108.5 68.8947V80.2105M108.5 68.8947H118.273M108.5 80.2105V91.5263M108.5 80.2105H118.273M108.5 91.5263V102.842M108.5 91.5263H118.273M108.5 102.842V114.158M108.5 102.842H118.273M108.5 114.158V125.474M108.5 114.158H118.273M108.5 125.474V136.789M108.5 125.474H118.273M108.5 136.789V148.105M108.5 136.789H118.273M108.5 148.105V159.421M108.5 148.105H118.273M108.5 159.421V170.737M108.5 159.421H118.273M108.5 170.737V182.053M108.5 170.737H118.273M108.5 182.053V193.368M108.5 182.053H118.273M108.5 193.368V204.684M108.5 193.368H118.273M108.5 204.684V216M108.5 204.684H118.273M108.5 216H118.273M118.273 1V12.3158M118.273 1H128.045M118.273 12.3158V23.6316M118.273 12.3158H128.045M118.273 23.6316V34.9474M118.273 23.6316H128.045M118.273 34.9474V46.2632M118.273 34.9474H128.045M118.273 46.2632V57.5789M118.273 46.2632H128.045M118.273 57.5789V68.8947M118.273 57.5789H128.045M118.273 68.8947V80.2105M118.273 68.8947H128.045M118.273 80.2105V91.5263M118.273 80.2105H128.045M118.273 91.5263V102.842M118.273 91.5263H128.045M118.273 102.842V114.158M118.273 102.842H128.045M118.273 114.158V125.474M118.273 114.158H128.045M118.273 125.474V136.789M118.273 125.474H128.045M118.273 136.789V148.105M118.273 136.789H128.045M118.273 148.105V159.421M118.273 148.105H128.045M118.273 159.421V170.737M118.273 159.421H128.045M118.273 170.737V182.053M118.273 170.737H128.045M118.273 182.053V193.368M118.273 182.053H128.045M118.273 193.368V204.684M118.273 193.368H128.045M118.273 204.684V216M118.273 204.684H128.045M118.273 216H128.045M128.045 1V12.3158M128.045 1H137.818M128.045 12.3158V23.6316M128.045 12.3158H137.818M128.045 23.6316V34.9474M128.045 23.6316H137.818M128.045 34.9474V46.2632M128.045 34.9474H137.818M128.045 46.2632V57.5789M128.045 46.2632H137.818M128.045 57.5789V68.8947M128.045 57.5789H137.818M128.045 68.8947V80.2105M128.045 68.8947H137.818M128.045 80.2105V91.5263M128.045 80.2105H137.818M128.045 91.5263V102.842M128.045 91.5263H137.818M128.045 102.842V114.158M128.045 102.842H137.818M128.045 114.158V125.474M128.045 114.158H137.818M128.045 125.474V136.789M128.045 125.474H137.818M128.045 136.789V148.105M128.045 136.789H137.818M128.045 148.105V159.421M128.045 148.105H137.818M128.045 159.421V170.737M128.045 159.421H137.818M128.045 170.737V182.053M128.045 170.737H137.818M128.045 182.053V193.368M128.045 182.053H137.818M128.045 193.368V204.684M128.045 193.368H137.818M128.045 204.684V216M128.045 204.684H137.818M128.045 216H137.818M137.818 1V12.3158M137.818 1H147.591M137.818 12.3158V23.6316M137.818 12.3158H147.591M137.818 23.6316V34.9474M137.818 23.6316H147.591M137.818 34.9474V46.2632M137.818 34.9474H147.591M137.818 46.2632V57.5789M137.818 46.2632H147.591M137.818 57.5789V68.8947M137.818 57.5789H147.591M137.818 68.8947V80.2105M137.818 68.8947H147.591M137.818 80.2105V91.5263M137.818 80.2105H147.591M137.818 91.5263V102.842M137.818 91.5263H147.591M137.818 102.842V114.158M137.818 102.842H147.591M137.818 114.158V125.474M137.818 114.158H147.591M137.818 125.474V136.789M137.818 125.474H147.591M137.818 136.789V148.105M137.818 136.789H147.591M137.818 148.105V159.421M137.818 148.105H147.591M137.818 159.421V170.737M137.818 159.421H147.591M137.818 170.737V182.053M137.818 170.737H147.591M137.818 182.053V193.368M137.818 182.053H147.591M137.818 193.368V204.684M137.818 193.368H147.591M137.818 204.684V216M137.818 204.684H147.591M137.818 216H147.591M147.591 1V12.3158M147.591 1H157.364M147.591 12.3158V23.6316M147.591 12.3158H157.364M147.591 23.6316V34.9474M147.591 23.6316H157.364M147.591 34.9474V46.2632M147.591 34.9474H157.364M147.591 46.2632V57.5789M147.591 46.2632H157.364M147.591 57.5789V68.8947M147.591 57.5789H157.364M147.591 68.8947V80.2105M147.591 68.8947H157.364M147.591 80.2105V91.5263M147.591 80.2105H157.364M147.591 91.5263V102.842M147.591 91.5263H157.364M147.591 102.842V114.158M147.591 102.842H157.364M147.591 114.158V125.474M147.591 114.158H157.364M147.591 125.474V136.789M147.591 125.474H157.364M147.591 136.789V148.105M147.591 136.789H157.364M147.591 148.105V159.421M147.591 148.105H157.364M147.591 159.421V170.737M147.591 159.421H157.364M147.591 170.737V182.053M147.591 170.737H157.364M147.591 182.053V193.368M147.591 182.053H157.364M147.591 193.368V204.684M147.591 193.368H157.364M147.591 204.684V216M147.591 204.684H157.364M147.591 216H157.364M157.364 1V12.3158M157.364 1H167.136M157.364 12.3158V23.6316M157.364 12.3158H167.136M157.364 23.6316V34.9474M157.364 23.6316H167.136M157.364 34.9474V46.2632M157.364 34.9474H167.136M157.364 46.2632V57.5789M157.364 46.2632H167.136M157.364 57.5789V68.8947M157.364 57.5789H167.136M157.364 68.8947V80.2105M157.364 68.8947H167.136M157.364 80.2105V91.5263M157.364 80.2105H167.136M157.364 91.5263V102.842M157.364 91.5263H167.136M157.364 102.842V114.158M157.364 102.842H167.136M157.364 114.158V125.474M157.364 114.158H167.136M157.364 125.474V136.789M157.364 125.474H167.136M157.364 136.789V148.105M157.364 136.789H167.136M157.364 148.105V159.421M157.364 148.105H167.136M157.364 159.421V170.737M157.364 159.421H167.136M157.364 170.737V182.053M157.364 170.737H167.136M157.364 182.053V193.368M157.364 182.053H167.136M157.364 193.368V204.684M157.364 193.368H167.136M157.364 204.684V216M157.364 204.684H167.136M157.364 216H167.136M167.136 1V12.3158M167.136 1H176.909M167.136 12.3158V23.6316M167.136 12.3158H176.909M167.136 23.6316V34.9474M167.136 23.6316H176.909M167.136 34.9474V46.2632M167.136 34.9474H176.909M167.136 46.2632V57.5789M167.136 46.2632H176.909M167.136 57.5789V68.8947M167.136 57.5789H176.909M167.136 68.8947V80.2105M167.136 68.8947H176.909M167.136 80.2105V91.5263M167.136 80.2105H176.909M167.136 91.5263V102.842M167.136 91.5263H176.909M167.136 102.842V114.158M167.136 102.842H176.909M167.136 114.158V125.474M167.136 114.158H176.909M167.136 125.474V136.789M167.136 125.474H176.909M167.136 136.789V148.105M167.136 136.789H176.909M167.136 148.105V159.421M167.136 148.105H176.909M167.136 159.421V170.737M167.136 159.421H176.909M167.136 170.737V182.053M167.136 170.737H176.909M167.136 182.053V193.368M167.136 182.053H176.909M167.136 193.368V204.684M167.136 193.368H176.909M167.136 204.684V216M167.136 204.684H176.909M167.136 216H176.909M176.909 1V12.3158M176.909 1H186.682M176.909 12.3158V23.6316M176.909 12.3158H186.682M176.909 23.6316V34.9474M176.909 23.6316H186.682M176.909 34.9474V46.2632M176.909 34.9474H186.682M176.909 46.2632V57.5789M176.909 46.2632H186.682M176.909 57.5789V68.8947M176.909 57.5789H186.682M176.909 68.8947V80.2105M176.909 68.8947H186.682M176.909 80.2105V91.5263M176.909 80.2105H186.682M176.909 91.5263V102.842M176.909 91.5263H186.682M176.909 102.842V114.158M176.909 102.842H186.682M176.909 114.158V125.474M176.909 114.158H186.682M176.909 125.474V136.789M176.909 125.474H186.682M176.909 136.789V148.105M176.909 136.789H186.682M176.909 148.105V159.421M176.909 148.105H186.682M176.909 159.421V170.737M176.909 159.421H186.682M176.909 170.737V182.053M176.909 170.737H186.682M176.909 182.053V193.368M176.909 182.053H186.682M176.909 193.368V204.684M176.909 193.368H186.682M176.909 204.684V216M176.909 204.684H186.682M176.909 216H186.682M186.682 1V12.3158M186.682 1H196.455M186.682 12.3158V23.6316M186.682 12.3158H196.455M186.682 23.6316V34.9474M186.682 23.6316H196.455M186.682 34.9474V46.2632M186.682 34.9474H196.455M186.682 46.2632V57.5789M186.682 46.2632H196.455M186.682 57.5789V68.8947M186.682 57.5789H196.455M186.682 68.8947V80.2105M186.682 68.8947H196.455M186.682 80.2105V91.5263M186.682 80.2105H196.455M186.682 91.5263V102.842M186.682 91.5263H196.455M186.682 102.842V114.158M186.682 102.842H196.455M186.682 114.158V125.474M186.682 114.158H196.455M186.682 125.474V136.789M186.682 125.474H196.455M186.682 136.789V148.105M186.682 136.789H196.455M186.682 148.105V159.421M186.682 148.105H196.455M186.682 159.421V170.737M186.682 159.421H196.455M186.682 170.737V182.053M186.682 170.737H196.455M186.682 182.053V193.368M186.682 182.053H196.455M186.682 193.368V204.684M186.682 193.368H196.455M186.682 204.684V216M186.682 204.684H196.455M186.682 216H196.455M196.455 1V12.3158M196.455 1H206.227M196.455 12.3158V23.6316M196.455 12.3158H206.227M196.455 23.6316V34.9474M196.455 23.6316H206.227M196.455 34.9474V46.2632M196.455 34.9474H206.227M196.455 46.2632V57.5789M196.455 46.2632H206.227M196.455 57.5789V68.8947M196.455 57.5789H206.227M196.455 68.8947V80.2105M196.455 68.8947H206.227M196.455 80.2105V91.5263M196.455 80.2105H206.227M196.455 91.5263V102.842M196.455 91.5263H206.227M196.455 102.842V114.158M196.455 102.842H206.227M196.455 114.158V125.474M196.455 114.158H206.227M196.455 125.474V136.789M196.455 125.474H206.227M196.455 136.789V148.105M196.455 136.789H206.227M196.455 148.105V159.421M196.455 148.105H206.227M196.455 159.421V170.737M196.455 159.421H206.227M196.455 170.737V182.053M196.455 170.737H206.227M196.455 182.053V193.368M196.455 182.053H206.227M196.455 193.368V204.684M196.455 193.368H206.227M196.455 204.684V216M196.455 204.684H206.227M196.455 216H206.227M206.227 1V12.3158M206.227 1H216M206.227 12.3158V23.6316M206.227 12.3158H216M206.227 23.6316V34.9474M206.227 23.6316H216M206.227 34.9474V46.2632M206.227 34.9474H216M206.227 46.2632V57.5789M206.227 46.2632H216M206.227 57.5789V68.8947M206.227 57.5789H216M206.227 68.8947V80.2105M206.227 68.8947H216M206.227 80.2105V91.5263M206.227 80.2105H216M206.227 91.5263V102.842M206.227 91.5263H216M206.227 102.842V114.158M206.227 102.842H216M206.227 114.158V125.474M206.227 114.158H216M206.227 125.474V136.789M206.227 125.474H216M206.227 136.789V148.105M206.227 136.789H216M206.227 148.105V159.421M206.227 148.105H216M206.227 159.421V170.737M206.227 159.421H216M206.227 170.737V182.053M206.227 170.737H216M206.227 182.053V193.368M206.227 182.053H216M206.227 193.368V204.684M206.227 193.368H216M206.227 204.684V216M206.227 204.684H216M206.227 216H216M216 1V12.3158M216 1H225.773M216 12.3158V23.6316M216 12.3158H225.773M216 23.6316V34.9474M216 23.6316H225.773M216 34.9474V46.2632M216 34.9474H225.773M216 46.2632V57.5789M216 46.2632H225.773M216 57.5789V68.8947M216 57.5789H225.773M216 68.8947V80.2105M216 68.8947H225.773M216 80.2105V91.5263M216 80.2105H225.773M216 91.5263V102.842M216 91.5263H225.773M216 102.842V114.158M216 102.842H225.773M216 114.158V125.474M216 114.158H225.773M216 125.474V136.789M216 125.474H225.773M216 136.789V148.105M216 136.789H225.773M216 148.105V159.421M216 148.105H225.773M216 159.421V170.737M216 159.421H225.773M216 170.737V182.053M216 170.737H225.773M216 182.053V193.368M216 182.053H225.773M216 193.368V204.684M216 193.368H225.773M216 204.684V216M216 204.684H225.773M216 216H225.773M225.773 1V12.3158M225.773 1H235.545M225.773 12.3158V23.6316M225.773 12.3158H235.545M225.773 23.6316V34.9474M225.773 23.6316H235.545M225.773 34.9474V46.2632M225.773 34.9474H235.545M225.773 46.2632V57.5789M225.773 46.2632H235.545M225.773 57.5789V68.8947M225.773 57.5789H235.545M225.773 68.8947V80.2105M225.773 68.8947H235.545M225.773 80.2105V91.5263M225.773 80.2105H235.545M225.773 91.5263V102.842M225.773 91.5263H235.545M225.773 102.842V114.158M225.773 102.842H235.545M225.773 114.158V125.474M225.773 114.158H235.545M225.773 125.474V136.789M225.773 125.474H235.545M225.773 136.789V148.105M225.773 136.789H235.545M225.773 148.105V159.421M225.773 148.105H235.545M225.773 159.421V170.737M225.773 159.421H235.545M225.773 170.737V182.053M225.773 170.737H235.545M225.773 182.053V193.368M225.773 182.053H235.545M225.773 193.368V204.684M225.773 193.368H235.545M225.773 204.684V216M225.773 204.684H235.545M225.773 216H235.545M235.545 1V12.3158M235.545 1H245.318M235.545 12.3158V23.6316M235.545 12.3158H245.318M235.545 23.6316V34.9474M235.545 23.6316H245.318M235.545 34.9474V46.2632M235.545 34.9474H245.318M235.545 46.2632V57.5789M235.545 46.2632H245.318M235.545 57.5789V68.8947M235.545 57.5789H245.318M235.545 68.8947V80.2105M235.545 68.8947H245.318M235.545 80.2105V91.5263M235.545 80.2105H245.318M235.545 91.5263V102.842M235.545 91.5263H245.318M235.545 102.842V114.158M235.545 102.842H245.318M235.545 114.158V125.474M235.545 114.158H245.318M235.545 125.474V136.789M235.545 125.474H245.318M235.545 136.789V148.105M235.545 136.789H245.318M235.545 148.105V159.421M235.545 148.105H245.318M235.545 159.421V170.737M235.545 159.421H245.318M235.545 170.737V182.053M235.545 170.737H245.318M235.545 182.053V193.368M235.545 182.053H245.318M235.545 193.368V204.684M235.545 193.368H245.318M235.545 204.684V216M235.545 204.684H245.318M235.545 216H245.318M245.318 1V12.3158M245.318 1H255.091M245.318 12.3158V23.6316M245.318 12.3158H255.091M245.318 23.6316V34.9474M245.318 23.6316H255.091M245.318 34.9474V46.2632M245.318 34.9474H255.091M245.318 46.2632V57.5789M245.318 46.2632H255.091M245.318 57.5789V68.8947M245.318 57.5789H255.091M245.318 68.8947V80.2105M245.318 68.8947H255.091M245.318 80.2105V91.5263M245.318 80.2105H255.091M245.318 91.5263V102.842M245.318 91.5263H255.091M245.318 102.842V114.158M245.318 102.842H255.091M245.318 114.158V125.474M245.318 114.158H255.091M245.318 125.474V136.789M245.318 125.474H255.091M245.318 136.789V148.105M245.318 136.789H255.091M245.318 148.105V159.421M245.318 148.105H255.091M245.318 159.421V170.737M245.318 159.421H255.091M245.318 170.737V182.053M245.318 170.737H255.091M245.318 182.053V193.368M245.318 182.053H255.091M245.318 193.368V204.684M245.318 193.368H255.091M245.318 204.684V216M245.318 204.684H255.091M245.318 216H255.091M255.091 1V12.3158M255.091 1H264.864M255.091 12.3158V23.6316M255.091 12.3158H264.864M255.091 23.6316V34.9474M255.091 23.6316H264.864M255.091 34.9474V46.2632M255.091 34.9474H264.864M255.091 46.2632V57.5789M255.091 46.2632H264.864M255.091 57.5789V68.8947M255.091 57.5789H264.864M255.091 68.8947V80.2105M255.091 68.8947H264.864M255.091 80.2105V91.5263M255.091 80.2105H264.864M255.091 91.5263V102.842M255.091 91.5263H264.864M255.091 102.842V114.158M255.091 102.842H264.864M255.091 114.158V125.474M255.091 114.158H264.864M255.091 125.474V136.789M255.091 125.474H264.864M255.091 136.789V148.105M255.091 136.789H264.864M255.091 148.105V159.421M255.091 148.105H264.864M255.091 159.421V170.737M255.091 159.421H264.864M255.091 170.737V182.053M255.091 170.737H264.864M255.091 182.053V193.368M255.091 182.053H264.864M255.091 193.368V204.684M255.091 193.368H264.864M255.091 204.684V216M255.091 204.684H264.864M255.091 216H264.864M264.864 1V12.3158M264.864 1H274.636M264.864 12.3158V23.6316M264.864 12.3158H274.636M264.864 23.6316V34.9474M264.864 23.6316H274.636M264.864 34.9474V46.2632M264.864 34.9474H274.636M264.864 46.2632V57.5789M264.864 46.2632H274.636M264.864 57.5789V68.8947M264.864 57.5789H274.636M264.864 68.8947V80.2105M264.864 68.8947H274.636M264.864 80.2105V91.5263M264.864 80.2105H274.636M264.864 91.5263V102.842M264.864 91.5263H274.636M264.864 102.842V114.158M264.864 102.842H274.636M264.864 114.158V125.474M264.864 114.158H274.636M264.864 125.474V136.789M264.864 125.474H274.636M264.864 136.789V148.105M264.864 136.789H274.636M264.864 148.105V159.421M264.864 148.105H274.636M264.864 159.421V170.737M264.864 159.421H274.636M264.864 170.737V182.053M264.864 170.737H274.636M264.864 182.053V193.368M264.864 182.053H274.636M264.864 193.368V204.684M264.864 193.368H274.636M264.864 204.684V216M264.864 204.684H274.636M264.864 216H274.636M274.636 1V12.3158M274.636 1H284.409M274.636 12.3158V23.6316M274.636 12.3158H284.409M274.636 23.6316V34.9474M274.636 23.6316H284.409M274.636 34.9474V46.2632M274.636 34.9474H284.409M274.636 46.2632V57.5789M274.636 46.2632H284.409M274.636 57.5789V68.8947M274.636 57.5789H284.409M274.636 68.8947V80.2105M274.636 68.8947H284.409M274.636 80.2105V91.5263M274.636 80.2105H284.409M274.636 91.5263V102.842M274.636 91.5263H284.409M274.636 102.842V114.158M274.636 102.842H284.409M274.636 114.158V125.474M274.636 114.158H284.409M274.636 125.474V136.789M274.636 125.474H284.409M274.636 136.789V148.105M274.636 136.789H284.409M274.636 148.105V159.421M274.636 148.105H284.409M274.636 159.421V170.737M274.636 159.421H284.409M274.636 170.737V182.053M274.636 170.737H284.409M274.636 182.053V193.368M274.636 182.053H284.409M274.636 193.368V204.684M274.636 193.368H284.409M274.636 204.684V216M274.636 204.684H284.409M274.636 216H284.409M284.409 1V12.3158M284.409 1H294.182M284.409 12.3158V23.6316M284.409 12.3158H294.182M284.409 23.6316V34.9474M284.409 23.6316H294.182M284.409 34.9474V46.2632M284.409 34.9474H294.182M284.409 46.2632V57.5789M284.409 46.2632H294.182M284.409 57.5789V68.8947M284.409 57.5789H294.182M284.409 68.8947V80.2105M284.409 68.8947H294.182M284.409 80.2105V91.5263M284.409 80.2105H294.182M284.409 91.5263V102.842M284.409 91.5263H294.182M284.409 102.842V114.158M284.409 102.842H294.182M284.409 114.158V125.474M284.409 114.158H294.182M284.409 125.474V136.789M284.409 125.474H294.182M284.409 136.789V148.105M284.409 136.789H294.182M284.409 148.105V159.421M284.409 148.105H294.182M284.409 159.421V170.737M284.409 159.421H294.182M284.409 170.737V182.053M284.409 170.737H294.182M284.409 182.053V193.368M284.409 182.053H294.182M284.409 193.368V204.684M284.409 193.368H294.182M284.409 204.684V216M284.409 204.684H294.182M284.409 216H294.182M294.182 1V12.3158M294.182 1H303.955M294.182 12.3158V23.6316M294.182 12.3158H303.955M294.182 23.6316V34.9474M294.182 23.6316H303.955M294.182 34.9474V46.2632M294.182 34.9474H303.955M294.182 46.2632V57.5789M294.182 46.2632H303.955M294.182 57.5789V68.8947M294.182 57.5789H303.955M294.182 68.8947V80.2105M294.182 68.8947H303.955M294.182 80.2105V91.5263M294.182 80.2105H303.955M294.182 91.5263V102.842M294.182 91.5263H303.955M294.182 102.842V114.158M294.182 102.842H303.955M294.182 114.158V125.474M294.182 114.158H303.955M294.182 125.474V136.789M294.182 125.474H303.955M294.182 136.789V148.105M294.182 136.789H303.955M294.182 148.105V159.421M294.182 148.105H303.955M294.182 159.421V170.737M294.182 159.421H303.955M294.182 170.737V182.053M294.182 170.737H303.955M294.182 182.053V193.368M294.182 182.053H303.955M294.182 193.368V204.684M294.182 193.368H303.955M294.182 204.684V216M294.182 204.684H303.955M294.182 216H303.955M303.955 1V12.3158M303.955 1H313.727M303.955 12.3158V23.6316M303.955 12.3158H313.727M303.955 23.6316V34.9474M303.955 23.6316H313.727M303.955 34.9474V46.2632M303.955 34.9474H313.727M303.955 46.2632V57.5789M303.955 46.2632H313.727M303.955 57.5789V68.8947M303.955 57.5789H313.727M303.955 68.8947V80.2105M303.955 68.8947H313.727M303.955 80.2105V91.5263M303.955 80.2105H313.727M303.955 91.5263V102.842M303.955 91.5263H313.727M303.955 102.842V114.158M303.955 102.842H313.727M303.955 114.158V125.474M303.955 114.158H313.727M303.955 125.474V136.789M303.955 125.474H313.727M303.955 136.789V148.105M303.955 136.789H313.727M303.955 148.105V159.421M303.955 148.105H313.727M303.955 159.421V170.737M303.955 159.421H313.727M303.955 170.737V182.053M303.955 170.737H313.727M303.955 182.053V193.368M303.955 182.053H313.727M303.955 193.368V204.684M303.955 193.368H313.727M303.955 204.684V216M303.955 204.684H313.727M303.955 216H313.727M313.727 1V12.3158M313.727 1H323.5M313.727 12.3158V23.6316M313.727 12.3158H323.5M313.727 23.6316V34.9474M313.727 23.6316H323.5M313.727 34.9474V46.2632M313.727 34.9474H323.5M313.727 46.2632V57.5789M313.727 46.2632H323.5M313.727 57.5789V68.8947M313.727 57.5789H323.5M313.727 68.8947V80.2105M313.727 68.8947H323.5M313.727 80.2105V91.5263M313.727 80.2105H323.5M313.727 91.5263V102.842M313.727 91.5263H323.5M313.727 102.842V114.158M313.727 102.842H323.5M313.727 114.158V125.474M313.727 114.158H323.5M313.727 125.474V136.789M313.727 125.474H323.5M313.727 136.789V148.105M313.727 136.789H323.5M313.727 148.105V159.421M313.727 148.105H323.5M313.727 159.421V170.737M313.727 159.421H323.5M313.727 170.737V182.053M313.727 170.737H323.5M313.727 182.053V193.368M313.727 182.053H323.5M313.727 193.368V204.684M313.727 193.368H323.5M313.727 204.684V216M313.727 204.684H323.5M313.727 216H323.5M323.5 1V12.3158M323.5 1H333.273M323.5 12.3158V23.6316M323.5 12.3158H333.273M323.5 23.6316V34.9474M323.5 23.6316H333.273M323.5 34.9474V46.2632M323.5 34.9474H333.273M323.5 46.2632V57.5789M323.5 46.2632H333.273M323.5 57.5789V68.8947M323.5 57.5789H333.273M323.5 68.8947V80.2105M323.5 68.8947H333.273M323.5 80.2105V91.5263M323.5 80.2105H333.273M323.5 91.5263V102.842M323.5 91.5263H333.273M323.5 102.842V114.158M323.5 102.842H333.273M323.5 114.158V125.474M323.5 114.158H333.273M323.5 125.474V136.789M323.5 125.474H333.273M323.5 136.789V148.105M323.5 136.789H333.273M323.5 148.105V159.421M323.5 148.105H333.273M323.5 159.421V170.737M323.5 159.421H333.273M323.5 170.737V182.053M323.5 170.737H333.273M323.5 182.053V193.368M323.5 182.053H333.273M323.5 193.368V204.684M323.5 193.368H333.273M323.5 204.684V216M323.5 204.684H333.273M323.5 216H333.273M333.273 1V12.3158M333.273 1H343.045M333.273 12.3158V23.6316M333.273 12.3158H343.045M333.273 23.6316V34.9474M333.273 23.6316H343.045M333.273 34.9474V46.2632M333.273 34.9474H343.045M333.273 46.2632V57.5789M333.273 46.2632H343.045M333.273 57.5789V68.8947M333.273 57.5789H343.045M333.273 68.8947V80.2105M333.273 68.8947H343.045M333.273 80.2105V91.5263M333.273 80.2105H343.045M333.273 91.5263V102.842M333.273 91.5263H343.045M333.273 102.842V114.158M333.273 102.842H343.045M333.273 114.158V125.474M333.273 114.158H343.045M333.273 125.474V136.789M333.273 125.474H343.045M333.273 136.789V148.105M333.273 136.789H343.045M333.273 148.105V159.421M333.273 148.105H343.045M333.273 159.421V170.737M333.273 159.421H343.045M333.273 170.737V182.053M333.273 170.737H343.045M333.273 182.053V193.368M333.273 182.053H343.045M333.273 193.368V204.684M333.273 193.368H343.045M333.273 204.684V216M333.273 204.684H343.045M333.273 216H343.045M343.045 1V12.3158M343.045 1H352.818M343.045 12.3158V23.6316M343.045 12.3158H352.818M343.045 23.6316V34.9474M343.045 23.6316H352.818M343.045 34.9474V46.2632M343.045 34.9474H352.818M343.045 46.2632V57.5789M343.045 46.2632H352.818M343.045 57.5789V68.8947M343.045 57.5789H352.818M343.045 68.8947V80.2105M343.045 68.8947H352.818M343.045 80.2105V91.5263M343.045 80.2105H352.818M343.045 91.5263V102.842M343.045 91.5263H352.818M343.045 102.842V114.158M343.045 102.842H352.818M343.045 114.158V125.474M343.045 114.158H352.818M343.045 125.474V136.789M343.045 125.474H352.818M343.045 136.789V148.105M343.045 136.789H352.818M343.045 148.105V159.421M343.045 148.105H352.818M343.045 159.421V170.737M343.045 159.421H352.818M343.045 170.737V182.053M343.045 170.737H352.818M343.045 182.053V193.368M343.045 182.053H352.818M343.045 193.368V204.684M343.045 193.368H352.818M343.045 204.684V216M343.045 204.684H352.818M343.045 216H352.818M352.818 1V12.3158M352.818 1H362.591M352.818 12.3158V23.6316M352.818 12.3158H362.591M352.818 23.6316V34.9474M352.818 23.6316H362.591M352.818 34.9474V46.2632M352.818 34.9474H362.591M352.818 46.2632V57.5789M352.818 46.2632H362.591M352.818 57.5789V68.8947M352.818 57.5789H362.591M352.818 68.8947V80.2105M352.818 68.8947H362.591M352.818 80.2105V91.5263M352.818 80.2105H362.591M352.818 91.5263V102.842M352.818 91.5263H362.591M352.818 102.842V114.158M352.818 102.842H362.591M352.818 114.158V125.474M352.818 114.158H362.591M352.818 125.474V136.789M352.818 125.474H362.591M352.818 136.789V148.105M352.818 136.789H362.591M352.818 148.105V159.421M352.818 148.105H362.591M352.818 159.421V170.737M352.818 159.421H362.591M352.818 170.737V182.053M352.818 170.737H362.591M352.818 182.053V193.368M352.818 182.053H362.591M352.818 193.368V204.684M352.818 193.368H362.591M352.818 204.684V216M352.818 204.684H362.591M352.818 216H362.591M362.591 1V12.3158M362.591 1H372.364M362.591 12.3158V23.6316M362.591 12.3158H372.364M362.591 23.6316V34.9474M362.591 23.6316H372.364M362.591 34.9474V46.2632M362.591 34.9474H372.364M362.591 46.2632V57.5789M362.591 46.2632H372.364M362.591 57.5789V68.8947M362.591 57.5789H372.364M362.591 68.8947V80.2105M362.591 68.8947H372.364M362.591 80.2105V91.5263M362.591 80.2105H372.364M362.591 91.5263V102.842M362.591 91.5263H372.364M362.591 102.842V114.158M362.591 102.842H372.364M362.591 114.158V125.474M362.591 114.158H372.364M362.591 125.474V136.789M362.591 125.474H372.364M362.591 136.789V148.105M362.591 136.789H372.364M362.591 148.105V159.421M362.591 148.105H372.364M362.591 159.421V170.737M362.591 159.421H372.364M362.591 170.737V182.053M362.591 170.737H372.364M362.591 182.053V193.368M362.591 182.053H372.364M362.591 193.368V204.684M362.591 193.368H372.364M362.591 204.684V216M362.591 204.684H372.364M362.591 216H372.364M372.364 1V12.3158M372.364 1H382.136M372.364 12.3158V23.6316M372.364 12.3158H382.136M372.364 23.6316V34.9474M372.364 23.6316H382.136M372.364 34.9474V46.2632M372.364 34.9474H382.136M372.364 46.2632V57.5789M372.364 46.2632H382.136M372.364 57.5789V68.8947M372.364 57.5789H382.136M372.364 68.8947V80.2105M372.364 68.8947H382.136M372.364 80.2105V91.5263M372.364 80.2105H382.136M372.364 91.5263V102.842M372.364 91.5263H382.136M372.364 102.842V114.158M372.364 102.842H382.136M372.364 114.158V125.474M372.364 114.158H382.136M372.364 125.474V136.789M372.364 125.474H382.136M372.364 136.789V148.105M372.364 136.789H382.136M372.364 148.105V159.421M372.364 148.105H382.136M372.364 159.421V170.737M372.364 159.421H382.136M372.364 170.737V182.053M372.364 170.737H382.136M372.364 182.053V193.368M372.364 182.053H382.136M372.364 193.368V204.684M372.364 193.368H382.136M372.364 204.684V216M372.364 204.684H382.136M372.364 216H382.136M382.136 1V12.3158M382.136 1H391.909M382.136 12.3158V23.6316M382.136 12.3158H391.909M382.136 23.6316V34.9474M382.136 23.6316H391.909M382.136 34.9474V46.2632M382.136 34.9474H391.909M382.136 46.2632V57.5789M382.136 46.2632H391.909M382.136 57.5789V68.8947M382.136 57.5789H391.909M382.136 68.8947V80.2105M382.136 68.8947H391.909M382.136 80.2105V91.5263M382.136 80.2105H391.909M382.136 91.5263V102.842M382.136 91.5263H391.909M382.136 102.842V114.158M382.136 102.842H391.909M382.136 114.158V125.474M382.136 114.158H391.909M382.136 125.474V136.789M382.136 125.474H391.909M382.136 136.789V148.105M382.136 136.789H391.909M382.136 148.105V159.421M382.136 148.105H391.909M382.136 159.421V170.737M382.136 159.421H391.909M382.136 170.737V182.053M382.136 170.737H391.909M382.136 182.053V193.368M382.136 182.053H391.909M382.136 193.368V204.684M382.136 193.368H391.909M382.136 204.684V216M382.136 204.684H391.909M382.136 216H391.909M391.909 1V12.3158M391.909 1H401.682M391.909 12.3158V23.6316M391.909 12.3158H401.682M391.909 23.6316V34.9474M391.909 23.6316H401.682M391.909 34.9474V46.2632M391.909 34.9474H401.682M391.909 46.2632V57.5789M391.909 46.2632H401.682M391.909 57.5789V68.8947M391.909 57.5789H401.682M391.909 68.8947V80.2105M391.909 68.8947H401.682M391.909 80.2105V91.5263M391.909 80.2105H401.682M391.909 91.5263V102.842M391.909 91.5263H401.682M391.909 102.842V114.158M391.909 102.842H401.682M391.909 114.158V125.474M391.909 114.158H401.682M391.909 125.474V136.789M391.909 125.474H401.682M391.909 136.789V148.105M391.909 136.789H401.682M391.909 148.105V159.421M391.909 148.105H401.682M391.909 159.421V170.737M391.909 159.421H401.682M391.909 170.737V182.053M391.909 170.737H401.682M391.909 182.053V193.368M391.909 182.053H401.682M391.909 193.368V204.684M391.909 193.368H401.682M391.909 204.684V216M391.909 204.684H401.682M391.909 216H401.682M401.682 1V12.3158M401.682 1H411.455M401.682 12.3158V23.6316M401.682 12.3158H411.455M401.682 23.6316V34.9474M401.682 23.6316H411.455M401.682 34.9474V46.2632M401.682 34.9474H411.455M401.682 46.2632V57.5789M401.682 46.2632H411.455M401.682 57.5789V68.8947M401.682 57.5789H411.455M401.682 68.8947V80.2105M401.682 68.8947H411.455M401.682 80.2105V91.5263M401.682 80.2105H411.455M401.682 91.5263V102.842M401.682 91.5263H411.455M401.682 102.842V114.158M401.682 102.842H411.455M401.682 114.158V125.474M401.682 114.158H411.455M401.682 125.474V136.789M401.682 125.474H411.455M401.682 136.789V148.105M401.682 136.789H411.455M401.682 148.105V159.421M401.682 148.105H411.455M401.682 159.421V170.737M401.682 159.421H411.455M401.682 170.737V182.053M401.682 170.737H411.455M401.682 182.053V193.368M401.682 182.053H411.455M401.682 193.368V204.684M401.682 193.368H411.455M401.682 204.684V216M401.682 204.684H411.455M401.682 216H411.455M411.455 1V12.3158M411.455 1H421.227M411.455 12.3158V23.6316M411.455 12.3158H421.227M411.455 23.6316V34.9474M411.455 23.6316H421.227M411.455 34.9474V46.2632M411.455 34.9474H421.227M411.455 46.2632V57.5789M411.455 46.2632H421.227M411.455 57.5789V68.8947M411.455 57.5789H421.227M411.455 68.8947V80.2105M411.455 68.8947H421.227M411.455 80.2105V91.5263M411.455 80.2105H421.227M411.455 91.5263V102.842M411.455 91.5263H421.227M411.455 102.842V114.158M411.455 102.842H421.227M411.455 114.158V125.474M411.455 114.158H421.227M411.455 125.474V136.789M411.455 125.474H421.227M411.455 136.789V148.105M411.455 136.789H421.227M411.455 148.105V159.421M411.455 148.105H421.227M411.455 159.421V170.737M411.455 159.421H421.227M411.455 170.737V182.053M411.455 170.737H421.227M411.455 182.053V193.368M411.455 182.053H421.227M411.455 193.368V204.684M411.455 193.368H421.227M411.455 204.684V216M411.455 204.684H421.227M411.455 216H421.227M421.227 1V12.3158M421.227 1H431V12.3158M421.227 12.3158V23.6316M421.227 12.3158H431M421.227 23.6316V34.9474M421.227 23.6316H431M421.227 34.9474V46.2632M421.227 34.9474H431M421.227 46.2632V57.5789M421.227 46.2632H431M421.227 57.5789V68.8947M421.227 57.5789H431M421.227 68.8947V80.2105M421.227 68.8947H431M421.227 80.2105V91.5263M421.227 80.2105H431M421.227 91.5263V102.842M421.227 91.5263H431M421.227 102.842V114.158M421.227 102.842H431M421.227 114.158V125.474M421.227 114.158H431M421.227 125.474V136.789M421.227 125.474H431M421.227 136.789V148.105M421.227 136.789H431M421.227 148.105V159.421M421.227 148.105H431M421.227 159.421V170.737M421.227 159.421H431M421.227 170.737V182.053M421.227 170.737H431M421.227 182.053V193.368M421.227 182.053H431M421.227 193.368V204.684M421.227 193.368H431M421.227 204.684V216M421.227 204.684H431M421.227 216H431V204.684M431 12.3158V23.6316M431 23.6316V34.9474M431 34.9474V46.2632M431 46.2632V57.5789M431 57.5789V68.8947M431 68.8947V80.2105M431 80.2105V91.5263M431 91.5263V102.842M431 102.842V114.158M431 114.158V125.474M431 125.474V136.789M431 136.789V148.105M431 148.105V159.421M431 159.421V170.737M431 170.737V182.053M431 182.053V193.368M431 193.368V204.684" stroke="url(#paint0_radial_26_431)" stroke-width="0.472727"/>
<defs>
<radialGradient id="paint0_radial_26_431" cx="0" cy="0" r="1" gradientUnits="userSpaceOnUse" gradientTransform="translate(216 108.5) rotate(90) scale(107.5 215)">
<stop stop-color="#8D8D8D"/>
<stop offset="1" stop-color="white" stop-opacity="0"/>
</radialGradient>
</defs>
</svg>
