<svg width="24" height="26" viewBox="0 0 24 26" fill="none" xmlns="http://www.w3.org/2000/svg">
<path d="M13.0259 1.01138C12.4048 0.662088 11.5952 0.663659 10.9736 1.01138C7.86026 2.72948 4.74697 4.44811 1.63314 6.16543C1.02723 6.48418 0.618559 7.13486 0.625077 7.81023V18.1912C0.620702 18.8797 1.05044 19.5367 1.67198 19.8511C2.56637 20.3269 3.43533 20.8511 4.34588 21.2952C5.3977 21.812 6.71362 21.9263 7.77829 21.3873C8.64251 20.9406 9.02636 19.9471 9.02529 19.034C9.03225 15.608 9.02636 12.1819 9.02797 8.75593C9.0485 8.60367 8.93421 8.44093 8.76814 8.4446C8.37027 8.43831 7.97187 8.44093 7.574 8.44355C7.42364 8.42933 7.27694 8.55419 7.28828 8.70532C7.28292 12.1092 7.28935 15.5142 7.28506 18.9186C7.29373 19.3896 6.97559 19.8422 6.52174 20.0013C5.47355 20.3686 2.48173 18.4261 2.48173 18.4261C2.37194 18.3752 2.30222 18.2561 2.31298 18.1379C2.31298 14.7129 2.31351 11.2879 2.31298 7.86346C2.29789 7.72542 2.38298 7.60108 2.50977 7.54471C5.61279 5.83673 8.71421 4.12447 11.8172 2.41544C11.925 2.34351 12.0753 2.34373 12.1828 2.41597C15.2858 4.12447 18.3878 5.83516 21.4913 7.54322C21.6186 7.5995 21.7 7.72594 21.687 7.86346C21.6865 11.2879 21.6881 14.7129 21.686 18.1373C21.6952 18.2585 21.6326 18.376 21.5194 18.4292C18.4453 20.1279 15.3363 21.7719 12.29 23.5199C12.1571 23.5962 12.0066 23.6826 11.8577 23.5985C11.0566 23.1554 10.2652 22.6951 9.46682 22.2477C9.38003 22.1935 9.26949 22.1703 9.17895 22.2309C8.82091 22.4195 8.48428 22.5723 8.07321 22.735C7.49582 22.9636 7.5881 23.0571 8.10875 23.3604C9.04252 23.8888 9.97781 24.4152 10.9115 24.9441C11.5262 25.3277 12.3521 25.355 12.9865 25.0005C16.1004 23.2846 19.2131 21.5666 22.3275 19.8506C22.9474 19.5345 23.3793 18.8802 23.3749 18.1911V7.81023C23.3809 7.14856 22.9879 6.50948 22.4003 6.18602C19.2762 4.45954 16.1506 2.73681 13.0259 1.01138Z" fill="#8CC84B"/>
<path d="M17.7241 8.80546C16.502 8.15165 15.0481 8.11683 13.6901 8.20226C12.709 8.2992 11.6771 8.56996 10.9622 9.27325C10.2291 9.98029 10.0695 11.122 10.4177 12.045C10.6673 12.6971 11.2954 13.1213 11.945 13.3456C12.7818 13.641 13.6606 13.7323 14.5398 13.8237C15.3416 13.907 16.1438 13.9904 16.9145 14.2287C17.2293 14.333 17.5959 14.4926 17.6923 14.8351C17.7814 15.2408 17.6838 15.7123 17.3544 15.9941C16.3082 16.8222 13.3982 16.6953 12.3645 16.0436C11.9466 15.766 11.7665 15.2744 11.6933 14.8061C11.6852 14.6601 11.5677 14.5263 11.4092 14.5374C11.0124 14.5327 10.6156 14.5337 10.2188 14.5369C10.0803 14.5252 9.93638 14.6238 9.92879 14.765C9.84728 16.9102 11.8174 17.8454 13.6659 18.0514C14.722 18.152 15.8012 18.1462 16.8411 17.9196C17.6229 17.7416 18.4066 17.4139 18.9448 16.8117C19.6084 16.08 19.7388 14.9905 19.4412 14.079C19.2137 13.3989 18.5635 12.9626 17.8989 12.7382C16.995 12.4283 15.9238 12.2617 15.1052 12.1837C13.9153 12.0704 12.5013 12.1167 12.1645 11.3348C12.0302 10.9254 12.1445 10.417 12.5207 10.1652C13.5162 9.48993 15.5422 9.5796 16.5732 10.084C17.0466 10.3211 17.3209 10.8079 17.4341 11.2994C17.4551 11.4439 17.5522 11.5945 17.7194 11.5882C18.1134 11.596 18.5075 11.5903 18.9016 11.5908C19.0369 11.6003 19.1851 11.5239 19.2116 11.3853C19.1949 10.358 18.6703 9.30649 17.7241 8.80546Z" fill="#8CC84B"/>
</svg>
