<svg width="26" height="26" viewBox="0 0 26 26" fill="none" xmlns="http://www.w3.org/2000/svg">
<path fill-rule="evenodd" clip-rule="evenodd" d="M10.3893 0.75C8.46691 0.75 6.90847 2.25897 6.90847 4.12037V6.4537H12.9331V7.10185H4.23087C2.30844 7.10185 0.75 8.61081 0.75 10.4722L0.75 15.5278C0.75 17.3892 2.30844 18.8981 4.23087 18.8981H6.23907V16.0463C6.23907 14.1849 7.79751 12.6759 9.71994 12.6759H16.1462C17.7728 12.6759 19.0915 11.3991 19.0915 9.82407V4.12037C19.0915 2.25897 17.5331 0.75 15.6106 0.75H10.3893ZM9.58606 4.89815C10.2515 4.89815 10.791 4.37581 10.791 3.73148C10.791 3.08715 10.2515 2.56481 9.58606 2.56481C8.9206 2.56481 8.38114 3.08715 8.38114 3.73148C8.38114 4.37581 8.9206 4.89815 9.58606 4.89815Z" fill="url(#paint0_linear_2657_349)"/>
<path fill-rule="evenodd" clip-rule="evenodd" d="M15.6104 25.2497C17.5328 25.2497 19.0913 23.7407 19.0913 21.8793V19.546L13.0667 19.546L13.0667 18.8979L21.7689 18.8979C23.6913 18.8979 25.2497 17.3889 25.2497 15.5275V10.4719C25.2497 8.61053 23.6913 7.10156 21.7689 7.10156L19.7607 7.10156V9.95341C19.7607 11.8148 18.2022 13.3238 16.2798 13.3238L9.85356 13.3238C8.22688 13.3238 6.9082 14.6006 6.9082 16.1756L6.9082 21.8793C6.9082 23.7407 8.46664 25.2497 10.3891 25.2497H15.6104ZM16.4137 21.1016C15.7482 21.1016 15.2087 21.6239 15.2087 22.2682C15.2087 22.9126 15.7482 23.4349 16.4137 23.4349C17.0791 23.4349 17.6186 22.9126 17.6186 22.2682C17.6186 21.6239 17.0791 21.1016 16.4137 21.1016Z" fill="url(#paint1_linear_2657_349)"/>
<defs>
<linearGradient id="paint0_linear_2657_349" x1="9.92076" y1="0.75" x2="9.92076" y2="18.8981" gradientUnits="userSpaceOnUse">
<stop stop-color="#327EBD"/>
<stop offset="1" stop-color="#1565A7"/>
</linearGradient>
<linearGradient id="paint1_linear_2657_349" x1="16.079" y1="7.10156" x2="16.079" y2="25.2497" gradientUnits="userSpaceOnUse">
<stop stop-color="#FFDA4B"/>
<stop offset="1" stop-color="#F9C600"/>
</linearGradient>
</defs>
</svg>
