<svg
  fill="currentColor"
  version="1.1"
  xmlns="http://www.w3.org/2000/svg"
  xmlns:xlink="http://www.w3.org/1999/xlink"
  viewBox="0 0 512 512"
  xml:space="preserve"
>
  <g id="SVGRepo_bgCarrier" stroke-width="0"></g>
  <g
    id="SVGRepo_tracerCarrier"
    stroke-linecap="round"
    stroke-linejoin="round"
  ></g>
  <g id="SVGRepo_iconCarrier">
    <g id="7935ec95c421cee6d86eb22ecd12f847">
      <path
        style="display: inline;"
        d="M459.186,151.787c0.203,4.501,0.305,9.023,0.305,13.565 c0,138.542-105.461,298.285-298.274,298.285c-59.209,0-114.322-17.357-160.716-47.104c8.212,0.973,16.546,1.47,25.012,1.47 c49.121,0,94.318-16.759,130.209-44.884c-45.887-0.841-84.596-31.154-97.938-72.804c6.408,1.227,12.968,1.886,19.73,1.886 c9.55,0,18.816-1.287,27.617-3.68c-47.955-9.633-84.1-52.001-84.1-102.795c0-0.446,0-0.882,0.011-1.318 c14.133,7.847,30.294,12.562,47.488,13.109c-28.134-18.796-46.637-50.885-46.637-87.262c0-19.212,5.16-37.218,14.193-52.7 c51.707,63.426,128.941,105.156,216.072,109.536c-1.784-7.675-2.718-15.674-2.718-23.896c0-57.891,46.941-104.832,104.832-104.832 c30.173,0,57.404,12.734,76.525,33.102c23.887-4.694,46.313-13.423,66.569-25.438c-7.827,24.485-24.434,45.025-46.089,58.002 c21.209-2.535,41.426-8.171,60.222-16.505C497.448,118.542,479.666,137.004,459.186,151.787z"
      > 
      </path>
    </g>
  </g>
</svg>
